SplineFontDB: 3.0
FontName: NeutonCursive-Regular
FullName: Neuton Cursive
FamilyName: Neuton Cursive
Weight: Book
Copyright: Copyright (c) 2010, 2011 Brian M Zick (http://21326.info/), \nwith Reserved Font Name 'Neuton Cursive'.\n\nThis Font Software is licensed under the SIL Open Font License, Version 1.1.\nThis license is available with a FAQ at: http://scripts.sil.org/OFL\n   WITHOUT WARRANTIES OR CONDITIONS OF ANY KIND, either express or implied.\n   See the License for the specific language governing permissions and\n   limitations under the License.
Version: 1.46
ItalicAngle: 0
UnderlinePosition: -361
UnderlineWidth: 0
Ascent: 1638
Descent: 410
LayerCount: 2
Layer: 0 0 "Back"  1
Layer: 1 0 "Fore"  0
XUID: [1021 467 2011608612 8622985]
FSType: 1
OS2Version: 1
OS2_WeightWidthSlopeOnly: 0
OS2_UseTypoMetrics: 0
CreationTime: 1300472668
ModificationTime: 1335394584
PfmFamily: 17
TTFWeight: 500
TTFWidth: 5
LineGap: 0
VLineGap: 0
OS2TypoAscent: 2106
OS2TypoAOffset: 0
OS2TypoDescent: -485
OS2TypoDOffset: 0
OS2TypoLinegap: 0
OS2WinAscent: 2106
OS2WinAOffset: 0
OS2WinDescent: 485
OS2WinDOffset: 0
HheadAscent: 2106
HheadAOffset: 0
HheadDescent: -485
HheadDOffset: 0
OS2SubXSize: 1095
OS2SubYSize: 1179
OS2SubXOff: 0
OS2SubYOff: 235
OS2SupXSize: 1095
OS2SupYSize: 1179
OS2SupXOff: 0
OS2SupYOff: 809
OS2StrikeYSize: 84
OS2StrikeYPos: 436
OS2Vendor: 'PfEd'
OS2CodePages: 20000093.00000000
OS2UnicodeRanges: a00000ef.0000204a.00000000.00000000
Lookup: 1 0 0 "'onum' Oldstyle Figures lookup 1"  {"'onum' Oldstyle Figures lookup 1-1" ("osf" ) } ['onum' ('DFLT' <'dflt' > 'hebr' <'dflt' > 'latn' <'dflt' > ) ]
MarkAttachClasses: 1
DEI: 91125
ShortTable: maxp 16
  1
  0
  367
  132
  7
  0
  0
  2
  0
  1
  1
  0
  64
  0
  0
  0
EndShort

StartChar: exclam
Encoding: 2 33 1
Width: 382
VWidth: 1655
GlyphClass: 2
Flags: HMW
LayerCount: 2
Fore
SplineSet
80 1257 m 1
 111 1279 147 1290 188 1290 c 128
 229 1290 263 1278 289 1254 c 128
 315 1230 331 1196 339 1152 c 1
 343 1136 345 1114 344 1085 c 0
 342 1000 325 872 290 699 c 5
 215 338 l 1
 144 325 l 1
 156 495 l 2
 161 561 163 666 163 811 c 2
 163 874 l 1
 158 1022 131 1150 80 1257 c 1
209 206 m 128
 221 200 231 192 241 178 c 128
 251 164 256 154 259 143 c 128
 262 132 263 125 263 120 c 128
 263 115 261 100 255 73 c 128
 249 46 235 22 212 -1 c 128
 189 -24 162 -35 132 -35 c 1
 105 -33 85 -24 69 -8 c 128
 53 8 45 24 42 42 c 128
 39 60 38 68 38 71 c 128
 38 74 40 86 45 108 c 128
 50 130 62 153 85 176 c 128
 108 199 131 211 155 212 c 128
 179 213 197 212 209 206 c 128
EndSplineSet
Colour: ffffff
EndChar

StartChar: quotedbl
Encoding: 3 34 2
Width: 482
VWidth: 1655
GlyphClass: 2
Flags: HMW
LayerCount: 2
Fore
SplineSet
47 1308 m 1
 53 1310 71 1311 105 1310 c 128
 139 1309 181 1304 230 1292 c 1
 145 906 l 1
 122 898 97 894 70 895 c 2
 49 895 l 1
 47 1308 l 1
256 1308 m 1
 262 1310 281 1311 315 1310 c 128
 349 1309 390 1304 439 1292 c 1
 354 906 l 1
 331 898 306 894 279 895 c 2
 259 895 l 1
 256 1308 l 1
EndSplineSet
Colour: ffffff
EndChar

StartChar: numbersign
Encoding: 4 35 3
Width: 937
VWidth: 1655
GlyphClass: 2
Flags: HMW
LayerCount: 2
Fore
SplineSet
305 355 m 1
 254 174 l 1
 149 167 l 1
 204 355 l 1
 38 355 l 1
 79 455 l 1
 237 455 l 1
 300 662 l 1
 142 662 l 1
 181 760 l 1
 333 760 l 1
 390 931 l 1
 491 941 l 1
 434 760 l 1
 634 760 l 1
 688 931 l 1
 791 940 l 1
 734 760 l 1
 899 760 l 1
 860 662 l 1
 702 662 l 1
 640 455 l 1
 796 455 l 1
 757 355 l 1
 605 355 l 1
 554 174 l 1
 449 167 l 1
 505 355 l 1
 305 355 l 1
338 455 m 1
 537 455 l 1
 602 662 l 1
 401 662 l 1
 338 455 l 1
EndSplineSet
Colour: ffffff
EndChar

StartChar: dollar
Encoding: 5 36 4
Width: 919
VWidth: 1655
GlyphClass: 2
Flags: HMW
LayerCount: 2
Fore
SplineSet
566 1184 m 1
 562 1184 l 2
 517 1184 477 1168 439 1138 c 128
 401 1108 381 1067 377 1016 c 1
 377 1003 l 2
 377 945 397 894 437 850 c 1
 453 833 474 813 500 788 c 1
 566 1184 l 1
446 80 m 1
 487 83 525 94 558 116 c 0
 612 151 639 200 639 262 c 128
 639 324 617 378 574 423 c 1
 560 440 540 458 514 479 c 1
 446 80 l 1
263 401 m 1
 243 346 233 297 235 256 c 0
 235 193 267.154 146 330 113 c 1
 344 104 361 96 383 88 c 1
 457 525 l 1
 376 591 313 650 270 702 c 1
 214 773 186 841 186 906 c 2
 186 928 l 1
 190 966 201 1004 221 1043 c 1
 255 1108 301 1161 360 1200 c 128
 419 1239 481 1263 548 1273 c 1
 573 1417 l 1
 706 1426 l 1
 681 1271 l 1
 762 1256 829 1225 883 1178 c 1
 818 832 l 1
 730 851 l 1
 723 1101 l 1
 700 1134 669 1157 630 1171 c 1
 557 741 l 1
 644 668 698 621 721 600 c 0
 790 532 829 457 840 376 c 0
 842 371 842 362 841 346 c 0
 841 261 810 185 747 120 c 1
 696 66 631 26 552 0 c 0
 523 -10 493 -15 462 -19 c 1
 439 -157 l 1
 310 -167 l 1
 335 -19 l 1
 262 -11 198 12 141 49 c 0
 111 70 87 94 69 123 c 128
 51 152 41 180 38 207 c 1
 36 211 36 218 36 232 c 128
 36 246 38 264 44 286 c 1
 62 339 96 375 148 395 c 1
 171 406 195 411 221 411 c 128
 236.167 411 250.75 408 263 401 c 1
EndSplineSet
Colour: ffffff
EndChar

StartChar: percent
Encoding: 6 37 5
Width: 1104
VWidth: 1655
GlyphClass: 2
Flags: HMW
LayerCount: 2
Fore
SplineSet
879 962 m 1
 1015 971 l 1
 206 -23 l 1
 64 -31 l 1
 879 962 l 1
524 770 m 0
 524 768 524 754 522 727 c 1
 512 649 483 587 433 541 c 128
 383 495 322 471 251 471 c 128
 180 471 126 491 91 530 c 128
 56 569 38 621 38 686 c 0
 38 769 66 838 122 893 c 128
 178 948 241 975 313 975 c 128
 385 975 439 957 473 920 c 128
 507 883 524 833 524 770 c 0
294 883 m 0
 201 883 155 821 156 699 c 0
 156 608 193 563 267 562 c 0
 349 562 395 619 407 733 c 0
 409 745 409 752 409 754 c 0
 409 794 400 825 379 848 c 128
 358 871 330 883 294 883 c 0
1066 274 m 0
 1066 270 1065 257 1062 233 c 1
 1053 156 1024 94 973 47 c 128
 922 0 861 -24 790 -24 c 128
 719 -24 666 -3 631 37 c 128
 596 77 578 128 578 191 c 0
 578 272 607 339 666 394 c 128
 725 449 790 476 860 476 c 128
 930 476 982 458 1016 421 c 128
 1050 384 1066 335 1066 274 c 0
696 202 m 0
 696 113 733 68 808 68 c 0
 889 68 935 119 947 220 c 0
 949 226 949 236 949 254 c 0
 949 295 939 327 918 350 c 128
 897 373 870 385 834 385 c 0
 755 385 710 337 698 240 c 0
 696 234 696 222 696 202 c 0
EndSplineSet
Colour: ffffff
EndChar

StartChar: ampersand
Encoding: 7 38 6
Width: 1171
VWidth: 1655
GlyphClass: 2
Flags: HMW
LayerCount: 2
Fore
SplineSet
258 872 m 0
 258 1050.9 424.162 1220 634 1220 c 128
 784.836 1220 892 1126.06 892 985 c 0
 892 793 693 673 538 627 c 1
 556.489 601.527 508 695 508 695 c 17
 621 725 709 849 709 933 c 128
 709 1062.33 644.982 1127 565 1127 c 128
 483.474 1127 431 1046.18 431 971 c 0
 431 842.781 468 778 549 645 c 2
 856.457 141 l 2
 895.243 69.1885 934 0 934 -79 c 0
 934 -272.492 677.194 -363 515 -301 c 1
 508 -265 l 1
 625.073 -243.917 743 -212.549 743 -112 c 0
 743 -56 729.668 -35.1377 679.289 61 c 2
 363.611 585 l 2
 290 707 258 798.101 258 872 c 0
784 617 m 1
 820.659 671.037 869.37 701 940 701 c 0
 1050.66 701 1133 586.288 1133 460 c 0
 1133 113.594 712.191 -52 401 -52 c 0
 213.972 -52 38 29.7617 38 270 c 0
 38 436 201 560 375.461 643.428 c 1
 375.668 635.17 417 572 417 572 c 1
 275 488.655 250 408.621 250 309 c 0
 250 151.666 378.636 72 533 72 c 0
 728.265 72 949 158.641 949 400 c 0
 949 488.279 894.268 578.565 784 617 c 1
EndSplineSet
Colour: ffffff
EndChar

StartChar: quotesingle
Encoding: 8 39 7
Width: 273
VWidth: 1655
GlyphClass: 2
Flags: HMW
LayerCount: 2
Fore
SplineSet
47 1308 m 5
 53 1310 71 1311 105 1310 c 128
 139 1309 181 1304 230 1292 c 1
 145 906 l 1
 122 898 97 894 70 895 c 2
 49 895 l 1
 47 1308 l 5
EndSplineSet
Colour: ffffff
EndChar

StartChar: parenleft
Encoding: 9 40 8
Width: 567
VWidth: 1655
GlyphClass: 2
Flags: HMW
LayerCount: 2
Fore
SplineSet
281 -378 m 1
 120 -195 39 27 38 287 c 0
 38 338 42 402 51 477 c 128
 60 552 79 635 109 724 c 128
 139 813 171 885 203 940 c 128
 235 995 273 1047 316 1098 c 128
 359 1149 394 1187 423 1212 c 128
 452 1237 473 1254 488 1266 c 1
 530 1199 l 1
 369 1020 269 774 230 460 c 0
 222 401 219 341 218 282 c 1
 220 72 267 -129 358 -320 c 1
 281 -378 l 1
EndSplineSet
Colour: ffffff
EndChar

StartChar: parenright
Encoding: 10 41 9
Width: 585
VWidth: 1655
GlyphClass: 2
Flags: HMW
LayerCount: 2
Fore
SplineSet
37 -320 m 1
 260 -16 371 319 372 685 c 0
 372 886 328 1057 240 1199 c 1
 298 1266 l 1
 464 1111 547 897 546 621 c 0
 546 467 520 317 469 170 c 0
 438 84 407 12 375 -45 c 128
 343 -102 308 -152 271 -197 c 128
 234 -242 206 -276 186 -298 c 0
 162 -325 133 -351 99 -378 c 1
 37 -320 l 1
EndSplineSet
Colour: ffffff
EndChar

StartChar: asterisk
Encoding: 11 42 10
Width: 793
VWidth: 0
GlyphClass: 2
Flags: HMW
LayerCount: 2
Fore
SplineSet
325 1292 m 1
 461 1279 l 1
 435 988 l 1
 724 1119 l 1
 753 989 l 1
 468 921 l 1
 687 692 l 1
 569 623 l 1
 416 870 l 1
 261 593 l 1
 159 685 l 1
 352 904 l 1
 40 964 l 1
 95 1091 l 1
 362 977 l 1
 325 1292 l 1
EndSplineSet
Colour: ffffff
EndChar

StartChar: plus
Encoding: 12 43 11
Width: 648
VWidth: 1655
GlyphClass: 2
Flags: HMW
LayerCount: 2
Fore
SplineSet
373 413 m 1
 345 174 l 1
 236 186 l 1
 264 413 l 1
 40 413 l 1
 65 514 l 1
 274 514 l 1
 304 747 l 1
 410 734 l 1
 385 514 l 1
 608 514 l 1
 582 413 l 1
 373 413 l 1
EndSplineSet
Colour: ffffff
EndChar

StartChar: comma
Encoding: 13 44 12
Width: 417
VWidth: 1655
GlyphClass: 2
Flags: HMW
LayerCount: 2
Fore
SplineSet
232 227 m 2
 247 227 l 1
 299 221 336 188 358 127 c 0
 368 103 372 80 373 57 c 0
 373 -44 323 -132 224 -209 c 1
 180 -245 130 -276 75 -303 c 1
 43 -251 l 1
 102 -220 144 -187 169 -149 c 128
 194 -111 206 -74 206 -39 c 0
 206 -37 204 -26 200 -4 c 128
 196 18 185 42 165 64 c 128
 145 86 123 103 98 116 c 1
 108 152 125 179 152 198 c 128
 179 217 205 227 232 227 c 2
EndSplineSet
Colour: ffffff
EndChar

StartChar: hyphen
Encoding: 14 45 13
Width: 500
VWidth: 1655
GlyphClass: 2
Flags: HMW
LayerCount: 2
Fore
SplineSet
55 489 m 1
 455 507 l 1
 443 408 l 1
 44 390 l 1
 55 489 l 1
EndSplineSet
Colour: ffffff
EndChar

StartChar: period
Encoding: 15 46 14
Width: 314
VWidth: 1655
GlyphClass: 2
Flags: HMW
LayerCount: 2
Fore
SplineSet
215 206 m 128
 227 200 237 192 247 178 c 128
 257 164 262 154 265 143 c 128
 268 132 269 125 269 120 c 128
 269 115 267 100 261 73 c 128
 255 46 241 22 218 -1 c 128
 195 -24 168 -35 138 -35 c 1
 111 -33 91 -24 75 -8 c 128
 59 8 51 24 48 42 c 128
 45 60 44 68 44 71 c 128
 44 74 46 86 51 108 c 128
 56 130 68 153 91 176 c 128
 114 199 137 211 161 212 c 128
 185 213 203 212 215 206 c 128
EndSplineSet
Colour: ffffff
EndChar

StartChar: slash
Encoding: 16 47 15
Width: 674
VWidth: 1655
GlyphClass: 2
Flags: HMW
LayerCount: 2
Fore
SplineSet
503 1245 m 1
 637 1252 l 1
 168 -357 l 1
 37 -367 l 1
 503 1245 l 1
EndSplineSet
Colour: ffffff
EndChar

StartChar: zero
Encoding: 17 48 16
Width: 914
VWidth: 1655
GlyphClass: 2
Flags: HMW
LayerCount: 2
Fore
SplineSet
519 1158 m 1
 584 1154 641 1133 690 1092 c 128
 739 1051 780 997 811 931 c 0
 854 840 876 736 876 618 c 0
 876 611 875 586 872 543 c 1
 860 402 821 282 752 181 c 0
 714 126 670 81 621 45 c 128
 572 9 528 -11 488 -16 c 128
 448 -21 428 -23 424 -23 c 0
 361 -23 301 -5 245 30 c 128
 189 65 143 119 108 191 c 128
 73 263 52 345 44 437 c 1
 40 466 39 503 39 548 c 128
 39 593 45 644 59 702 c 0
 86 818 137 921 214 1011 c 1
 259 1063 305 1100 351 1123 c 128
 397 1146 447 1158 502 1158 c 2
 519 1158 l 1
228 864 m 1
 208 801 198 731 199 653 c 0
 199 509 231 375 294 251 c 1
 346 151 413 101 494 101 c 0
 556 101 603 125 636 173 c 0
 657 204 676 252 693 317 c 128
 710 382 717 448 717 517 c 0
 717 624 694 728 650 829 c 128
 606 930 551 995 484 1022 c 1
 460 1031 443 1035 432 1036 c 128
 421 1037 406 1035 386 1032 c 1
 308 1015 255 959 228 864 c 1
EndSplineSet
Substitution2: "'onum' Oldstyle Figures lookup 1-1" zero.osf
Colour: ffffff
EndChar

StartChar: one
Encoding: 18 49 17
Width: 592
VWidth: 1655
GlyphClass: 2
Flags: HMW
LayerCount: 2
Fore
SplineSet
235 -14 m 1
 283 261 312 438 323 516 c 128
 334 594 341 658 349 707 c 128
 357 756 363 806 370 857 c 128
 377 908 384 968 394 1036 c 1
 385 1032 l 1
 359 959 331 907 302 879 c 128
 273 851 246 834 221 826 c 128
 196 818 175 815 158 815 c 128
 141 815 123 820 102 830 c 0
 60 850 39 885 38 935 c 0
 38 937 39 944 42 959 c 1
 146 966 240 997 325 1053 c 1
 363 1078 397 1107 428 1138 c 1
 554 1154 l 1
 455 -8 l 1
 235 -14 l 1
EndSplineSet
Substitution2: "'onum' Oldstyle Figures lookup 1-1" one.osf
Colour: ffffff
EndChar

StartChar: two
Encoding: 19 50 18
Width: 913
VWidth: 1655
GlyphClass: 2
Flags: HMW
LayerCount: 2
Fore
SplineSet
411 664 m 1
 380 626 346 607 309 607 c 0
 237 607 187 639 159 702 c 1
 148 725 143 758 143 802 c 128
 143 846 162 899 199 961 c 128
 236 1023 285 1074 346 1114 c 128
 407 1154 476 1176 552 1178 c 1
 566 1178 l 2
 655 1178 726 1150 780 1094 c 1
 843 1031 874 948 875 845 c 0
 874 698 803 558 659 424 c 0
 596 365 498 291 366 200 c 2
 253 123 l 1
 253 113 l 1
 454 121 l 1
 470 121 489 121 513 123 c 128
 537 125 552 125 560 125 c 0
 629 131 681 159 716 212 c 0
 732 234 745 262 759 296 c 2
 792 376 l 1
 866 349 l 1
 865 343 859 297 845 210 c 0
 831 123 815 48 796 -16 c 1
 641 -16 l 1
 479 -14 333 -10 201 -3 c 2
 38 5 l 1
 49 101 l 1
 230 211 l 2
 345 281 428 337 477 381 c 128
 526 425 562 464 586 499 c 128
 610 534 631 574 650 621 c 128
 669 668 679 723 681 786 c 1
 681 797 l 2
 681 863 667 922 639 974 c 128
 611 1026 572 1061 523 1078 c 1
 503 1084 481 1086 457 1086 c 128
 433 1086 406 1075 376 1054 c 128
 346 1033 327 1005 314 973 c 128
 301 941 295 912 295 885 c 0
 295 797 334 723 411 664 c 1
EndSplineSet
Substitution2: "'onum' Oldstyle Figures lookup 1-1" two.osf
Colour: ffffff
EndChar

StartChar: three
Encoding: 20 51 19
Width: 845
VWidth: 1655
GlyphClass: 2
Flags: HMW
LayerCount: 2
Fore
SplineSet
343 589 m 1
 468.578 651.167 634 735.159 634 915 c 0
 634 1023.03 578.954 1099 482 1099 c 128
 396.754 1099 328 1049.26 328 969 c 128
 328 892.109 364 848 402 815 c 1
 384.064 781.121 352.479 757 309 757 c 1
 307 755 306 755 302 755 c 0
 233.663 755 181 817.086 181 888 c 0
 181 1059.7 394.426 1179 564 1179 c 0
 716.659 1179 807 1105.01 807 961 c 128
 807 779.168 644 676 542 625 c 1
 542 621 l 1
 675.569 621 794 522.215 794 372 c 0
 794 122.151 548.198 -28 307 -28 c 128
 172.374 -28 40.1055 44.8994 38 167 c 1
 38 272.75 121.88 333.335 218 332 c 1
 186.728 188.148 256.177 63 387 63 c 0
 506.541 63 611 134.941 611 283 c 0
 611 459.429 472 553.422 337 530 c 1
 343 589 l 1
EndSplineSet
Substitution2: "'onum' Oldstyle Figures lookup 1-1" three.osf
Colour: ffffff
EndChar

StartChar: four
Encoding: 21 52 20
Width: 909
VWidth: 1655
GlyphClass: 2
Flags: HMW
LayerCount: 2
Fore
SplineSet
373 532 m 2
 183 353 l 1
 529 360 l 1
 550 585 l 1
 720 702 l 1
 676 365 l 1
 871 369 l 1
 838 233 l 1
 667 241 l 1
 648 14 l 1
 490 -12 l 1
 521 246 l 1
 53 267 l 1
 38 323 l 1
 227 510 l 2
 403.394 684.527 596.451 859.043 592 1184 c 1
 693.047 1202.37 766 1137.75 766 1046 c 128
 766 908 556.337 706.425 373 532 c 2
EndSplineSet
Substitution2: "'onum' Oldstyle Figures lookup 1-1" four.osf
Colour: ffffff
EndChar

StartChar: five
Encoding: 22 53 21
Width: 877
VWidth: 1655
GlyphClass: 2
Flags: HMW
LayerCount: 2
Fore
SplineSet
839 1092 m 1
 830 998 763 951 638 951 c 0
 581 951 523 954 466 962 c 0
 409 970 378 973 373 973 c 1
 320 750 l 1
 328 747 l 1
 334 747 337 747 341 748 c 1
 357 748 l 2
 473 748 570 712 648 641 c 1
 724 567 762 480 763 380 c 0
 763 281 731 192 668 114 c 0
 621 57 562 17 490 -5 c 1
 443 -23 399 -31 360 -31 c 128
 321 -31 300 -31 294 -30 c 1
 232 -26 178 -11 133 18 c 1
 70 57 39 112 38 184 c 0
 38 188 39 198 42 216 c 1
 50 247 65 277 89 303 c 128
 113 329 145 343 185 346 c 1
 187 336 191 310 201 269 c 1
 234 161 293 99 379 81 c 1
 402 79 414 78 416 78 c 0
 456 78 493 89 529 111 c 128
 565 133 587 160 596 193 c 128
 605 226 609 250 609 267 c 128
 609 284 609 298 607 311 c 128
 605 324 598 348 583 383 c 1
 560 441 526 488 481 524 c 128
 436 560 385 582 328 592 c 1
 295 599 262 602 229 602 c 1
 206 620 l 1
 341 1115 l 1
 357 1113 393 1113 448 1113 c 0
 599 1113 726 1129 829 1160 c 1
 836 1140 839 1121 839 1104 c 2
 839 1092 l 1
EndSplineSet
Substitution2: "'onum' Oldstyle Figures lookup 1-1" five.osf
Colour: ffffff
EndChar

StartChar: six
Encoding: 23 54 22
Width: 838
VWidth: 1655
GlyphClass: 2
Flags: HMW
LayerCount: 2
Fore
SplineSet
209 423 m 2
 209 388 l 1
 215 264 239 178 283 129 c 1
 317 89 354 69 395 70 c 0
 397 70 400 70 404 72 c 1
 411 72 l 1
 438 76 463 86 486 104 c 0
 530 144 557 213 567 310 c 0
 571 334 572 359 571 385 c 0
 571 434 562 477 544 514 c 1
 535 534 521 551 501 566 c 1
 470 589 435 600 396 601 c 128
 357 602 320 596 286 584 c 128
 252 572 228 556 214 534 c 1
 210 498 209 461 209 423 c 2
95 675 m 0
 164 866 274 1009 425 1104 c 1
 492 1145 554 1165 609 1164 c 0
 661 1164 703 1151 736 1124 c 0
 779 1087 801 1044 800 995 c 0
 800 966 793 938 777 912 c 128
 761 886 738 866 706 853 c 1
 679 922 640 972 591 1003 c 0
 568 1017 546 1025 523 1029 c 1
 507 1029 l 2
 448 1029 398 1001 356 945 c 128
 314 889 283 825 262 752 c 0
 241 679 229 630 225 604 c 1
 254 642 291 670 338 690 c 128
 385 710 433 718 483 717 c 128
 533 716 577 705 615 682 c 128
 653 659 683 630 704 594 c 128
 725 558 736 523 740 487 c 128
 744 451 746 432 746 427 c 0
 746 372 733 312 707 249 c 128
 681 186 645 134 599 91 c 1
 520 20 436 -15 347 -16 c 0
 331 -16 321 -16 316 -14 c 1
 209 -5 129 52 76 158 c 1
 51 213 39 275 38 344 c 0
 38 372 38 390 40 398 c 1
 46 497 64 590 95 675 c 0
EndSplineSet
Substitution2: "'onum' Oldstyle Figures lookup 1-1" six.osf
Colour: ffffff
EndChar

StartChar: seven
Encoding: 24 55 23
Width: 900
VWidth: 1655
GlyphClass: 2
Flags: HMW
LayerCount: 2
Fore
SplineSet
441 537 m 4
 402 454 383 369 383 282 c 132
 383 195 414 117 476 49 c 5
 458 26 433 9 399 -3 c 5
 389 -8 376 -10 360 -10 c 132
 344 -10 324 -6 298 2 c 132
 272 10 247 28 224 58 c 132
 201 88 189 120 185 153 c 132
 181 186 179 210 179 228 c 4
 179 269 201 335 244 427 c 5
 290 515 359 619 451 738 c 6
 671 1022 l 5
 555 1018 448 1013 349 1005 c 132
 250 997 194 993 179 990 c 5
 113 830 l 5
 38 851 l 5
 72 1142 l 5
 88 1144 145 1147 247 1153 c 132
 349 1159 436 1161 507 1161 c 5
 862 1148 l 5
 859 1090 l 5
 625 812 l 6
 541 711 480 619 441 537 c 4
EndSplineSet
Substitution2: "'onum' Oldstyle Figures lookup 1-1" seven.osf
Colour: ffffff
EndChar

StartChar: eight
Encoding: 25 56 24
Width: 789
VWidth: 1655
GlyphClass: 2
Flags: HMW
LayerCount: 2
Fore
SplineSet
500 653 m 1
 561 707 591 783 590 882 c 0
 590 935 582 978 564 1012 c 128
 546 1046 526 1068 504 1077 c 128
 482 1086 464 1090 448 1090 c 1
 427 1089 l 1
 404 1085 384 1076 366 1059 c 128
 348 1042 337 1021 330 997 c 128
 323 973 320 955 320 941 c 2
 320 931 l 1
 324 878 346 826 388 775 c 0
 422 733 459 692 500 653 c 1
275 618 m 1
 202 701 166 783 165 864 c 0
 165 878 165 886 166 890 c 1
 177 981 228 1056 320 1117 c 1
 382 1156 446 1175 513 1175 c 128
 580 1175 637 1152 683 1106 c 128
 729 1060 751 1005 751 941 c 0
 751 925 751 915 750 911 c 1
 744 852 722 795 682 740 c 128
 642 685 597 641 546 608 c 1
 607 547 651 492 676 443 c 128
 701 394 714 345 714 296 c 0
 714 280 714 270 712 265 c 1
 708 229 698 194 678 160 c 128
 658 126 633 98 602 75 c 1
 547 30 479 -1 398 -18 c 0
 371 -24 342 -26 311 -26 c 0
 199 -26 118 16 68 99 c 1
 47 132 37 171 37 216 c 0
 37 232 37 240 39 242 c 1
 43 287 55 327 76 363 c 0
 97 398 130 441 175 492 c 1
 218 535 257 570 293 599 c 1
 275 618 l 1
336 557 m 1
 254 465 212 375 210 286 c 1
 210 269 l 2
 210 186 239 126 298 89 c 0
 324 72 351 63 380 61 c 1
 384 61 l 2
 431 61 469 77 500 110 c 128
 531 143 546 189 546 246 c 128
 546 303 515 367 454 437 c 0
 438 458 399 498 336 557 c 1
EndSplineSet
Substitution2: "'onum' Oldstyle Figures lookup 1-1" eight.osf
Colour: ffffff
EndChar

StartChar: nine
Encoding: 26 57 25
Width: 782
VWidth: 1655
GlyphClass: 2
Flags: HMW
LayerCount: 2
Fore
SplineSet
379 1090 m 0
 280 1090 225 1003 211 830 c 1
 211 812 l 1
 209 806 209 801 209 794 c 0
 209 682 242 609 309 574 c 0
 334 561 361 555 390 555 c 0
 394 555 409 557 436 561 c 128
 463 565 487 571 510 583 c 128
 533 595 548 602 556 609 c 128
 564 616 571 624 580 636 c 1
 580 681 l 2
 580 782 569 866 547 933 c 0
 514 1038 458 1090 379 1090 c 0
744 739 m 2
 744 632 732 534 707 445 c 128
 682 356 638 270 576 188 c 1
 471 53 359 -14 241 -14 c 2
 234 -14 l 2
 200 -14 168 -7 138 6 c 128
 108 19 85 38 66 64 c 128
 47 90 38 120 38 153 c 0
 38 157 39 166 42 184 c 1
 54 229 80 263 121 284 c 1
 141 248 167 217 198 191 c 1
 248 157 291 140 328 141 c 0
 342 141 350 141 353 142 c 1
 414 148 463 181 502 242 c 1
 530 289 550 357 564 448 c 0
 565 452 568 488 575 557 c 1
 550 522 517 494 475 472 c 128
 433 450 390 438 347 434 c 1
 342 432 327 432 299 432 c 128
 271 432 238 441 200 460 c 128
 162 479 132 503 111 534 c 1
 75 583 57 647 58 726 c 0
 58 827 85 920 139 1005 c 0
 173 1057 214 1098 263 1130 c 128
 312 1162 365 1178 422 1180 c 1
 431 1180 l 2
 483 1180 531 1167 574 1143 c 128
 617 1119 652 1084 679 1039 c 1
 718 975 739 891 744 788 c 1
 744 739 l 2
EndSplineSet
Substitution2: "'onum' Oldstyle Figures lookup 1-1" nine.osf
Colour: ffffff
EndChar

StartChar: colon
Encoding: 27 58 26
Width: 369
VWidth: 1655
GlyphClass: 2
Flags: HMW
LayerCount: 2
Fore
SplineSet
329.251 755 m 0
 329.251 753 328.251 744 326.251 726 c 1
 318.251 695 304.251 672 284.251 653 c 128
 264.251 634 241.251 625 215.251 625 c 128
 189.251 625 168.251 632 155.251 646 c 128
 142.251 660 135.251 676 131.251 696 c 1
 129.251 698 129.251 701 129.251 708 c 128
 129.251 715 130.251 728 134.251 750 c 128
 138.251 772 151.251 794 172.251 815 c 128
 193.251 836 218.251 846 245.251 847 c 128
 272.251 848 293.251 839 308.251 820 c 128
 323.251 801 329.251 779 329.251 755 c 0
222.251 165 m 1
 235.251 147 240.251 132 241.251 120 c 128
 242.251 108 241.251 95 238.251 77 c 1
 231.251 50 218.251 27 197.251 5 c 128
 176.251 -17 151.251 -28 124.251 -28 c 1
 101.251 -26 82.251 -18 68.251 -3 c 1
 48.251 17 38.251 41 40.251 68 c 0
 40.251 104 53.251 134 78.251 159 c 128
 103.251 184 125.251 195 145.251 196 c 128
 165.251 197 180.251 196 190.251 191 c 128
 200.251 186 210.251 178 222.251 165 c 1
EndSplineSet
Colour: ffffff
EndChar

StartChar: semicolon
Encoding: 28 59 27
Width: 450
VWidth: 1655
GlyphClass: 2
Flags: HMW
LayerCount: 2
Fore
SplineSet
147 181 m 1
 170 194 191 200 212 200 c 2
 222 200 l 1
 269 194 302 164 322 109 c 1
 331 82 335 63 336 51 c 128
 337 39 334 18 330 -11 c 128
 326 -40 312 -70 289 -103 c 0
 241 -172 167 -231 68 -280 c 1
 39 -230 l 1
 72 -210 94 -196 106 -187 c 128
 118 -178 133 -160 154 -134 c 128
 175 -108 186 -76 186 -40 c 0
 186 -38 184 -28 180 -9 c 128
 176 10 165 30 147 50 c 128
 129 70 110 87 89 101 c 1
 97 133 116 160 147 181 c 1
391 815 m 1
 404 797 409 782 410 770 c 128
 411 758 410 744 408 726 c 1
 400 695 387 672 367 653 c 128
 347 634 325 625 298 625 c 128
 271 625 252 632 238 646 c 0
 218 667 208 691 209 719 c 0
 209 754 221 785 246 810 c 128
 271 835 294 846 314 847 c 128
 334 848 348 846 358 841 c 128
 368 836 379 829 391 815 c 1
EndSplineSet
Colour: ffffff
EndChar

StartChar: less
Encoding: 29 60 28
Width: 735
VWidth: 1655
GlyphClass: 2
Flags: HMW
LayerCount: 2
Fore
SplineSet
38 419 m 1
 45 446 l 1
 653 952 l 1
 697 883 l 1
 273 446 l 1
 576 -13 l 1
 503 -81 l 1
 38 419 l 1
EndSplineSet
Colour: ffffff
EndChar

StartChar: equal
Encoding: 30 61 29
Width: 751
VWidth: 1655
GlyphClass: 2
Flags: HMW
LayerCount: 2
Fore
SplineSet
68 416 m 1
 671 416 l 1
 643 311 l 1
 41 311 l 1
 68 416 l 1
109 651 m 1
 710 651 l 1
 682 546 l 1
 81 546 l 1
 109 651 l 1
EndSplineSet
Colour: ffffff
EndChar

StartChar: greater
Encoding: 31 62 30
Width: 752
VWidth: 1655
GlyphClass: 2
Flags: HMW
LayerCount: 2
Fore
SplineSet
712 419 m 1
 88 -81 l 1
 38 -13 l 1
 483 446 l 1
 198 883 l 1
 264 952 l 1
 714 446 l 1
 712 419 l 1
EndSplineSet
Colour: ffffff
EndChar

StartChar: question
Encoding: 32 63 31
Width: 626
VWidth: 1655
GlyphClass: 2
Flags: HMW
LayerCount: 2
Fore
SplineSet
209 206 m 128
 221 200 231 192 241 178 c 128
 251 164 256 154 259 143 c 128
 262 132 263 125 263 120 c 128
 263 115 261 100 255 73 c 128
 249 46 235 22 212 -1 c 128
 189 -24 162 -35 132 -35 c 1
 105 -33 85 -24 69 -8 c 128
 53 8 45 24 42 42 c 128
 39 60 38 68 38 71 c 128
 38 74 40 86 45 108 c 128
 50 130 62 153 85 176 c 128
 108 199 131 211 155 212 c 128
 179 213 197 212 209 206 c 128
117 504 m 1
 112 555 l 1
 112 595 123 631 146 662 c 128
 169 693 192 715 215 730 c 128
 238 745 268 759 306 775 c 128
 344 791 372 804 391 816 c 128
 410 828 428 844 448 866 c 128
 468 888 478 913 481 941 c 0
 481 945 481 947 482 951 c 1
 482 959 l 2
 482 1012 458 1057 409 1092 c 1
 389 1105 373 1112 359 1114 c 128
 345 1116 339 1117 338 1118 c 1
 329 1118 l 2
 294 1118 258 1110 221 1093 c 128
 184 1076 157 1061 140 1045 c 1
 129 1050 120 1057 111 1069 c 1
 93 1089 85 1107 85 1125 c 128
 85 1143 85 1153 87 1156 c 1
 95 1204 126 1242 180 1269 c 0
 212 1285 246 1292 282 1292 c 2
 303 1292 l 1
 362 1288 414 1269 458 1234 c 128
 502 1199 535 1154 556 1101 c 128
 577 1048 588 1000 588 957 c 128
 588 914 586 884 581 864 c 0
 568 801 535 746 481 699 c 1
 446 669 403 646 354 628 c 1
 319 614 298 604 288 594 c 128
 278 584 268 574 258 562 c 0
 240 543 232 513 231 472 c 0
 231 464 231 457 233 451 c 1
 233 430 l 2
 233 428 234 414 238 385 c 1
 160 369 l 1
 137 428 123 473 117 504 c 1
EndSplineSet
Colour: ffffff
EndChar

StartChar: at
Encoding: 33 64 32
Width: 1339
VWidth: 1655
GlyphClass: 2
Flags: HMW
LayerCount: 2
Fore
SplineSet
794.021 602 m 1
 753.021 663 712.021 693 671.021 693 c 2
 664.021 693 l 2
 644.021 693 625.021 687 604.021 673 c 128
 583.021 659 568.021 644 557.021 625 c 1
 540.021 600 524.021 553 508.021 485 c 128
 492.021 417 485.021 363 485.021 320 c 2
 485.021 307 l 2
 485.021 284 486.021 263 489.021 244 c 128
 492.021 225 495.021 214 497.021 210 c 128
 499.021 206 501.021 203 505.021 199 c 128
 509.021 195 510.021 194 511.021 193 c 128
 512.021 192 514.021 191 518.021 188 c 0
 523.021 183 531.021 181 543.021 181 c 128
 555.021 181 569.021 186 585.021 198 c 128
 601.021 210 619.021 228 640.021 253 c 128
 661.021 278 689.021 326 724.021 398 c 128
 759.021 470 782.021 538 794.021 602 c 1
733.021 83 m 128
 721.021 98 716.021 124 716.021 159 c 128
 716.021 194 726.021 242 746.021 305 c 1
 734.021 307 l 1
 709.021 254 685.021 211 661.021 177 c 128
 637.021 143 608.021 115 575.021 93 c 128
 542.021 71 508.021 60 474.021 60 c 128
 440.021 60 411.021 74 387.021 104 c 128
 363.021 134 351.021 167 347.021 204 c 1
 345.021 210 345.021 224 345.021 249 c 128
 345.021 274 352.021 323 368.021 395 c 0
 398.021 532 466.021 646 573.021 738 c 1
 618.021 773 659.021 790 697.021 790 c 128
 735.021 790 771.021 771 806.021 733 c 1
 820.021 731 l 1
 826.021 802 l 1
 845.021 809 l 1
 950.021 778 l 1
 889.021 463 l 1
 874.021 356 867.021 301 865.021 296 c 1
 862.021 253 l 2
 860.021 218 859.021 201 859.021 199 c 2
 859.021 188 l 2
 859.021 184 860.021 181 865.021 176 c 128
 870.021 171 874.021 168 879.021 168 c 128
 884.021 168 887.021 168 889.021 170 c 1
 897.021 170 l 1
 913.021 172 924.021 173 930.021 175 c 128
 936.021 177 942.021 177 949.021 179 c 128
 956.021 181 960.021 182 962.021 183 c 128
 964.021 184 967.021 185 973.021 187 c 128
 979.021 189 983.021 190 986.021 192 c 128
 989.021 194 992.021 196 997.021 199 c 128
 1002.02 202 1006.02 204 1010.02 208 c 128
 1014.02 212 1018.02 214 1024.02 218 c 0
 1077.02 262 1113.02 310 1134.02 362 c 128
 1155.02 414 1165.02 478 1165.02 553 c 0
 1166.02 720 1097.02 840 957.021 913 c 1
 890.021 946 819.021 962 742.021 961 c 0
 637.021 961 541.021 932 456.021 876 c 128
 371.021 820 306.021 745 263.021 651 c 1
 218.021 557 195.021 458 195.021 355 c 128
 195.021 252 216.021 164 258.021 90 c 128
 300.021 16 360.021 -39 437.021 -78 c 128
 514.021 -117 600.021 -137 695.021 -137 c 2
 716.021 -137 l 1
 759.021 -136 807.021 -130 858.021 -117 c 128
 909.021 -104 953.021 -88 991.021 -67 c 0
 1035.02 -44 1062.02 -29 1072.02 -21 c 1
 1108.02 -75 l 1
 1099.02 -80 l 1
 1038.02 -139 967.021 -178 885.021 -199 c 128
 803.021 -220 735.021 -230 681.021 -230 c 2
 667.021 -230 l 2
 561.021 -230 460.021 -210 364.021 -170 c 128
 268.021 -130 193.021 -72 136.021 3 c 1
 70.0225 93 37.0225 202 38.0225 331 c 128
 39.0225 460 70.0225 581 133.021 692 c 128
 196.021 803 284.021 890 395.021 955 c 128
 506.021 1020 631.021 1052 768.021 1052 c 2
 777.021 1052 l 1
 875.021 1049 963.021 1029 1043.02 991 c 128
 1123.02 953 1186.02 899 1232.02 828 c 128
 1278.02 757 1300.02 679 1301.02 594 c 1
 1301.02 583 l 2
 1301.02 498 1280.02 416 1239.02 340 c 128
 1198.02 264 1142.02 200 1070.02 148 c 128
 998.021 96 921.021 64 839.021 52 c 1
 835.021 50 827.021 50 813.021 51 c 1
 780.021 54 l 1
 760.021 59 745.021 68 733.021 83 c 128
EndSplineSet
Colour: ffffff
EndChar

StartChar: A
Encoding: 34 65 33
Width: 1314
VWidth: 1655
GlyphClass: 2
Flags: HMW
LayerCount: 2
Fore
SplineSet
835 505 m 1
 747 1062 l 1
 743 1062 l 1
 712 911 629 655 587 536 c 1
 835 505 l 1
891 1271 m 1
 1099 132 l 1
 1277 81 l 1
 1254 0 l 1
 678 0 l 1
 701 72 l 1
 899 108 l 1
 847 432 l 1
 556 446 l 1
 523 310 378 -28 209 -28 c 3
 126 -28 58 35 36 101 c 1
 429 253 607 765 711 1241 c 1
 891 1271 l 1
EndSplineSet
Colour: ffffff
EndChar

StartChar: B
Encoding: 35 66 34
Width: 1059
VWidth: 1655
GlyphClass: 2
Flags: HMW
LayerCount: 2
Fore
SplineSet
1021.15 385.872 m 0
 1021.15 76.3555 675.295 -16.4268 388.456 -16.4268 c 0
 293.395 -16.4268 198.898 -6.46191 114 10 c 1
 270 1121 l 1
 36 1128 l 1
 55 1205 l 1
 233.321 1256.2 418.77 1280.67 578.104 1280.67 c 0
 823.534 1280.67 1007 1184.23 1007 1005 c 0
 1007 811.779 870.059 692.616 759 659 c 1
 759 643.479 l 1
 911.311 614.959 1021.15 536.459 1021.15 385.872 c 0
378 595 m 1
 315 121 l 1
 378.067 105.605 435.456 97.9238 487.105 97.9238 c 0
 703.318 97.9238 814 178.484 814 338 c 0
 814 434.669 747.592 549.162 579 571.323 c 2
 378 595 l 1
671.203 651.985 m 1
 758.086 706.239 814 789.82 814 920 c 0
 814 1099.16 638.891 1209.21 460 1194 c 1
 389 668 l 1
 671.203 651.985 l 1
EndSplineSet
Colour: ffffff
EndChar

StartChar: C
Encoding: 36 67 35
Width: 997
VWidth: 1655
GlyphClass: 2
Flags: HMW
LayerCount: 2
Back
SplineSet
799.832 -32 m 1
 824 161 l 25
 843 340 l 1
 826.34 340 l 1
 732.606 138.418 597.241 -33 376 -33 c 0
 144.532 -33 20 158.975 20 444 c 0
 20 915.719 342.689 1263.74 845.451 1263.74 c 4
 910.092 1263.74 977.709 1257.98 1048 1246 c 5
 968 835 l 5
 882 848 l 5
 850 1111 l 5
 784.415 1125.46 725.961 1132.06 673.866 1132.06 c 4
 275.589 1132.06 249 746.008 249 532 c 0
 249 279 309.469 87 440 87 c 0
 566.451 87 744.221 257.748 820 448.108 c 1
 820 463 l 1
 594 456 l 1
 613 532 l 1
 728.104 562.242 843.854 579.227 967.155 579.227 c 0
 1018.15 579.227 1070.29 576.882 1124 572 c 1
 1104 497 l 1
 989 465 l 1
 968 299 l 17
 986 23 l 1
 983 6 l 1
 799.832 -32 l 1
EndSplineSet
Fore
SplineSet
960 1246 m 1
 890 815 l 1
 794 828 l 1
 762 1101 l 1
 713.441 1111.52 669.038 1116.58 628.541 1116.58 c 0
 365.195 1116.58 267.01 902.444 265 581 c 0
 265 343.886 326 135 492 135 c 0
 614 135 811.557 244.913 898 370 c 1
 960 328 l 1
 876.991 177.413 633.757 -30 405 -30 c 128
 143 -30 37 237 37 496 c 0
 37 862.006 341.072 1261.65 800.13 1261.65 c 0
 851.546 1261.65 904.906 1256.64 960 1246 c 1
EndSplineSet
Colour: ffffff
EndChar

StartChar: D
Encoding: 37 68 36
Width: 1249
VWidth: 1655
GlyphClass: 2
Flags: HMW
LayerCount: 2
Fore
SplineSet
323 106 m 1
 750.648 106 1009 262.977 1009 672 c 128
 1009 987.994 778.69 1197.07 450 1171 c 1
 323 106 l 1
111 0 m 1
 253 1068 l 1
 36 1105 l 1
 57 1176 l 1
 222.439 1235.56 422.565 1275.35 612.243 1275.35 c 0
 928.052 1275.35 1212 1141.88 1212 752 c 0
 1212 163.5 728.357 -33 111 0 c 1
EndSplineSet
Colour: ffffff
EndChar

StartChar: E
Encoding: 38 69 37
Width: 1262
VWidth: 1655
GlyphClass: 2
Flags: HMW
LayerCount: 2
Fore
SplineSet
1086 0 m 5
 718 2 511 3 468 3 c 5
 36 -3 l 5
 59 80 l 5
 277 134 l 5
 402 1094 l 5
 175 1117 l 5
 195 1192 l 5
 273 1208 383 1220 528 1233 c 132
 673 1246 806 1252 928 1252 c 5
 1225 1246 l 5
 1145 835 l 5
 1059 848 l 5
 1027 1111 l 5
 999 1117 l 5
 904 1136 781 1145 630 1143 c 6
 597 1143 l 5
 542 680 l 5
 997 714 l 5
 963 569 l 5
 530 578 l 5
 468 98 l 5
 685 108 l 6
 807 115 891 122 936 132 c 5
 959 169 985 222 1016 292 c 132
 1047 362 1066 415 1076 451 c 5
 1163 440 l 5
 1163 434 l 6
 1163 345 1156 262 1142 182 c 132
 1128 102 1110 41 1086 0 c 5
EndSplineSet
Colour: ffffff
EndChar

StartChar: F
Encoding: 39 70 38
Width: 1262
VWidth: 1655
GlyphClass: 2
Flags: HMW
LayerCount: 2
Fore
SplineSet
928 1252 m 1
 1225 1246 l 1
 1145 818 l 1
 1050 832 l 1
 1022 1102 l 1
 990 1107 l 1
 897 1123 787 1134 659 1142 c 1
 597 1143 l 1
 542 637 l 1
 997 670 l 1
 963 519 l 1
 528 537 l 1
 474 109 l 1
 724 80 l 1
 704 -2 l 1
 36 -2 l 1
 59 80 l 1
 277 134 l 1
 402 1094 l 1
 175 1117 l 1
 195 1192 l 1
 273 1208 384 1220 528 1233 c 128
 672 1246 806 1252 928 1252 c 1
EndSplineSet
Colour: ffffff
EndChar

StartChar: G
Encoding: 40 71 39
Width: 1178
VWidth: 1655
GlyphClass: 2
Flags: HMW
LayerCount: 2
Back
SplineSet
856 0 m 5
 816 310 l 5
 799.34 310 l 5
 709.978 124.631 580.925 -33 370 -33 c 4
 138.532 -33 14 158.974 14 444 c 4
 14 976.369 425 1351.18 1042 1246 c 5
 962 835 l 5
 876 848 l 5
 844 1111 l 5
 277 1236 243 774 243 532 c 4
 243 279 303.468 87 434 87 c 4
 557.124 87 730.215 257.748 804 448.108 c 5
 804 463 l 5
 578 456 l 5
 597 532 l 5
 715.354 562.242 834.373 579.227 961.155 579.227 c 4
 1012.15 579.227 1064.3 576.881 1118 572 c 5
 1098 497 l 5
 969 465 l 5
 982 46 l 5
 856 0 l 5
EndSplineSet
Fore
SplineSet
816.832 -32 m 1
 841 161 l 25
 860 340 l 1
 843.34 340 l 1
 749.606 138.418 614.241 -33 393 -33 c 0
 161.532 -33 37 158.975 37 444 c 0
 37 915.719 359.689 1263.74 862.451 1263.74 c 0
 927.092 1263.74 994.709 1257.98 1065 1246 c 1
 985 835 l 1
 899 848 l 1
 867 1105 l 5
 300 1228.7 266 771.492 266 532 c 0
 266 290.371 326.469 107 457 107 c 0
 583.451 107 761.221 268.291 837 448.108 c 1
 837 463 l 1
 611 456 l 1
 630 532 l 1
 745.104 562.242 860.854 579.227 984.155 579.227 c 0
 1035.15 579.227 1087.29 576.882 1141 572 c 1
 1121 497 l 1
 1006 465 l 1
 985 299 l 17
 1003 23 l 1
 1000 6 l 1
 816.832 -32 l 1
EndSplineSet
Colour: ffff00
EndChar

StartChar: H
Encoding: 41 72 40
Width: 1624
VWidth: 1655
GlyphClass: 2
Flags: HMW
LayerCount: 2
Fore
SplineSet
1176 1113 m 1
 948 1122 l 1
 966 1197 l 1
 1123 1228 1280 1244 1435 1245 c 0
 1487 1245 1538 1243 1587 1239 c 1
 1569 1163 l 1
 1364 1109 l 1
 1248 129 l 1
 1459 81 l 1
 1438 0 l 1
 811 0 l 1
 830 78 l 1
 1052 113 l 1
 1113 600 l 1
 525 567 l 1
 468 106 l 1
 679 81 l 1
 655 0 l 1
 36 0 l 1
 54 78 l 1
 277 129 l 1
 400 1090 l 1
 174 1123 l 1
 193 1199 l 1
 301 1222 390 1235 456 1239 c 128
 522 1243 584 1245 641 1245 c 128
 698 1245 756 1243 814 1239 c 1
 794 1164 l 1
 595 1142 l 1
 540 680 l 1
 1125 701 l 1
 1176 1113 l 1
EndSplineSet
Colour: ffffff
EndChar

StartChar: I
Encoding: 42 73 41
Width: 851
VWidth: 1655
GlyphClass: 2
Flags: HMW
LayerCount: 2
Fore
SplineSet
662 0 m 5
 36 0 l 5
 54 78 l 5
 277 129 l 5
 400 1090 l 5
 174 1123 l 5
 193 1199 l 5
 341 1230 495 1246 657 1246 c 4
 700 1246 752 1244 814 1239 c 5
 794 1164 l 5
 595 1142 l 5
 468 106 l 5
 686 81 l 5
 662 0 l 5
EndSplineSet
Colour: ffffff
EndChar

StartChar: J
Encoding: 43 74 42
Width: 1055
VWidth: 1655
GlyphClass: 2
Flags: HMW
LayerCount: 2
Fore
SplineSet
228.446 -375 m 128
 102.202 -375 36 -297.298 36 -208.19 c 0
 36 -163.189 52.8848 -115.28 87.4463 -73 c 1
 188.009 -147.868 276.088 -194 375.446 -194 c 0
 406.06 -194 429.819 -180.699 440.446 -148 c 0
 473.399 -28 516.446 302 549.446 589 c 2
 606.446 1087 l 1
 381.446 1117 l 1
 397.446 1194 l 1
 505.446 1220 618.446 1236 736.446 1243 c 1
 783.446 1247 831.446 1248 878.446 1248 c 128
 925.446 1248 972.446 1247 1018.45 1243 c 1
 999.446 1166 l 1
 804.446 1142 l 1
 709.446 385 l 2
 688.446 214 639.6 -38.5771 563.95 -175 c 0
 467.446 -328 352.253 -375 228.446 -375 c 128
EndSplineSet
Colour: ffffff
EndChar

StartChar: K
Encoding: 44 75 43
Width: 1363
VWidth: 1655
GlyphClass: 2
InSpiro: 1
Flags: HMW
LayerCount: 2
Fore
SplineSet
637 520 m 1
 567 587 l 1
 570 631 l 1
 643.602 657.495 713.451 694.831 775.301 742.724 c 0
 822.83 779.527 865.293 823.104 899.129 872.788 c 0
 931.475 920.286 955.794 972.858 975.579 1026.81 c 0
 1004.61 1105.97 1025.59 1187.91 1042.26 1270.56 c 1
 1074.25 1272.57 1106.79 1264.81 1134.4 1248.54 c 0
 1167.8 1228.86 1193.5 1196.62 1205.57 1159.79 c 0
 1214 1134.07 1215.95 1106.41 1212.47 1079.57 c 0
 1209 1052.73 1200.26 1026.73 1188.3 1002.45 c 0
 1156.9 938.688 1105.58 886.868 1051.35 840.925 c 0
 960.282 763.776 858.919 699.655 756.23 638.826 c 1
 991.078 244.371 l 2
 1020.92 194.243 1049.78 143.067 1087.4 98.4785 c 0
 1112.75 68.4336 1142.99 41.9971 1178.27 24.6562 c 0
 1213.55 7.31641 1252.96 0.59375 1292 -3.99902 c 2
 1326 -7.99902 l 1
 1304 -88 l 1
 1254.04 -110.38 1199.13 -121.816 1144.4 -120.521 c 0
 1106.9 -119.634 1069.47 -112.673 1034.48 -99.1504 c 0
 986.32 -80.5371 943.444 -49.084 909.913 -9.82227 c 0
 876.382 29.4395 852.631 75.9258 830.078 122.371 c 2
 637 520 l 1
  Spiro
    637 520 v
    567 587 v
    570 631 v
    775.301 742.724 o
    899.129 872.788 o
    975.579 1026.81 o
    1042.26 1270.56 v
    1134.4 1248.54 o
    1205.57 1159.79 o
    1188.3 1002.45 o
    1051.35 840.925 o
    756.23 638.826 v
    991.078 244.371 ]
    1087.4 98.479 o
    1292 -3.9995 [
    1326 -7.9995 v
    1304 -88 v
    1144.4 -120.521 o
    1034.48 -99.15 o
    830.078 122.371 [
    0 0 z
  EndSpiro
622 0 m 1
 36 0 l 1
 54 78 l 1
 277 129 l 1
 400 1090 l 1
 174 1123 l 1
 193 1199 l 1
 250.161 1213.16 308.122 1224.08 366.504 1231.79 c 0
 425.949 1239.63 485.817 1244.17 545.754 1245.86 c 0
 621.882 1248.01 698.131 1245.64 774 1239 c 1
 754 1161 l 1
 595 1139 l 1
 468 110 l 1
 646 85 l 1
 622 0 l 1
  Spiro
    622 0 v
    36 0 v
    54 78 v
    277 129 v
    400 1090 v
    174 1123 v
    193 1199 v
    366.504 1231.79 o
    545.754 1245.86 o
    774 1239 v
    754 1161 v
    595 1139 v
    468 110 v
    646 85 v
    0 0 z
  EndSpiro
EndSplineSet
Colour: ffff00
EndChar

StartChar: L
Encoding: 45 76 44
Width: 1205
VWidth: 1655
GlyphClass: 2
Flags: HMW
LayerCount: 2
Fore
SplineSet
1086 0 m 1
 718 2 511 3 468 3 c 1
 36 -3 l 1
 59 80 l 1
 277 134 l 1
 402 1094 l 1
 175 1117 l 1
 195 1192 l 1
 313 1228 459 1246 633 1246 c 0
 671 1246 717 1245 772 1241 c 128
 827 1237 856 1236 862 1236 c 1
 848 1155 l 1
 601 1132 l 1
 468 106 l 1
 685 116 l 1
 783 122 862 129 921 139 c 1
 962 183 1012 293 1071 470 c 1
 1163 456 l 1
 1163 448 1163 441 1165 434 c 1
 1165 408 l 2
 1165 335 1157 259 1142 179 c 128
 1127 99 1109 39 1086 0 c 1
EndSplineSet
Colour: ffffff
EndChar

StartChar: M
Encoding: 46 77 45
Width: 1756
VWidth: 1655
GlyphClass: 2
Flags: HMW
LayerCount: 2
Fore
SplineSet
1403 186 m 0
 1403 151 1414 134 1435 134 c 0
 1437 134 1443 136 1457 140 c 128
 1471 144 1487 157 1507 178 c 128
 1527 199 1554 232 1589 279 c 1
 1637 244 l 1
 1611 145 1554 68 1465 13 c 1
 1420 -14 1375 -28 1328 -29 c 128
 1281 -30 1248 -20 1228 0 c 128
 1208 20 1199 50 1199 89 c 0
 1199 95 1199 99 1201 103 c 1
 1201 114 l 1
 1203 159 1210 235 1224 343 c 2
 1306 999 l 1
 1230 814 1155 645 1081 492 c 128
 1007 339 944 224 895 146 c 0
 889 137 868 106 832 52 c 1
 704 33 l 1
 463 999 l 1
 460 999 l 1
 441 486 l 2
 436 374 429 291 418 236 c 128
 407 181 386 129 353 78 c 0
 306 6 252 -30 191 -31 c 0
 164 -31 139 -25 116 -12 c 128
 93 1 75 19 61 41 c 128
 47 63 40 80 36 94 c 1
 112 128 171 174 214 233 c 0
 293 345 339 555 355 864 c 1
 357 925 358 994 359 1071 c 1
 132 1125 l 1
 155 1201 l 1
 314 1231 460 1246 596 1248 c 1
 651 1055 l 1
 835 343 l 1
 1228 1068 l 1
 1321 1231 l 1
 1334 1234 1363 1236 1410 1240 c 128
 1457 1244 1506 1246 1556 1246 c 128
 1606 1246 1660 1243 1719 1236 c 1
 1696 1158 l 1
 1479 1101 l 1
 1408 287 l 1
 1406 252 1405 233 1405 227 c 2
 1405 207 l 1
 1403 201 1403 195 1403 186 c 0
EndSplineSet
Colour: ffffff
EndChar

StartChar: N
Encoding: 47 78 46
Width: 1566
VWidth: 1655
GlyphClass: 2
Flags: HMW
LayerCount: 2
Fore
SplineSet
1039 -31 m 1
 484 999 l 1
 481 999 l 1
 462 486 l 1
 450.735 249.433 400.438 -31 179 -31 c 1
 120 -25 79 1 54 49 c 1
 45 69 40 87 36 103 c 1
 117 140 182.532 185.022 225 242 c 0
 345 403 369 791 381 1071 c 1
 155 1125 l 1
 177 1201 l 1
 344.528 1235.23 429 1244 586 1246 c 1
 674 1078 l 1
 1109 274 l 1
 1180 1106 l 1
 953 1122 l 1
 973 1197 l 1
 1141.21 1233.85 1226.04 1245 1386 1245 c 128
 1433 1245 1481 1243 1529 1239 c 1
 1508 1163 l 1
 1303 1109 l 1
 1199 2 l 1
 1039 -31 l 1
EndSplineSet
Colour: ffffff
EndChar

StartChar: O
Encoding: 48 79 47
Width: 1140
VWidth: 1655
GlyphClass: 2
Flags: HMW
LayerCount: 2
Fore
SplineSet
246 639 m 128
 246 395.097 341.526 120 589 120 c 0
 801.408 120 896 376.643 896 625 c 0
 896 875.887 790.023 1130 534 1130 c 128
 318.269 1130 246 879.592 246 639 c 128
1103 744 m 1
 1101 596 1066 457 998 325 c 1
 892.599 125.149 745.921 -28 481 -28 c 128
 203.373 -28 37 222.419 37 505 c 0
 37 906.486 264.087 1275 660 1275 c 0
 945.477 1275 1103 1029.2 1103 744 c 1
  Spiro
    1103 744 v
    1090.02 599.068 o
    1054.95 459.271 o
    998 325 v
    913.869 194.079 o
    815.451 92.6173 o
    704 21 o
    634.701 -6.34859 o
    560.294 -22.6404 o
    481 -28 o
    401.078 -19.9791 o
    324.926 4.32875 o
    253 45 o
    188.688 98.9779 o
    135.323 163.366 o
    93 238 o
    62.0619 321.136 o
    43.2837 410.536 o
    37 505 o
    56.5 703 o
    115 886 o
    174.23 995.49 o
    248.118 1090.16 o
    336 1169 o
    435.452 1227.99 o
    543.89 1263.32 o
    660 1275 o
    747.324 1266.31 o
    828.003 1240 o
    902 1196 o
    966.534 1138.73 o
    1018.12 1072.6 o
    1056 998 o
    1081.94 917.711 o
    1097.71 834.286 o
    1103 748 [
    0 0 z
  EndSpiro
EndSplineSet
Colour: ffffff
EndChar

StartChar: P
Encoding: 49 80 48
Width: 1223
VWidth: 1655
GlyphClass: 2
Flags: HMW
LayerCount: 2
Fore
SplineSet
568 534 m 1
 607 538 644 543 681 553 c 1
 780 576 857 615 911 670 c 128
 965 725 992 795 992 881 c 128
 992 967 962 1040 903 1100 c 128
 844 1160 762 1191 659 1191 c 0
 639 1191 620 1190 601 1186 c 1
 467 116 l 1
 695 84 l 1
 671 0 l 1
 36 0 l 1
 54 78 l 1
 270 132 l 1
 393 1066 l 1
 177 1089 l 1
 193 1158 l 1
 390 1227 578 1261 755 1262 c 0
 894 1262 1001 1232 1075 1172 c 128
 1149 1112 1186 1025 1186 913 c 0
 1186 798 1134 697 1029 610 c 0
 978 569 914 534 836 506 c 128
 758 478 671 460 574 451 c 1
 568 534 l 1
EndSplineSet
Colour: ffffff
EndChar

StartChar: Q
Encoding: 50 81 49
Width: 1150
VWidth: 1655
GlyphClass: 2
Flags: HMW
LayerCount: 2
Fore
SplineSet
654.019 1275 m 2
 675.019 1275 l 1
 819.019 1267 926.019 1204 998.019 1085 c 1
 1059.02 984 1089.02 868 1089.02 736 c 0
 1089.02 681 1083.02 621 1069.02 555 c 0
 1043.02 427 997.019 317 931.019 223 c 128
 865.019 129 780.019 59 676.019 14 c 1
 685.019 -55 716.019 -111 769.019 -155 c 0
 807.019 -186 849.019 -202 896.019 -202 c 2
 901.019 -202 l 2
 927.019 -202 958.019 -196 993.019 -183 c 128
 1028.02 -170 1061.02 -154 1091.02 -134 c 1
 1113.02 -216 l 1
 1038.02 -317 942.019 -373 828.019 -385 c 1
 813.019 -385 l 1
 808.019 -387 804.019 -387 798.019 -386 c 0
 722.019 -386 661.019 -362 617.019 -314 c 128
 573.019 -266 548.019 -201 542.019 -120 c 1
 542.019 -103 l 1
 540.019 -98 540.019 -89 541.019 -74 c 128
 542.019 -59 542.019 -42 546.019 -21 c 1
 526.019 -25 502.019 -26 473.019 -26 c 128
 444.019 -26 416.019 -22 387.019 -14 c 1
 296.019 8 219.019 58 154.019 135 c 0
 75.0186 231 36.0186 364 37.0186 534 c 0
 37.0186 770 114.019 962 267.019 1109 c 0
 333.019 1172 407.019 1217 490.019 1246 c 1
 542.019 1266 597.019 1275 654.019 1275 c 2
361.019 1052 m 0
 278.019 965 236.019 832 238.019 651 c 0
 238.019 498 259.019 378 302.019 293 c 1
 337.019 224 386.019 175 448.019 144 c 1
 483.019 125 515.019 116 541.019 116 c 128
 567.019 116 582.019 116 587.019 118 c 1
 637.019 124 681.019 140 720.019 168 c 0
 789.019 219 836.019 294 862.019 395 c 1
 880.019 454 888.019 523 888.019 602 c 0
 888.019 607 887.019 634 885.019 683 c 1
 871.019 872 814.019 1004 713.019 1078 c 1
 666.019 1115 612.019 1133 551.019 1132 c 0
 476.019 1133 413.019 1106 361.019 1052 c 0
EndSplineSet
Colour: ffffff
EndChar

StartChar: R
Encoding: 51 82 50
Width: 1296
VWidth: 1655
GlyphClass: 2
Flags: HMW
LayerCount: 2
Fore
SplineSet
452 106 m 5
 636 72 l 5
 617 0 l 5
 36 0 l 5
 54 75 l 5
 268 127 l 5
 393 1065 l 5
 172 1078 l 5
 186 1155 l 5
 253 1178 342 1201 452 1224 c 132
 562 1247 643 1259 695 1259 c 132
 747 1259 775 1259 783 1257 c 5
 963 1244 1078 1174 1129 1048 c 5
 1141 1019 1147 992 1146 967 c 4
 1146 891 1123 824 1078 765 c 4
 1045 724 1002 687 946 654 c 132
 890 621 836 594 783 574 c 5
 783 571 l 5
 930 325 l 5
 961 270 986 231 1007 206 c 132
 1028 181 1051 161 1077 144 c 132
 1103 127 1137 115 1180 106 c 5
 1259 91 l 5
 1252 31 l 5
 1197 -2 1139 -18 1080 -18 c 4
 978 -18 895 24 832 108 c 4
 812 134 791 171 766 218 c 6
 641 453 l 5
 625 478 615 494 611 500 c 6
 574 546 l 5
 557 567 l 5
 568 597 l 5
 646 615 l 5
 760 638 840 679 885 739 c 4
 905 765 919 793 929 821 c 132
 939 849 943 878 943 908 c 4
 943 981 919 1044 871 1098 c 132
 823 1152 762 1179 688 1179 c 4
 653 1179 623 1176 597 1168 c 5
 452 106 l 5
EndSplineSet
Colour: ffffff
EndChar

StartChar: S
Encoding: 52 83 51
Width: 960
VWidth: 1655
GlyphClass: 2
Flags: HMW
LayerCount: 2
Fore
SplineSet
258 415 m 5
 228.012 274.112 224 80 439 80 c 4
 548.542 80 639 163.816 639 262 c 132
 639 458 185 632 185 906 c 4
 185 1118.34 398.2 1278 609 1278 c 4
 729.328 1278 834.759 1245 923 1178 c 5
 818 832 l 5
 730 851 l 5
 723 1101 l 5
 698 1142 636.075 1184 564 1184 c 4
 463.547 1184 377 1109.54 377 1005 c 4
 377 791 841 602 841 348 c 4
 841 119.581 614.456 -24 397 -24 c 4
 227.461 -24 36 57.7939 36 232 c 132
 36 372.732 158 446 258 415 c 5
EndSplineSet
Colour: ffffff
EndChar

StartChar: T
Encoding: 53 84 52
Width: 1162
VWidth: 1655
GlyphClass: 2
Flags: HMW
LayerCount: 2
Fore
SplineSet
463 1123 m 1
 378 1135 321 1141 290 1140 c 128
 259 1139 238 1140 228 1138 c 1
 132 818 l 1
 37 832 l 1
 37 1224 l 1
 218 1240 422 1249 649 1252 c 1
 760 1252 l 1
 1125 1246 l 1
 1044 818 l 1
 949 832 l 1
 919 1117 l 1
 825 1133 740 1141 665 1143 c 1
 541 109 l 1
 791 80 l 1
 773 -2 l 1
 104 -2 l 1
 127 80 l 1
 344 134 l 1
 463 1123 l 1
EndSplineSet
Colour: ffffff
EndChar

StartChar: U
Encoding: 54 85 53
Width: 1486
VWidth: 1655
GlyphClass: 2
Flags: HMW
LayerCount: 2
Fore
SplineSet
258 1087 m 1
 36 1123 l 1
 58 1201 l 1
 219 1230 383 1245 550 1245 c 1
 674 1243 l 1
 656 1166 l 1
 457 1138 l 1
 409 745 l 2
 409 743 409 735 407 721 c 128
 405 707 403 682 398 647 c 128
 393 612 392 585 390 566 c 128
 388 547 388 520 388 487 c 128
 388 454 389 426 392 404 c 0
 395 382 399 357 406 329 c 0
 421 274 452 227 500 188 c 1
 550 145 610 123 679 123 c 128
 748 123 807 139 854 170 c 128
 901 201 936 241 961 291 c 128
 986 341 1006 422 1022 534 c 1
 1096 1111 l 1
 871 1120 l 1
 889 1197 l 1
 1030 1228 1179 1243 1337 1243 c 0
 1345 1243 1382 1242 1449 1239 c 1
 1429 1163 l 1
 1222 1096 l 1
 1137 517 l 1
 1114 362 1079 249 1033 178 c 1
 1008 140 982 109 953 85 c 128
 924 61 889 40 848 19 c 0
 774 -16 697 -34 617 -34 c 2
 607 -34 l 1
 479 -28 379 11 308 83 c 0
 227 164 187 277 186 425 c 0
 186 477 194 569 212 702 c 1
 258 1087 l 1
EndSplineSet
Colour: ffffff
EndChar

StartChar: V
Encoding: 55 86 54
Width: 1136
VWidth: 1655
GlyphClass: 2
Flags: HMW
LayerCount: 2
Fore
SplineSet
747 1201 m 5
 789 1243 838 1264 894 1264 c 4
 975 1264 1034 1226 1073 1150 c 4
 1091 1117 1099 1075 1099 1024 c 4
 1099 1019 1098 999 1096 962 c 5
 1083 836 1043 698 975 547 c 132
 907 396 827 261 734 142 c 5
 685 83 644 37 611 5 c 5
 467 -26 l 5
 258 1081 l 5
 36 1122 l 5
 56 1197 l 5
 191 1228 321 1244 446 1246 c 5
 633 188 l 5
 641 188 l 5
 678 227 714 273 749 327 c 5
 822 442 869 572 892 716 c 4
 897 743 899 777 899 817 c 4
 899 904 883 985 850 1058 c 5
 821 1118 787 1166 747 1201 c 5
EndSplineSet
Colour: ffffff
EndChar

StartChar: W
Encoding: 56 87 55
Width: 1603
VWidth: 1655
GlyphClass: 2
Flags: HMW
LayerCount: 2
Fore
SplineSet
863 -28 m 1
 834 621 l 1
 824 621 l 1
 765 455 695 301 613 158 c 0
 591 121 560 70 519 5 c 1
 345 -26 l 1
 253 1081 l 1
 36 1122 l 1
 63 1197 l 1
 203 1228 335 1244 460 1246 c 1
 527 237 l 1
 537 237 l 1
 637 382 717 553 778 752 c 0
 801 829 824 912 845 999 c 1
 994 1034 l 1
 1046 195 l 1
 1054 195 l 1
 1190 339 1278 510 1320 709 c 1
 1333 776 1339 835 1339 888 c 0
 1339 996 1316 1102 1271 1207 c 1
 1314 1238 1361 1253 1411 1252 c 2
 1417 1252 l 1
 1496 1246 1543 1206 1559 1130 c 0
 1564 1110 1566 1081 1566 1041 c 128
 1566 1001 1560 951 1546 892 c 1
 1522 773 1472 648 1395 517 c 1
 1326 395 1243 276 1146 162 c 1
 1123 131 1076 78 1005 3 c 1
 863 -28 l 1
EndSplineSet
Colour: ffffff
EndChar

StartChar: X
Encoding: 57 88 56
Width: 1358
VWidth: 1655
GlyphClass: 2
Flags: HMW
LayerCount: 2
Fore
SplineSet
363.125 1071 m 1
 121.125 1122 l 1
 140.125 1197 l 1
 243.125 1220 320.125 1233 370.125 1237 c 128
 420.125 1241 469.125 1244 515.125 1246 c 1
 748.125 729 l 1
 763.125 770 777.125 803 791.125 829 c 1
 819.125 891 856.125 960 903.125 1036 c 128
 950.125 1112 991.125 1163 1026.12 1192 c 0
 1076.12 1232 1127.12 1252 1177.12 1252 c 128
 1245.98 1252 1307.12 1199.99 1319.12 1140 c 128
 1321.12 1130 1321.12 1114 1321.12 1092 c 128
 1321.12 1070 1314.12 1045 1298.12 1019 c 1
 1271.12 1026 1244.12 1029 1218.12 1029 c 1
 1172.12 1026 l 1
 1054.12 1010 951.125 934 865.125 797 c 1
 838.125 750 814.125 698 791.125 639 c 1
 919.125 357 l 2
 958.125 272 993.125 214 1022.12 184 c 0
 1038.12 168 1054.12 161 1073.12 162 c 128
 1092.12 163 1108.12 169 1124.12 184 c 1
 1155.12 207 1187.12 245 1221.12 298 c 1
 1270.12 264 l 1
 1258.12 219 1243.12 181 1224.12 151 c 0
 1176.12 75 1118.12 24 1049.12 -2 c 1
 1023.12 -11 999.125 -15 978.125 -14 c 0
 929.125 -14 887.125 4 852.125 39 c 0
 834.125 57 821.125 73 812.125 88 c 128
 803.125 103 781.125 147 748.125 220 c 1
 610.125 529 l 1
 575.125 435 524.125 329 457.125 211 c 1
 407.125 126 361.125 68 318.125 35 c 1
 279.125 4 237.125 -11 194.125 -10 c 1
 169.125 -8 l 1
 134.125 -2 105.125 13 82.125 39 c 0
 51.125 73 37.125 107 36.125 142 c 128
 35.125 177 40.125 205 51.125 228 c 1
 71.125 226 92.125 225 115.125 225 c 1
 177.125 228 l 1
 309.125 242 410.125 314 483.125 446 c 0
 506.125 487 533.125 546 565.125 623 c 1
 363.125 1071 l 1
EndSplineSet
Colour: ffffff
EndChar

StartChar: Y
Encoding: 58 89 57
Width: 1138
VWidth: 1655
GlyphClass: 2
Flags: HMW
LayerCount: 2
Fore
SplineSet
636 680 m 1
 607 583 585 476 571 359 c 2
 542 106 l 1
 755 81 l 1
 734 0 l 1
 108 0 l 1
 127 83 l 1
 348 129 l 1
 387 423 l 2
 394 470 397 519 397 569 c 0
 397 688 375 796 330 893 c 1
 269 1019 172 1092 36 1111 c 1
 46 1160 67 1197 101 1221 c 128
 135 1245 175 1259 219 1262 c 1
 230 1262 l 2
 338 1262 419 1203 474 1086 c 0
 511 1006 532 915 540 812 c 1
 542 749 543 713 542 702 c 2
 542 664 l 1
 558 664 l 1
 581 763 615 863 660 962 c 1
 743 1153 844 1249 961 1249 c 2
 979 1249 l 1
 1016 1245 1046 1231 1068 1204 c 128
 1090 1177 1101 1149 1101 1118 c 0
 1101 1105 1100 1095 1097 1087 c 1
 1058 1085 1014 1078 964 1063 c 128
 914 1048 868 1026 827 995 c 1
 780 957 743 915 716 869 c 128
 689 823 663 760 636 680 c 1
EndSplineSet
Colour: ffffff
EndChar

StartChar: Z
Encoding: 59 90 58
Width: 1150
VWidth: 1655
GlyphClass: 2
Flags: HMW
LayerCount: 2
Fore
SplineSet
190 1248 m 5
 1113 1248 l 5
 1104 1171 l 5
 258 94 l 5
 468 103 l 5
 619 112 741 123 834 139 c 5
 884 257 918 362 936 453 c 5
 1027 440 l 5
 1027 428 1027 418 1029 409 c 5
 1029 378 l 5
 1027 241 1018 129 999 42 c 5
 989 0 l 5
 36 0 l 5
 41 103 l 5
 876 1152 l 5
 351 1135 l 5
 276 874 l 5
 174 900 l 5
 190 1248 l 5
EndSplineSet
Colour: ffffff
EndChar

StartChar: bracketleft
Encoding: 60 91 59
Width: 633
VWidth: 1655
GlyphClass: 2
Flags: HMW
LayerCount: 2
Fore
SplineSet
398 -378 m 1
 37 -380 l 1
 240 1266 l 1
 595 1266 l 1
 595 1175 l 1
 378 1154 l 1
 203 -263 l 1
 421 -282 l 1
 398 -378 l 1
EndSplineSet
Colour: ffffff
EndChar

StartChar: backslash
Encoding: 61 92 60
Width: 470
VWidth: 1655
GlyphClass: 2
Flags: HMW
LayerCount: 2
Fore
SplineSet
170 1275 m 1
 433 -380 l 1
 304 -372 l 1
 37 1283 l 1
 170 1275 l 1
EndSplineSet
Colour: ffffff
EndChar

StartChar: bracketright
Encoding: 62 93 61
Width: 636
VWidth: 1655
GlyphClass: 2
Flags: HMW
LayerCount: 2
Fore
SplineSet
37 -378 m 1
 39 -282 l 1
 259 -263 l 1
 433 1154 l 1
 220 1175 l 1
 243 1266 l 1
 598 1266 l 1
 398 -380 l 1
 37 -378 l 1
EndSplineSet
Colour: ffffff
EndChar

StartChar: asciicircum
Encoding: 63 94 62
Width: 710
VWidth: 1655
GlyphClass: 2
Flags: HMW
LayerCount: 2
Fore
SplineSet
427 1224 m 1
 669 808 l 1
 607 771 l 1
 374 1052 l 1
 365 1052 l 1
 87 776 l 1
 41 809 l 1
 374 1212 l 1
 427 1224 l 1
EndSplineSet
Colour: ffffff
EndChar

StartChar: underscore
Encoding: 64 95 63
Width: 954
VWidth: 1655
GlyphClass: 2
Flags: HMW
LayerCount: 2
Fore
SplineSet
72 -28 m 1
 906 -28 l 1
 882 -134 l 1
 47 -134 l 1
 72 -28 l 1
EndSplineSet
Colour: ffffff
EndChar

StartChar: grave
Encoding: 65 96 64
Width: 356
VWidth: 1655
GlyphClass: 2
Flags: HMW
LayerCount: 2
Fore
SplineSet
57 1626 m 1
 171 1663 l 1
 299 1336 l 1
 243 1303 l 1
 57 1626 l 1
EndSplineSet
Colour: ffffff
EndChar

StartChar: a
Encoding: 66 97 65
Width: 917
VWidth: 1655
GlyphClass: 2
Flags: HMW
LayerCount: 2
Back
SplineSet
496 528 m 1
 500 665 513 760 539 816 c 128
 565 872 607 900 666 900 c 0
 668 900 682 899 708 896 c 1
 722 869 l 1
 640 484 l 1
 618 252 l 2
 616 224 615 199 615 176 c 0
 615 127 627 103 652 104 c 0
 665 104 685 121 714 154 c 128
 743 187 768 222 789 259 c 1
 837 221 l 1
 810 148 767 85 711 31 c 128
 655 -23 597 -51 537 -51 c 0
 485 -51 459 -16 460 54 c 0
 460 84 464 119 473 159 c 0
 483 200 488 228 491 245 c 0
 499 280 502 298 501 299 c 1
 490 305 l 1
 460 214 415 135 356 71 c 128
 297 7 241 -25 188 -25 c 128
 135 -25 95 -11 69 16 c 128
 43 43 30 78 30 122 c 128
 30 166 33 210 39 257 c 1
 83 619 l 2
 87 648 88 672 88 691 c 0
 88 731 77 751 54 751 c 128
 31 751 4 739 -28 716 c 128
 -60 693 -86 663 -106 626 c 1
 -149 656 l 1
 -89 816 12 896 155 896 c 0
 220 896 253 854 253 771 c 0
 253 760 246 695 232 577 c 2
 209 384 l 2
 199 301 195 247 194 223 c 0
 194 174 213 150 250 151 c 0
 355 151 437 277 496 528 c 1
EndSplineSet
Fore
SplineSet
747 900 m 1
 771 881 l 1
 679 491 l 1
 649 253 l 2
 640.858 189.491 641 116 686 116 c 0
 738.835 116 813.578 231.893 839 275 c 1
 880 240 l 1
 822.118 94.5117 760.392 -31 588 -31 c 0
 448.95 -31 492.652 175.79 521 287 c 1
 508 287 l 1
 473 203 427 131 370 70 c 128
 313 9 257 -21 202 -21 c 128
 61.9482 -21 36 86.3643 36 225 c 128
 36 484 225.642 895 484 895 c 128
 538.25 895 579.583 873.333 608 830 c 1
 617 830 l 1
 648.2 876.667 688.067 900 747 900 c 1
207 288 m 0
 207 202.213 222.113 132 272 132 c 0
 321 132 376 183 439 285 c 128
 479.463 350.512 512.089 425.512 537.141 510 c 1
 552 670 l 1
 533.567 715.14 459.564 760 414 760 c 128
 254.989 760 207 449.577 207 288 c 0
EndSplineSet
Colour: ffffff
EndChar

StartChar: b
Encoding: 67 98 66
Width: 791
VWidth: 1655
GlyphClass: 2
Flags: HMW
LayerCount: 2
Back
SplineSet
442 762 m 4
 397 762 349 714 298 618 c 132
 247 522 214 400 196 249 c 5
 183 153 l 5
 214 108 269 86 346 88 c 4
 404 88 455 120 499 184 c 132
 543 248 565 355 565 505 c 4
 565 581 555 643 534 691 c 132
 513 739 483 762 442 762 c 4
318 1245 m 5
 269 845 l 5
 219 592 l 5
 228 592 l 5
 248 677 284 748 336 806 c 132
 388 864 447 893 511 893 c 132
 575 893 629 859 670 792 c 132
 711 725 732 639 732 535 c 132
 732 431 712 335 672 250 c 132
 632 165 574 99 500 50 c 132
 426 1 341 -24 244 -24 c 132
 147 -24 72 0 17 49 c 5
 149 1142 l 5
 13 1170 l 5
 24 1243 l 5
 303 1266 l 5
 318 1245 l 5
10 0 m 5
 21 79 l 5
 175 116 l 5
 175 1147 l 5
 15 1201 l 5
 27 1277 l 5
 316 1299 l 5
 341 1275 l 5
 341 850 l 5
 325 744 l 5
 335 744 l 5
 418 836 516 900 629 900 c 4
 767 900 872 842 872 599 c 6
 872 114 l 5
 1017 79 l 5
 1005 0 l 5
 556 0 l 5
 568 74 l 5
 703 114 l 5
 706 580 l 6
 706 722 613 764 534 764 c 4
 477 764 411 748 341 675 c 5
 341 116 l 5
 487 80 l 5
 475 0 l 5
 10 0 l 5
EndSplineSet
Fore
SplineSet
463 762 m 0
 319.638 762 237.822 423.675 217 249 c 1
 204 153 l 1
 235 108 290 86 367 88 c 1
 535.075 88 586 291.005 586 505 c 0
 586 619.589 562.735 762 463 762 c 0
341 1278 m 1
 290 845 l 1
 240 592 l 1
 249 592 l 1
 280.969 727.867 379.729 893 532 893 c 128
 684.672 893 753 703.961 753 535 c 128
 753 223.642 573.237 -24 265 -24 c 128
 168 -24 93 0 38 49 c 1
 76 318 l 1
 172 1175 l 1
 36 1203 l 1
 47 1276 l 1
 326 1299 l 1
 341 1278 l 1
EndSplineSet
Colour: ffffff
EndChar

StartChar: c
Encoding: 68 99 67
Width: 650
VWidth: 1655
GlyphClass: 2
Flags: HMW
LayerCount: 2
Fore
SplineSet
514 652 m 1
 491.94 719.133 419.428 771.219 355.952 771.219 c 0
 229.974 771.219 196 541.031 196 392 c 0
 196 230.669 217.238 98 323 98 c 0
 428.622 98 530.979 210 568 267 c 1
 604 235 l 1
 566.674 129 397.11 -31 283 -31 c 0
 105.024 -31 36 135.991 36 332 c 0
 36 596.939 243 893 450 893 c 128
 543.274 893 613 839.258 613 759 c 128
 613 708 557 660 514 652 c 1
EndSplineSet
Colour: ffffff
EndChar

StartChar: d
Encoding: 69 100 68
Width: 895
VWidth: 1655
GlyphClass: 2
Flags: HMW
LayerCount: 2
Back
SplineSet
168 287 m 2
 168 224 171 179 178 151 c 128
 185 123 200 109 223 109 c 0
 264 109 304 136 346 188 c 128
 388 240 424 310 455 398 c 128
 486 486 507 579 517 678 c 1
 486 743 442 776 385 775 c 0
 344 775 306 752 271 705 c 128
 236 658 210 600 193 529 c 128
 176 458 168 384 168 305 c 2
 168 287 l 2
608 284 m 1
 601 242 597 209 598 185 c 128
 599 161 602 145 609 136 c 128
 616 127 627 123 643 123 c 128
 659 123 682 139 713 170 c 0
 745 201 770 234 790 270 c 1
 830 242 l 1
 778 64 680 -25 534 -24 c 0
 478 -24 450 17 450 98 c 0
 450 146 458 200 476 259 c 1
 463 263 l 1
 430 172 388 102 338 51 c 128
 288 0 234 -26 176 -26 c 128
 118 -26 75 -3 48 41 c 128
 21 85 8 146 8 225 c 128
 8 304 26 394 63 494 c 128
 100 594 151 684 217 763 c 128
 283 842 356 882 434 882 c 0
 486 882 517 872 527 851 c 1
 541 855 l 1
 561 1142 l 5
 427 1170 l 5
 437 1243 l 5
 712 1269 l 5
 731 1245 l 5
 608 284 l 1
EndSplineSet
Fore
SplineSet
759 1275 m 1
 636 284 l 2
 628 220 624.666 123 671 123 c 128
 719.709 123 796.204 230.768 818 270 c 1
 858 242 l 1
 806 64 708 -24 562 -24 c 0
 447.4 -24 474.133 161.103 504 259 c 1
 491 263 l 1
 443.105 130.926 354.374 -26 204 -26 c 128
 74.9785 -26 36 86.5264 36 225 c 128
 36 476.188 211.262 882 462 882 c 0
 514 882 545 872 555 851 c 1
 569 855 l 1
 589 1172 l 1
 455 1200 l 1
 465 1273 l 1
 740 1299 l 1
 759 1275 l 1
251 109 m 0
 366.676 109 443.888 286.972 483 398 c 128
 514 486 535 579 545 678 c 1
 514 743 467 775 413 775 c 0
 246.652 775 196 478 196 305 c 0
 196 193 197 109 251 109 c 0
EndSplineSet
Colour: ffffff
EndChar

StartChar: e
Encoding: 70 101 69
Width: 641
VWidth: 1655
GlyphClass: 2
Flags: HMW
LayerCount: 2
Fore
SplineSet
196 350 m 1
 200 184.987 253 103 358 103 c 0
 435 103 504 157.713 564 266 c 5
 601 234 l 5
 558.882 101.292 437.269 -31 277 -31 c 128
 109.812 -31 36 115.553 36 293 c 128
 36 560.583 213.079 897 433 897 c 0
 530.841 897 603.74 803.649 603.74 700.432 c 0
 603.74 486 417 399 196 350 c 1
357 760 m 0
 276.5 760 209.417 644.053 196 414 c 1
 315 453 439.921 516 439.921 644.957 c 0
 439.921 707.597 413.667 760 357 760 c 0
EndSplineSet
Colour: ffffff
EndChar

StartChar: f
Encoding: 71 102 70
Width: 1104
VWidth: 1655
GlyphClass: 2
Flags: HMW
LayerCount: 2
Back
SplineSet
409 1238 m 132
 426 1218 434 1193 434 1163 c 132
 434 1133 423 1104 401 1079 c 132
 379 1054 353 1041 325 1041 c 132
 297 1041 276 1049 259 1068 c 132
 242 1087 234 1111 234 1140 c 132
 234 1169 242.735 1198 261 1226 c 132
 286.176 1254 312.446 1268 342 1268 c 132
 369 1268 392 1258 409 1238 c 132
345 254 m 5
 341 225 340 201 340 181 c 4
 340 142 351 123 374 123 c 132
 397 123 424 134 456 157 c 132
 488 180 514 209 534 246 c 5
 576 217 l 5
 516 57 420 -23 288 -23 c 4
 247 -23 217 -10 200 15 c 132
 183 40 175 71 175 108 c 132
 175 145 179 208 188 296 c 5
 224 611 l 6
 250.259 840.77 152.561 747.619 53 599 c 5
 5 631 l 5
 48.0264 743.759 161.278 906 299 906 c 4
 425.723 906 389 745 373 569 c 6
 345 254 l 5
EndSplineSet
Fore
SplineSet
95 -132 m 1
 154.433 -196 214.767 -228 276 -228 c 0
 358.436 -228 392.861 -194.812 406 -127 c 1
 450.197 38.7646 457.459 509.419 470 742 c 1
 355 753 l 1
 367 845 l 1
 475 849 l 1
 487.192 987.676 534.75 1110.08 623.468 1194 c 0
 691.395 1265.85 786.783 1309 913 1309 c 0
 1002.24 1304.72 1067 1241.2 1067 1165 c 0
 1067 1106.34 1032.84 1066.35 993 1041 c 1
 943.93 1113.02 866.781 1160.39 791.389 1160.39 c 0
 717.971 1160.39 684.977 1145.48 667.642 1089 c 0
 644.773 1021.7 637.83 930.815 634 844 c 1
 868 845 l 1
 849 747 l 1
 632 738 l 1
 621.108 260.547 625 -381 171 -381 c 0
 88.2441 -381 36 -331.574 36 -242 c 0
 41.1494 -200.811 68.457 -156.982 95 -132 c 1
EndSplineSet
Colour: ffffff
EndChar

StartChar: g
Encoding: 72 103 71
Width: 822
VWidth: 1655
GlyphClass: 2
Flags: HMW
LayerCount: 2
Back
SplineSet
58 360 m 132
 58 621.322 191.454 895 447 895 c 132
 623.977 895 732 716 732 526 c 132
 732 264.391 598.426 -26 327 -26 c 132
 146.702 -26 58 146 58 360 c 132
222 460 m 4
 222 272 277.811 90 397 90 c 132
 526.371 90 570 230 570 424 c 4
 570 581.558 505.667 784 377 784 c 132
 263.747 784 222 642 222 460 c 4
EndSplineSet
Fore
SplineSet
564 377 m 1
 582 685 l 1
 559.086 733.219 523.445 772 459 772 c 128
 287.241 772 256.595 470.453 255 305 c 0
 255 226.947 265.853 129 309 129 c 128
 390.223 129 480.472 241.307 582 494 c 1
 600.339 470.656 609.157 463.976 617 459 c 1
 554.396 219.952 407.069 -26 267 -26 c 128
 137.426 -26 103 111.118 103 244 c 128
 103 485.736 278.782 897 488 897 c 0
 541.945 897 581.578 862.521 608 792 c 1
 618 792 l 1
 651.773 864.706 725.28 908.329 767 895 c 1
 785 880 l 1
 716 412 l 17
 864 -137 500.694 -378.023 294 -378.023 c 0
 135.847 -378.023 36 -341.39 36 -275 c 0
 36 -203.359 98 -155.121 158 -148 c 1
 183.096 -213 280.968 -247 355 -247 c 0
 541.735 -247 600.451 -83.709 600.451 99.8926 c 0
 600.451 193.278 585.261 291.919 564 377 c 1
EndSplineSet
Colour: ffffff
EndChar

StartChar: h
Encoding: 73 104 72
Width: 912
VWidth: 1655
GlyphClass: 2
Flags: HMW
LayerCount: 2
Back
SplineSet
336 364 m 5
 329.003 133.088 318.069 -47.7976 104 -24 c 5
 90 3 l 5
 192 388 l 5
 211 567 232 768 180 768 c 4
 138.314 768 63.4918 649.105 43 613 c 5
 -5 651 l 5
 36.9156 764.327 154.106 923 295 923 c 4
 415 923 358 651.314 331 553 c 5
 342 547 l 5
 384.914 659.424 537.205 897 666 897 c 132
 778.823 897 823.146 829.09 823.146 713.126 c 4
 823.146 571 706.721 286 706.721 156.993 c 4
 706.721 133.391 713.037 121 730 121 c 132
 806.745 121 861.84 195.437 889 246 c 5
 932 216 l 5
 873.382 56 774.707 -24 635 -24 c 4
 557.051 -24 532.279 3.25322 532.279 74.6055 c 4
 532.279 202 650.969 442 650.969 644.743 c 4
 650.969 695.722 632.334 721 594 721 c 4
 503.297 721 397.878 601.684 336 364 c 5
EndSplineSet
Fore
SplineSet
234 1180 m 1
 98 1208 l 1
 108 1281 l 1
 395 1304 l 1
 411 1283 l 1
 341 825 l 1
 278 564 l 1
 290 561 l 1
 363.14 731.036 496.7 898 608 898 c 128
 724.819 898 757.696 818.184 757.696 707.854 c 0
 757.696 520.505 642.542 265 642.542 168.56 c 0
 642.542 144.324 649.426 123 675 123 c 128
 739.568 123 806.924 195.91 834 246 c 1
 875 217 l 1
 822.209 80.7646 745.815 -23 574 -23 c 0
 497.116 -23 476.788 18.5566 476.788 74.8428 c 0
 476.788 186.991 587.819 455.082 587.819 636.39 c 0
 587.819 695.325 572.442 716 541 716 c 0
 419 716 325.746 541.983 285 386 c 1
 277.917 141.599 264.009 -42.1592 51 -19 c 1
 36 8 l 1
 136 434 l 1
 234 1180 l 1
EndSplineSet
Colour: ffffff
EndChar

StartChar: i
Encoding: 74 105 73
Width: 624
VWidth: 1655
GlyphClass: 2
Flags: HMW
LayerCount: 2
Fore
SplineSet
505 1163 m 132
 505 1104.39 453.939 1041 396 1041 c 132
 339.332 1041 305 1083.24 305 1140 c 132
 305 1203.43 353.23 1268 413 1268 c 132
 469.661 1268 505 1220.91 505 1163 c 132
353.717 187.354 m 0
 353.717 152.77 360.137 123 387 123 c 128
 451.468 123 518.02 189.565 545 236 c 1
 587 207 l 1
 527 53.667 431 -23 299 -23 c 0
 206.765 -23 184.159 44.8193 184.159 129.938 c 0
 184.159 253 279.33 490.497 279.33 676.479 c 0
 279.33 728.158 267.93 749.552 249.188 749.552 c 0
 211.63 749.552 148.154 683.172 84 599 c 1
 36 631 l 1
 83.417 743.759 208.225 906 360 906 c 0
 429.314 906 447.493 853.326 447.493 775.301 c 0
 447.493 588.646 353.717 379.456 353.717 187.354 c 0
EndSplineSet
Colour: ffffff
EndChar

StartChar: j
Encoding: 75 106 74
Width: 732
VWidth: 1655
GlyphClass: 2
Flags: HMW
LayerCount: 2
Back
SplineSet
429 1163 m 132
 429 1104.39 377.939 1041 320 1041 c 132
 263.332 1041 229 1083.24 229 1140 c 132
 229 1203.43 277.23 1268 337 1268 c 132
 393.661 1268 429 1220.91 429 1163 c 132
327.717 187.354 m 4
 327.717 152.77 334.137 123 361 123 c 132
 429.548 123 500.312 195.456 529 246 c 5
 571 217 l 5
 508.917 57 409.583 -23 273 -23 c 4
 180.765 -23 158.159 44.8193 158.159 129.938 c 4
 158.159 253 233.33 490.497 233.33 676.479 c 4
 233.33 728.158 221.93 749.552 203.188 749.552 c 4
 167.903 749.552 108.271 683.172 48 599 c 5
 0 631 l 5
 45.9531 743.759 166.909 906 314 906 c 4
 383.314 906 401.493 853.326 401.493 775.301 c 4
 401.493 588.647 327.717 379.456 327.717 187.354 c 4
EndSplineSet
Fore
SplineSet
695 1163 m 128
 695 1104.39 643.939 1041 586 1041 c 128
 529.332 1041 495 1083.24 495 1140 c 128
 495 1203.43 543.23 1268 603 1268 c 128
 659.661 1268 695 1220.91 695 1163 c 128
95 -132 m 1
 157.683 -196 220.367 -228 284 -228 c 0
 409 -228 393 -94 427.831 182 c 0
 444.497 314.064 505.111 609.483 505.111 681.359 c 0
 505.111 720.079 494.99 752 465 752 c 0
 418.068 752 341.855 620.711 329 595 c 1
 278 631 l 1
 319.735 743.685 432.683 909 575 909 c 128
 659.198 909 681.891 844.498 681.891 764.942 c 0
 681.891 705.503 629.415 457.78 589 210 c 0
 577.274 129.919 571.724 64.1611 562.658 -14 c 0
 549.008 -116.081 503.252 -192.748 474 -230 c 128
 417.016 -317.345 298.228 -381 181 -381 c 1
 93.0977 -373.572 36 -331.374 36 -242 c 1
 41.1494 -200.811 68.457 -156.982 95 -132 c 1
EndSplineSet
Colour: ffffff
EndChar

StartChar: k
Encoding: 76 107 75
Width: 855
VWidth: 1655
GlyphClass: 2
Flags: HMW
LayerCount: 2
Back
SplineSet
194 885 m 5
 226 1175 l 5
 90 1203 l 5
 101 1276 l 5
 380 1299 l 5
 395 1278 l 5
 318 623 l 5
 278 253 l 6
 276 230 275 208 275 188 c 4
 275 143 286 121 309 121 c 132
 332 121 359 133 391 156 c 132
 423 179 449 209 470 246 c 5
 512 216 l 5
 452 56 351 -24 207 -24 c 4
 138 -24 104 24 104 120 c 4
 104 158 109 216 120 295 c 5
 194 885 l 5
EndSplineSet
Fore
SplineSet
354 401 m 1
 501.206 504.677 589.664 631.581 589.664 700.086 c 0
 589.664 729.681 578.343 748 554 748 c 0
 470 748 290 495 257 405 c 1
 251.292 153.973 235.119 -86.8311 42 -13 c 1
 36 0 l 1
 119 440 l 1
 206 1175 l 1
 71 1203 l 1
 81 1276 l 1
 368 1299 l 1
 384 1278 l 1
 326 832 l 1
 261 551 l 1
 274 546 l 1
 308.824 600.613 494 906 644 906 c 0
 684.981 906 738.1 851.235 738.1 765.239 c 0
 738.1 675.643 674.9 551.89 467 421 c 1
 495 317.072 577 123 627 123 c 0
 655 123 729 164 776 246 c 1
 818 216 l 1
 780 103 663 -13 560 -13 c 0
 403 -13 366 260.738 343 383 c 1
 354 401 l 1
EndSplineSet
Colour: ffffff
EndChar

StartChar: l
Encoding: 77 108 76
Width: 498
VWidth: 1655
GlyphClass: 2
Flags: HMW
LayerCount: 2
Back
SplineSet
409 1238 m 132
 426 1218 434 1193 434 1163 c 132
 434 1133 423 1104 401 1079 c 132
 379 1054 353 1041 325 1041 c 132
 297 1041 276 1049 259 1068 c 132
 242 1087 234 1111 234 1140 c 132
 234 1169 242.735 1198 261 1226 c 132
 286.176 1254 312.446 1268 342 1268 c 132
 369 1268 392 1258 409 1238 c 132
345 254 m 5
 341 225 340 201 340 181 c 4
 340 142 351 123 374 123 c 132
 397 123 424 134 456 157 c 132
 488 180 514 209 534 246 c 5
 576 217 l 5
 516 57 420 -23 288 -23 c 4
 247 -23 217 -10 200 15 c 132
 183 40 175 71 175 108 c 132
 175 145 179 208 188 296 c 5
 224 611 l 6
 250.259 840.77 152.561 747.619 53 599 c 5
 5 631 l 5
 48.0264 743.759 161.278 906 299 906 c 4
 425.723 906 389 745 373 569 c 6
 345 254 l 5
EndSplineSet
Fore
SplineSet
140 885 m 5
 172 1175 l 1
 36 1203 l 1
 47 1276 l 1
 334 1299 l 1
 349 1278 l 1
 264 623 l 1
 227 253 l 2
 222.647 202.942 216.641 121 258 121 c 128
 323.475 121 390.462 195.718 419 246 c 1
 461 216 l 1
 401 56 300 -24 156 -24 c 0
 24.0391 -24 52 154 69 295 c 2
 140 885 l 5
EndSplineSet
Colour: ffffff
EndChar

StartChar: m
Encoding: 78 109 77
Width: 1430
VWidth: 1655
GlyphClass: 2
Flags: HMW
LayerCount: 2
Back
SplineSet
756 364 m 1
 749.003 133.088 738.069 -47.7976 524 -24 c 1
 510 3 l 1
 612 388 l 1
 631 567 652 768 600 768 c 0
 558.314 768 483.492 649.105 463 613 c 1
 415 651 l 1
 456.916 764.327 574.106 923 715 923 c 0
 835 923 778 651.314 751 553 c 1
 762 547 l 1
 804.914 659.424 957.205 897 1086 897 c 132
 1198.82 897 1243.15 829.09 1243.15 713.126 c 4
 1243.15 571 1126.72 286 1126.72 156.993 c 4
 1126.72 133.391 1133.04 121 1150 121 c 132
 1226.75 121 1281.84 195.437 1309 246 c 5
 1352 216 l 5
 1293.38 56 1194.71 -24 1055 -24 c 4
 977.051 -24 952.279 3.25323 952.279 74.6055 c 0
 952.279 202 1070.97 442 1070.97 644.743 c 4
 1070.97 695.722 1052.33 721 1014 721 c 4
 923.297 721 817.878 601.684 756 364 c 1
EndSplineSet
Fore
SplineSet
1111.97 644.743 m 0
 1111.97 695.722 1093.33 721 1055 721 c 0
 921.821 723.038 835.38 520.72 792 343 c 1
 784.939 122.471 777.366 -44.8965 565 -30 c 1
 549 -2 l 1
 648 378 l 1
 666.212 500.929 715.405 712 613 712 c 0
 491 712 416.314 513.939 377 344 c 1
 369.931 122.744 359.275 -39.9785 145 -19 c 1
 131 8 l 1
 233 378 l 1
 238.812 441.204 287.47 761.319 221.941 761.319 c 0
 181.705 761.319 118.783 670.417 84 605 c 1
 36 641 l 1
 78.2021 759.297 193.797 923 336 923 c 0
 440 923 398 665.878 372 562 c 1
 383 560 l 1
 426.637 686.299 542.075 888 685 888 c 128
 835.015 888 842 762 814 618 c 1
 824 613 l 1
 904.433 802.675 1005.8 897 1127 897 c 128
 1239.82 897 1284.15 829.09 1284.15 713.126 c 0
 1284.15 571 1167.72 286 1167.72 156.993 c 0
 1167.72 133.391 1174.04 121 1191 121 c 128
 1267.75 121 1322.84 195.437 1350 246 c 1
 1393 216 l 1
 1334.38 56 1235.71 -24 1096 -24 c 0
 1007.16 -24 990 11.9863 990 61 c 0
 990 223 1111.97 427 1111.97 644.743 c 0
EndSplineSet
Colour: ffffff
EndChar

StartChar: n
Encoding: 79 110 78
Width: 1010
VWidth: 1655
GlyphClass: 2
Flags: HMW
LayerCount: 2
Fore
SplineSet
377 364 m 5
 370.003 133.088 359.069 -47.7979 145 -24 c 5
 131 3 l 5
 233 388 l 5
 252 567 273 768 221 768 c 4
 179.314 768 104.492 649.105 84 613 c 5
 36 651 l 5
 77.916 764.327 195.106 923 336 923 c 4
 456 923 399 651.314 372 553 c 5
 383 547 l 5
 425.914 659.424 578.205 897 707 897 c 132
 819.823 897 864.146 829.09 864.146 713.126 c 4
 864.146 571 747.721 286 747.721 156.993 c 4
 747.721 133.391 754.037 121 771 121 c 132
 847.745 121 902.84 195.437 930 246 c 5
 973 216 l 5
 914.382 56 815.707 -24 676 -24 c 4
 598.051 -24 573.279 3.25293 573.279 74.6055 c 4
 573.279 202 691.969 442 691.969 644.743 c 4
 691.969 695.722 673.334 721 635 721 c 4
 544.297 721 438.878 601.684 377 364 c 5
EndSplineSet
Colour: ffffff
EndChar

StartChar: o
Encoding: 80 111 79
Width: 750
VWidth: 1655
GlyphClass: 2
Flags: HMW
LayerCount: 2
Fore
SplineSet
37 360 m 132
 37 621.322 170.454 895 426 895 c 132
 602.977 895 711 716 711 526 c 132
 711 264.391 577.426 -26 306 -26 c 132
 125.702 -26 37 146 37 360 c 132
201 460 m 4
 201 272 256.811 90 376 90 c 132
 505.371 90 549 230 549 424 c 4
 549 581.558 484.667 784 356 784 c 132
 242.747 784 201 642 201 460 c 4
EndSplineSet
Colour: ffffff
EndChar

StartChar: p
Encoding: 81 112 80
Width: 908
VWidth: 1655
GlyphClass: 2
Flags: HMW
LayerCount: 2
Back
SplineSet
326 204 m 5
 316.698 -32.8959 286.465 -197.167 226 -294 c 132
 200 -350 158 -378 99 -378 c 4
 97 -378 83 -377 57 -374 c 5
 43 -347 l 5
 182 248 l 5
 214 620 l 2
 216 648 217 673 217 696 c 0
 217 745 205 769 180 768 c 0
 167 768 147 751 118 718 c 128
 89 685 64 650 43 613 c 1
 -5 651 l 1
 22 724 65 787 121 841 c 128
 177 895 235 923 295 923 c 0
 347 923 373 888 372 818 c 0
 372 788 368 753 359 713 c 0
 349 672 344 644 341 627 c 0
 333 592 330 574 331 573 c 1
 342 567 l 1
 372 658 417 737 476 801 c 128
 535 865 591 897 644 897 c 128
 697 897 737 883 763 856 c 128
 789 829 802 794 802 750 c 128
 802 706 799 662 793 615 c 1
 749 253 l 2
 745 224 744 200 744 181 c 0
 744 141 755 121 778 121 c 128
 801 121 828 133 860 156 c 128
 892 179 918 209 938 246 c 1
 981 216 l 1
 921 56 820 -24 677 -24 c 0
 612 -24 579 18 579 101 c 0
 579 112 586 177 600 295 c 2
 623 488 l 2
 633 571 637 625 638 649 c 0
 638 698 619 722 582 721 c 0
 472.732 721 387.398 548.21 326 204 c 5
EndSplineSet
Fore
SplineSet
322 112 m 1
 348.632 306.35 393.789 459.3 454 572 c 128
 506 670 558 719 610 719 c 0
 688.271 719 695 622.581 695 524 c 0
 695 243.536 626.367 91.6221 393 62 c 1
 400 -12 l 1
 697.766 -12 869 218.779 869 540 c 128
 869 697.034 812.227 877 674 877 c 128
 526.069 877 431.709 681.829 381 553 c 1
 371 555 l 1
 371 557 372 561 374 570 c 128
 393.597 658.185 471.059 915 332 915 c 0
 189.068 915 77.5576 748.977 36 632 c 1
 82 595 l 1
 102.507 632.107 177.021 754 219 754 c 0
 268.189 754 260.677 664.902 251 602 c 2
 184 131 l 17
 63 -347 l 1
 77 -374 l 1
 279.787 -402.78 322 -258.205 322 112 c 1
EndSplineSet
Colour: ffffff
EndChar

StartChar: q
Encoding: 82 113 81
Width: 854
VWidth: 1655
GlyphClass: 2
Flags: HMW
LayerCount: 2
Fore
SplineSet
587 -108 m 2
 578 -214 584 -239 625 -239 c 0
 690 -239 758 -178 785 -136 c 1
 817 -185 l 1
 753 -318 650 -385 509 -385 c 0
 438 -385 396 -320 396 -254 c 0
 396 -122.223 446.617 95.3623 496 268 c 1
 483 268 l 1
 368 54 292 -26 190 -26 c 0
 67.9268 -26 36 111 36 244 c 0
 36 486 212 897 421 897 c 0
 479 897 521 863 549 792 c 1
 559 792 l 1
 595 865 675 908 720 895 c 1
 738 880 l 1
 604 103 l 1
 587 -108 l 2
527 505 m 1
 523 685 l 1
 499 733 461 772 392 772 c 0
 220 772 190 470 188 305 c 0
 188 227 199 129 242 129 c 0
 308 129 421.604 245.277 527 505 c 1
EndSplineSet
Colour: ffffff
EndChar

StartChar: r
Encoding: 83 114 82
Width: 779
VWidth: 1655
GlyphClass: 2
Flags: HMW
LayerCount: 2
Back
SplineSet
293 1180 m 5
 157 1208 l 5
 167 1281 l 5
 454 1304 l 5
 470 1283 l 5
 400 825 l 5
 337 564 l 5
 349 561 l 5
 418 727 544 890 649 890 c 132
 780.646 890 817.696 813.542 817.696 707.854 c 4
 817.696 520.505 701.542 265 701.542 168.56 c 4
 701.542 144.325 708.426 123 734 123 c 132
 798.568 123 865.924 195.91 893 246 c 5
 934 217 l 5
 881.209 80.7647 804.815 -23 633 -23 c 4
 556.116 -23 535.788 18.5564 535.788 74.8428 c 4
 535.788 186.991 646.819 455.082 646.819 636.39 c 4
 646.819 695.326 631.443 716 600 716 c 4
 438.756 716 384.746 520.89 344 346 c 5
 336.917 125.737 323.009 -39.8721 110 -19 c 5
 95 8 l 5
 195 434 l 5
 293 1180 l 5
EndSplineSet
Fore
SplineSet
393 345 m 129
 405 154 411.253 -42 184 -14 c 1
 170 13 l 1
 243 388 l 1
 244.136 431.034 249.611 551.448 249.611 640.982 c 0
 249.611 700.778 239.782 746.801 208.356 746.801 c 0
 170.958 746.801 94.8398 642.712 84 619 c 1
 36 655 l 1
 76.7637 757.682 171.946 899 305 899 c 0
 409.144 899 408 793 396 693 c 2
 363 430 l 1
 377 427 l 1
 435.649 607 479.162 866 622 866 c 0
 692.879 866 742 820.178 742 755 c 0
 742 695.247 717.049 649.979 696 641 c 1
 696 641 669.525 669 579 669 c 128
 523.959 669 465.122 557.694 393 345 c 129
EndSplineSet
Colour: ffffff
EndChar

StartChar: s
Encoding: 84 115 83
Width: 650
VWidth: 1655
GlyphClass: 2
Flags: HMW
LayerCount: 2
Fore
SplineSet
78 610 m 0
 78 768.838 245.039 897 426 897 c 0
 517.649 897 613 858.933 613 775 c 0
 613 717 581 675 517 648 c 1
 482.252 717.919 434.98 798 353 798 c 128
 269.72 798 205 749.205 205 686 c 0
 205 514 600.261 425.857 596 239 c 128
 592.301 66.6191 425.439 -35 248 -35 c 128
 153.204 -35 36 13.8525 36 99 c 128
 36 169.578 87.4912 225.302 151 233 c 1
 176.981 149.491 235.45 67 341 67 c 128
 404.708 67 449 99 449 171 c 1
 441.041 334.406 78 358 78 610 c 0
EndSplineSet
Colour: ffffff
EndChar

StartChar: t
Encoding: 85 116 84
Width: 577
VWidth: 1655
GlyphClass: 2
Flags: HMW
LayerCount: 2
Fore
SplineSet
264 151 m 0
 345 151 402.721 272.015 471 393 c 1
 520 355 l 1
 473.432 179.243 376.119 -23 186 -23 c 0
 15.5332 -23 65 168 92 354 c 2
 148 745 l 1
 36 758 l 1
 61 843 l 1
 158 854 l 1
 196 1032 l 1
 333 1051 l 1
 344 1038 l 1
 323 854 l 1
 540 850 l 1
 514 753 l 1
 307 745 l 1
 256 392 l 2
 239 274 215.144 151 264 151 c 0
EndSplineSet
Colour: ffffff
EndChar

StartChar: u
Encoding: 86 117 85
Width: 1034
VWidth: 1655
GlyphClass: 2
Flags: HMW
LayerCount: 2
Fore
SplineSet
648 507 m 1
 651.372 724.675 681 923.467 876 895 c 1
 892 867 l 1
 792 484 l 1
 775 284 l 2
 767.963 212.225 746.128 123 810 123 c 128
 858.767 123 933.961 230.329 956 270 c 1
 997 242 l 1
 945 64 834 -24 702 -24 c 0
 579.691 -24 610.723 165.384 641 283 c 1
 630 285 l 1
 571.57 147.44 420.981 -26 282 -26 c 128
 183.746 -26 152.719 35.1221 152.719 116.13 c 0
 152.719 247 261.456 508 261.456 672.951 c 0
 261.456 707.846 253.942 736.828 227 738 c 0
 196 738 148 689 84 592 c 1
 36 623 l 1
 78.8896 735.4 192.993 899 330 899 c 0
 419.539 899 445.093 844.69 445.093 770.309 c 0
 445.093 646 333.979 364 333.979 216.477 c 0
 333.979 180.227 346.95 150 393 150 c 0
 501 150 605.929 347.114 648 507 c 1
EndSplineSet
Colour: ffffff
EndChar

StartChar: v
Encoding: 87 118 86
Width: 862
VWidth: 1655
GlyphClass: 2
Flags: HMW
LayerCount: 2
Fore
SplineSet
382 400 m 2
 360.265 239.952 372.132 91 493 91 c 128
 647.117 91 702 378.888 702 545 c 0
 702 667 660 768 576 845 c 1
 607 879 643.988 896 687 896 c 128
 770 896 824 790.931 824 688 c 0
 824 389.45 695.118 -21 406 -21 c 0
 245.932 -21 193.358 123.904 223 349 c 2
 255 592 l 2
 267.147 684.244 270.819 735 228 735 c 128
 219.137 735 170 705 84 579 c 1
 36 611 l 1
 81.957 722.188 199.26 887 338 887 c 1
 393 887 420 840 420 744 c 0
 420 719 411 631 393 481 c 2
 382 400 l 2
EndSplineSet
Colour: ffffff
EndChar

StartChar: w
Encoding: 88 119 87
Width: 1208
VWidth: 1655
GlyphClass: 2
Flags: HMW
LayerCount: 2
Fore
SplineSet
249 618 m 2
 262 675 286.424 760 245 760 c 0
 222 760 166 709 77 607 c 1
 36 637 l 1
 92.0205 744.686 221.616 913 357 913 c 0
 419.558 913 439.64 876.628 439.64 822.849 c 0
 439.64 678 328 442 328 249 c 0
 328 161 362 117 429 116 c 1
 558 116 606.921 296.592 627 484 c 1
 617.629 676.097 610.806 859.024 803 835 c 1
 814 817 l 1
 755 456 l 1
 748 300 741.482 106 860 106 c 0
 1003.11 106 1048 370.832 1048 534 c 0
 1048 654.286 996.216 781.213 948 858 c 1
 985 886 1020 900 1055 900 c 128
 1140.3 900 1170 774.214 1170 676 c 128
 1170 384.688 1030 -24 759 -24 c 0
 650.033 -24 620 56.9082 620 193 c 1
 607 195 l 1
 567.322 75.9668 473.335 -26 326 -26 c 0
 218 -26 164 42 164 178 c 0
 164 225 169.085 268.209 188 351 c 2
 249 618 l 2
EndSplineSet
Colour: ffffff
EndChar

StartChar: x
Encoding: 89 120 88
Width: 929
VWidth: 1655
GlyphClass: 2
Flags: HMW
LayerCount: 2
Fore
SplineSet
428 312 m 1
 327 83.3926 230 -31.9404 137 -34 c 0
 104 -34 79 -24 62 -4 c 128
 45 16 36 41 36 70 c 0
 36 127 52 170 84 197 c 1
 113 171 147 158 186 158 c 0
 259 158 328 239 393 401 c 1
 368.286 502 299.801 731 220 731 c 0
 198 731 162 685 113 592 c 1
 66 629 l 1
 128 798 211 882 316 882 c 0
 440.39 882 495.122 674 520 542 c 1
 564 641.161 610 721.798 659 785 c 128
 708 843 749 871 784 871 c 128
 819 871 845 863 864 846 c 128
 883 829 892 810 892 786 c 0
 892 733 877 690 846 657 c 1
 826 675 794 683 747 683 c 0
 676 683 609 614 548 474 c 1
 562 394 632.445 113 689 113 c 128
 707 113 727 124 751 146 c 128
 775 168 798 198 820 237 c 1
 863 207 l 1
 806 54 719 -23 602 -23 c 0
 491.921 -23 448 190 428 312 c 1
EndSplineSet
Colour: ffffff
EndChar

StartChar: y
Encoding: 90 121 89
Width: 935
VWidth: 1655
GlyphClass: 2
Flags: HMW
LayerCount: 2
Fore
SplineSet
153 662 m 1
 104 699 l 1
 139.506 779.862 238.636 902 359 902 c 128
 565.952 902 557 318 539 154 c 1
 548 154 l 1
 679.27 278.186 742 419.07 742 585 c 128
 742 714 662 813 607 848 c 1
 629.986 876.29 683.283 906 733 906 c 0
 827.412 906 898 822 898 677 c 0
 898 435 741.027 231.521 535 56 c 1
 513.395 -138.09 400.003 -381 202 -381 c 128
 112.268 -381 36 -339.494 36 -254 c 0
 43.9189 -193.545 61.2627 -173.45 111 -141 c 1
 158.622 -189 206.236 -212 252 -212 c 128
 370.389 -212 399.569 -168.925 399.569 -42.8711 c 0
 399.569 171 363.881 748 279 748 c 128
 227.776 748 176.408 689.956 153 662 c 1
EndSplineSet
Colour: ffffff
EndChar

StartChar: z
Encoding: 91 122 90
Width: 861
VWidth: 1655
GlyphClass: 2
Flags: HMW
LayerCount: 2
Fore
SplineSet
620 858 m 0
 692.92 858 754.216 866 806 883 c 1
 824 855 l 1
 480 414 l 5
 276 113 l 1
 370.399 143.251 457.205 56 535 56 c 0
 580.819 56 602.738 86.0225 605 129 c 128
 607.253 171.803 583.609 269.623 572 303 c 1
 604 319 633 327 659 327 c 0
 719.706 327 760 289.897 760 227 c 0
 760 102.251 638.667 -13 500 -13 c 0
 429.741 -13 311.953 16 189 16 c 128
 146 16 101 10 55 -2 c 1
 36 26 l 1
 320 395 l 5
 584 765 l 1
 484.285 749.048 413.127 815 326 815 c 0
 283 815 260 776 256 699 c 0
 256 657.05 257.776 621.528 265 583 c 1
 184.193 552.697 88 595.498 88 681 c 128
 88 792.396 213 877 349 877 c 0
 433.377 877 519.903 859.43 620 858 c 0
EndSplineSet
Colour: ffffff
EndChar

StartChar: braceleft
Encoding: 92 123 91
Width: 709
VWidth: 1655
GlyphClass: 2
Flags: HMW
LayerCount: 2
Fore
SplineSet
478 -280 m 1
 474 -381 l 1
 369 -381 l 2
 298 -381 247 -361 217 -321 c 128
 187 -281 172 -220 172 -139 c 0
 172 -108 176 -53 185 25 c 128
 194 103 197 160 197 199 c 0
 197 311 161 373 90 385 c 2
 38 393 l 1
 51 492 l 1
 102 500 l 2
 147 508 183 531 211 572 c 128
 239 613 257 662 267 721 c 0
 290 874 312 993 333 1080 c 0
 348 1136 376 1181 416 1215 c 128
 456 1249 507 1266 570 1266 c 2
 671 1266 l 1
 650 1164 l 1
 568 1158 l 2
 515 1153 481 1076 467 925 c 0
 462 880 460 853 458 843 c 128
 456 833 455 818 452 797 c 128
 449 776 447 762 445 752 c 128
 443 742 441 729 437 711 c 128
 433 693 430 680 426 669 c 128
 422 658 417 646 411 630 c 0
 376 532 318 471 237 448 c 1
 235 442 l 1
 323 415 367 331 368 191 c 0
 368 155 364 95 354 11 c 128
 344 -73 340 -129 340 -158 c 0
 340 -232 361 -271 404 -275 c 2
 478 -280 l 1
EndSplineSet
Colour: ffffff
EndChar

StartChar: bar
Encoding: 93 124 92
Width: 379
VWidth: 1655
GlyphClass: 2
Flags: HMW
LayerCount: 2
Fore
SplineSet
150 -355 m 1
 37 -343 l 1
 229 1229 l 1
 341 1218 l 1
 150 -355 l 1
EndSplineSet
Colour: ffffff
EndChar

StartChar: braceright
Encoding: 94 125 93
Width: 713
VWidth: 1655
GlyphClass: 2
Flags: HMW
LayerCount: 2
Fore
SplineSet
346 686 m 2
 346 706 l 2
 346 753 350 816 361 894 c 128
 372 972 377 1024 377 1053 c 0
 377 1120 359 1155 322 1158 c 2
 240 1164 l 1
 245 1266 l 1
 346 1266 l 2
 416 1266 466 1246 497 1205 c 128
 528 1164 543 1104 543 1026 c 0
 543 985 539 926 530 850 c 128
 521 774 518 722 518 693 c 0
 518 578 555 514 628 500 c 2
 675 492 l 1
 663 393 l 1
 610 385 l 2
 567 377 531 354 504 314 c 128
 477 274 460 224 452 165 c 0
 429 11 406 -109 383 -195 c 0
 367 -252 340 -296 298 -330 c 128
 256 -364 203 -381 140 -381 c 2
 37 -381 l 1
 59 -280 l 1
 133 -275 l 1
 192 -270 229 -192 247 -40 c 1
 265 107 280 200 296 239 c 128
 312 278 326 311 342 336 c 0
 377 390 422 425 479 442 c 1
 479 448 l 1
 390 473 346 552 346 686 c 2
EndSplineSet
Colour: ffffff
EndChar

StartChar: asciitilde
Encoding: 95 126 94
Width: 901
VWidth: 1655
GlyphClass: 2
Flags: HMW
LayerCount: 2
Fore
SplineSet
41 416 m 1
 43 423 46 430 51 440 c 0
 83 514 124 566 174 595 c 0
 197 609 220 616 244 616 c 2
 250 616 l 1
 252 614 254 614 258 615 c 2
 700 571 l 1
 705 571 l 2
 726 571 751 586 780 616 c 2
 795 631 l 1
 860 631 l 1
 853 611 842 589 826 562 c 128
 810 535 794 513 778 495 c 128
 762 477 744 462 721 448 c 128
 698 434 674 427 651 427 c 2
 635 427 l 1
 191 472 l 1
 186 472 l 2
 162 472 136 455 108 421 c 1
 94 402 l 1
 41 416 l 1
EndSplineSet
Colour: ffffff
EndChar

StartChar: exclamdown
Encoding: 97 161 96
Width: 383
VWidth: 1655
GlyphClass: 2
Flags: HMW
LayerCount: 2
Fore
SplineSet
302.767 -296 m 1
 271.767 -318 235.767 -329 194.767 -328 c 128
 153.767 -327 120.767 -316 94.7666 -293 c 128
 68.7666 -270 51.7666 -236 43.7666 -191 c 1
 38.7666 -171 36.7666 -149 38.7666 -123 c 0
 38.7666 -48 56.7666 81 91.7666 263 c 1
 167.767 623 l 1
 238.767 636 l 1
 227.767 467 l 2
 221.767 381 219.767 275 219.767 150 c 2
 219.767 88 l 1
 224.767 -61 251.767 -189 302.767 -296 c 1
173.767 755 m 128
 162.767 761 152.767 770 141.767 783 c 128
 130.767 796 126.767 807 123.767 818 c 128
 120.767 829 119.767 836 119.767 841 c 128
 119.767 846 121.767 861 127.767 888 c 128
 133.767 915 147.767 939 170.767 962 c 128
 193.767 985 220.767 996 250.767 996 c 1
 277.767 994 297.767 985 313.767 969 c 128
 329.767 953 337.767 937 340.767 919 c 128
 343.767 901 344.767 892 344.767 890 c 128
 344.767 888 343.767 876 338.767 853 c 128
 333.767 830 320.767 808 297.767 785 c 128
 274.767 762 251.767 749 227.767 748 c 128
 203.767 747 184.767 749 173.767 755 c 128
EndSplineSet
Colour: ffffff
EndChar

StartChar: cent
Encoding: 98 162 97
Width: 694
VWidth: 0
GlyphClass: 2
Flags: HMW
LayerCount: 2
Fore
SplineSet
362 92 m 3
 445 92 495 122 545 157 c 1
 569 106 l 1
 508 30 398 -30 301 -30 c 3
 139 -30 38 92 38 307 c 0
 38 674 316 900 488 900 c 3
 595 900 656 842 656 756 c 27
 656 687 591 649 517 642 c 1
 512 710 494 806 438 806 c 3
 341 806 210 621 210 330 c 0
 210 191 255 92 362 92 c 3
443.595 1114 m 1
 592.275 1131 l 1
 526.011 863 l 1
 435.011 863 l 1
 443.595 1114 l 1
171.05 -266 m 1
 239 0 l 1
 328 0 l 1
 321.573 -250 l 1
 171.05 -266 l 1
EndSplineSet
Colour: ffffff
EndChar

StartChar: sterling
Encoding: 99 163 98
Width: 1122
VWidth: 1655
GlyphClass: 2
Flags: HMW
LayerCount: 2
Fore
SplineSet
960 877 m 1
 880 890 l 1
 862 1099 l 1
 835 1115 809 1122 782 1122 c 0
 703 1122 647 1092 616 1032 c 1
 582 971 553 857 528 690 c 1
 521 643 l 1
 740 655 l 1
 717 557 l 1
 510 543 l 1
 503 505 l 1
 476 309 438 173 391 98 c 1
 844 94 l 1
 1002 341 l 1
 1084 323 l 1
 1007 0 l 1
 38 0 l 1
 57 73 l 1
 222 118 l 1
 251 183 279 294 304 451 c 1
 314 537 l 1
 138 527 l 1
 164 627 l 1
 331 636 l 1
 350 770 l 1
 373 918 424 1031 505 1108 c 128
 586 1185 687 1224 805 1224 c 0
 895 1224 970 1211 1030 1186 c 1
 960 877 l 1
EndSplineSet
Colour: ffffff
EndChar

StartChar: currency
Encoding: 100 164 99
Width: 735
VWidth: 1655
GlyphClass: 2
Flags: HMW
LayerCount: 2
Fore
SplineSet
520 512 m 0
 520 557 508 592 483 618 c 128
 458 644 424 657 380 657 c 128
 336 657 298 641 267 609 c 0
 228 570 209 523 209 468 c 128
 209 413 220 373 244 347 c 128
 268 321 302 308 345 308 c 0
 388 307 426 323 459 354 c 0
 500 393 520 445 520 512 c 0
625 514 m 0
 625 442 604 382 562 334 c 1
 645 251 l 1
 548 170 l 1
 482 259 l 1
 426 228 376 212 330 212 c 128
 284 212 240 226 198 253 c 1
 111 165 l 1
 39 249 l 1
 130 325 l 1
 112 358 104 403 104 460 c 128
 104 517 123 568 160 615 c 1
 84 699 l 1
 177 780 l 1
 239 695 l 1
 292 734 347 753 402 752 c 0
 457 752 504 736 545 704 c 1
 634 781 l 1
 696 696 l 1
 604 623 l 1
 618 593 625 557 625 514 c 0
EndSplineSet
Colour: ffffff
EndChar

StartChar: yen
Encoding: 101 165 100
Width: 1120
VWidth: 1655
GlyphClass: 2
Flags: HMW
LayerCount: 2
Fore
SplineSet
379 484 m 1
 72 484 l 1
 95 583 l 1
 362 583 l 1
 181 1133 l 1
 53 1176 l 1
 74 1252 l 1
 539 1252 l 1
 516 1176 l 1
 378 1137 l 1
 535 641 l 1
 816 1133 l 1
 662 1176 l 1
 683 1252 l 1
 1082 1252 l 1
 1062 1176 l 1
 934 1137 l 1
 609 583 l 1
 911 583 l 1
 888 484 l 1
 570 484 l 1
 550 339 l 1
 878 339 l 1
 855 242 l 1
 540 242 l 1
 523 113 l 1
 683 78 l 1
 664 0 l 1
 159 0 l 1
 179 72 l 1
 337 120 l 1
 350 242 l 1
 38 242 l 1
 63 339 l 1
 362 339 l 1
 379 484 l 1
EndSplineSet
Colour: ffffff
EndChar

StartChar: brokenbar
Encoding: 102 166 101
Width: 374
VWidth: 1655
GlyphClass: 2
Flags: HMW
LayerCount: 2
Fore
SplineSet
37 -343 m 1
 131 423 l 1
 238 411 l 1
 144 -355 l 1
 37 -343 l 1
143 529 m 1
 229 1229 l 1
 336 1218 l 1
 244 517 l 1
 143 529 l 1
EndSplineSet
Colour: ffffff
EndChar

StartChar: section
Encoding: 103 167 102
Width: 990
VWidth: 1655
GlyphClass: 2
Flags: HMW
LayerCount: 2
Fore
SplineSet
887.393 832 m 1
 799.393 851 l 1
 792.393 1101 l 1
 760.393 1144 720.393 1170 673.393 1179 c 1
 660.393 1183 647.393 1184 633.393 1184 c 0
 587.393 1184 546.393 1169 508.393 1139 c 128
 470.393 1109 450.393 1068 446.393 1016 c 1
 446.393 1005 l 2
 446.393 956 459.393 914 484.393 878 c 128
 509.393 842 553.393 799 615.393 749 c 128
 677.393 699 726.393 658 763.393 623 c 128
 800.393 588 831.393 552 858.393 513 c 128
 885.393 474 902.393 429 909.393 376 c 1
 911.393 371 912.393 353 911.393 322 c 128
 910.393 291 902.393 258 885.393 225 c 1
 565.393 493 l 1
 460.393 577 382.393 650 331.393 712 c 128
 280.393 774 254.393 839 254.393 906 c 0
 254.393 911 254.393 914 255.393 918 c 1
 255.393 928 l 1
 259.393 969 270.393 1007 290.393 1043 c 0
 325.393 1109 375.393 1163 442.393 1206 c 128
 509.393 1249 579.393 1272 654.393 1278 c 1
 678.393 1278 l 2
 783.393 1278 875.393 1245 952.393 1178 c 1
 887.393 832 l 1
296.393 46 m 1
 276.393 -7 266.393 -56 267.393 -99 c 0
 267.393 -166 289.393 -214 334.393 -241 c 1
 363.393 -264 399.393 -276 442.393 -277 c 128
 485.393 -278 524.393 -266 559.393 -244 c 128
 594.393 -222 618.393 -191 633.393 -150 c 1
 641.393 -131 645.393 -110 643.393 -86 c 0
 643.393 -29 622.393 22 580.393 67 c 1
 568.393 81 527.393 117 454.393 176 c 128
 381.393 235 322.393 291 275.393 346 c 1
 243.393 386 221.393 421 208.393 452 c 128
 195.393 483 190.393 508 190.393 528 c 128
 190.393 548 190.393 558 191.393 561 c 1
 191.393 574 l 1
 195.393 607 203.393 641 218.393 676 c 1
 527.393 414 683.393 281 687.393 277 c 0
 736.393 232 773.393 191 798.393 152 c 128
 823.393 113 837.393 68 842.393 19 c 1
 844.393 14 844.393 4 844.393 -12 c 0
 844.393 -95 813.393 -170 750.393 -237 c 0
 704.393 -286 649.393 -322 585.393 -345 c 128
 521.393 -368 460.393 -380 402.393 -380 c 0
 298.393 -380 213.393 -356 146.393 -307 c 1
 117.393 -288 93.3926 -263 73.3926 -231 c 128
 53.3926 -199 43.3926 -172 40.3926 -149 c 1
 38.3926 -145 37.3926 -137 38.3926 -123 c 128
 39.3926 -109 41.3926 -92 46.3926 -72 c 1
 63.3926 -20 98.3926 17 151.393 39 c 1
 174.393 50 199.393 55 225.393 56 c 128
 251.393 57 275.393 53 296.393 46 c 1
EndSplineSet
Colour: ffffff
EndChar

StartChar: dieresis
Encoding: 104 168 103
Width: 548
VWidth: 1655
GlyphClass: 2
Flags: HMW
LayerCount: 2
Fore
SplineSet
464 1490 m 128
 481 1475 489 1457 489 1435 c 128
 489 1413 481 1393 464 1378 c 128
 447 1363 427 1356 404 1356 c 128
 381 1356 363 1363 346 1378 c 128
 329 1393 321 1412 321 1435 c 128
 321 1458 329 1475 346 1490 c 128
 363 1505 381 1512 404 1512 c 128
 427 1512 447 1505 464 1490 c 128
202 1490 m 128
 219 1475 226 1457 226 1434 c 128
 226 1411 219 1393 202 1378 c 128
 185 1363 165 1356 142 1356 c 128
 119 1356 101 1363 84 1378 c 128
 67 1393 59 1412 59 1435 c 128
 59 1458 67 1475 84 1490 c 128
 101 1505 119 1512 142 1512 c 128
 165 1512 185 1505 202 1490 c 128
EndSplineSet
Colour: ffffff
EndChar

StartChar: copyright
Encoding: 105 169 104
Width: 1331
VWidth: 1655
GlyphClass: 2
Flags: HMW
LayerCount: 2
Fore
SplineSet
521 421 m 128
 570 366 636 338 718 338 c 128
 800 338 870 361 928 408 c 1
 937 399 946 383 956 360 c 1
 879 286 784 249 672 249 c 0
 604 249 542 264 487 294 c 128
 432 324 387 367 353 425 c 128
 319 483 303 548 303 623 c 0
 303 771 361 886 477 971 c 1
 541 1016 617 1039 705 1038 c 128
 793 1037 864 1016 918 975 c 1
 902 780 l 1
 849 786 l 1
 827 916 l 1
 799 951 749 968 676 967 c 128
 603 966 546 940 506 886 c 128
 466 832 447 756 447 655 c 128
 447 554 472 476 521 421 c 128
651 -28 m 128
 563 -28 480 -11 404 22 c 128
 328 55 263 101 210 158 c 128
 157 215 115 284 85 364 c 128
 55 444 39 531 39 622 c 128
 39 713 56 800 90 882 c 128
 124 964 168 1035 225 1093 c 128
 282 1151 349 1198 425 1233 c 128
 501 1268 583 1285 673 1285 c 128
 763 1285 849 1267 930 1232 c 128
 1011 1197 1078 1149 1132 1087 c 1
 1240 958 1294 804 1293 625 c 0
 1293 539 1277 455 1243 375 c 128
 1209 295 1164 226 1108 167 c 128
 1052 108 983 62 903 26 c 128
 823 -10 739 -28 651 -28 c 128
225 908 m 128
 181 824 160 730 160 627 c 128
 160 524 181 430 224 346 c 128
 267 262 325 196 401 149 c 128
 477 102 556 78 639 78 c 128
 722 78 796 91 859 118 c 128
 922 145 977 182 1023 230 c 128
 1069 278 1105 335 1132 402 c 128
 1159 469 1173 540 1173 615 c 0
 1173 767 1132 898 1051 1008 c 0
 1010 1063 955 1106 887 1137 c 128
 819 1168 741 1184 654 1184 c 128
 567 1184 484 1159 407 1109 c 128
 330 1059 269 992 225 908 c 128
EndSplineSet
Colour: ffffff
EndChar

StartChar: ordfeminine
Encoding: 106 170 105
Width: 742
VWidth: 0
GlyphClass: 2
Flags: HMW
LayerCount: 2
Fore
SplineSet
455.787 932 m 1
 461.172 966 l 2
 477.777 1074 484.919 1169.6 382.97 1169.6 c 0
 312.919 1169.6 292.113 1114 258.21 977.6 c 1
 177.306 970 135.673 1004 135.673 1066 c 0
 135.673 1168 337.237 1254 454.537 1254 c 0
 605.837 1254 652.091 1177 625.588 1008.4 c 2
 584.345 748 l 2
 572.688 674.4 588.306 648 661.615 634.8 c 2
 702.975 627.6 l 1
 682.137 565.8 l 1
 635.458 529 609.369 519.6 559.22 519.6 c 0
 451.19 519.6 417.447 582.606 426.349 638.8 c 1
 416.999 638.8 l 1
 387.333 596.4 323.86 514.8 184.459 514.8 c 0
 103.734 514.8 40 573.613 40 654.585 c 0
 40 796.262 168.046 932 455.787 932 c 1
217.12 700.979 m 0
 217.12 665.387 235.447 631.2 289.611 631.2 c 0
 349.111 631.2 387.417 679.8 420.155 709.4 c 1
 445.506 874.4 l 1
 286.878 846.688 217.12 793.795 217.12 700.979 c 0
EndSplineSet
Colour: ffffff
EndChar

StartChar: guillemotleft
Encoding: 107 171 106
Width: 686
VWidth: 0
GlyphClass: 2
Flags: HMW
LayerCount: 2
Fore
SplineSet
288 469 m 5
 612 821 l 5
 647 761 l 5
 434 461 l 5
 551 140 l 5
 488 78 l 5
 287 449 l 5
 288 469 l 5
41 469 m 5
 364 821 l 5
 399 761 l 5
 186 461 l 5
 303 140 l 5
 240 78 l 5
 39 449 l 5
 41 469 l 5
EndSplineSet
Colour: ffffff
EndChar

StartChar: logicalnot
Encoding: 108 172 107
Width: 856
VWidth: 0
GlyphClass: 2
Flags: HMW
LayerCount: 2
Fore
SplineSet
70 664 m 1
 815 664 l 1
 767 350 l 1
 658 332 l 1
 694 558 l 1
 42 558 l 1
 70 664 l 1
EndSplineSet
Colour: ffffff
EndChar

StartChar: softhyphen
Encoding: 109 173 108
Width: 529
VWidth: 0
GlyphClass: 2
Flags: HMW
LayerCount: 2
Fore
SplineSet
68 522 m 1
 486 581 l 1
 460 466 l 1
 42 406 l 1
 68 522 l 1
EndSplineSet
Colour: ffffff
EndChar

StartChar: registered
Encoding: 110 174 109
Width: 1052
VWidth: 0
GlyphClass: 2
Flags: HMW
LayerCount: 2
Fore
SplineSet
239.15 776.9 m 1
 245.9 824.601 l 1
 326 852.95 l 1
 326 1248.5 l 1
 244.55 1265.6 l 1
 249.5 1319.15 l 1
 315.2 1329.5 428.6 1341.2 495.2 1341.2 c 0
 647.75 1341.2 740 1304.3 740 1193.6 c 0
 740 1123.4 681.15 1051.3 614.55 1027.9 c 1
 613.9 1026 l 5
 691.5 935.2 l 2
 741.9 877 760.979 862.651 811.2 839.4 c 2
 827.4 831.9 l 1
 817.05 776.9 l 1
 797.7 770.601 766.5 766.101 735 766.101 c 0
 644.1 766.101 602.404 822.362 552.5 917.5 c 2
 508.7 1001 l 1
 452.9 1001 l 1
 452.9 857 l 1
 527.15 830.45 l 1
 522.2 776.9 l 1
 239.15 776.9 l 1
452.9 1068.5 m 1
 531.65 1068.5 l 1
 571.25 1085.6 603.2 1117.1 603.2 1170.2 c 0
 603.2 1232.75 560 1271.8 487.1 1271.8 c 0
 469.1 1271.8 455.6 1270.45 452.9 1270.45 c 1
 452.9 1068.5 l 1
39 1022.5 m 0
 39 1344 250 1522.5 518 1522.5 c 0
 794 1522.5 1013 1352 1013 1026.5 c 0
 1013 716 790 540.5 508 540.5 c 0
 246 540.5 39 724 39 1022.5 c 0
127 1036.5 m 0
 127 776 298 616.5 516 616.5 c 0
 744 616.5 925 784 925 1016.5 c 0
 925 1280 744 1446.5 518 1446.5 c 0
 296 1446.5 127 1300 127 1036.5 c 0
EndSplineSet
Colour: ffffff
EndChar

StartChar: macron
Encoding: 111 175 110
Width: 563
VWidth: 1655
GlyphClass: 2
Flags: HMW
LayerCount: 2
Fore
SplineSet
72 1450 m 1
 504 1450 l 1
 491 1351 l 1
 59 1351 l 1
 72 1450 l 1
EndSplineSet
Colour: ffffff
EndChar

StartChar: degree
Encoding: 112 176 111
Width: 413
VWidth: 1655
GlyphClass: 2
Flags: HMW
LayerCount: 2
Fore
SplineSet
328 1243 m 128
 356 1213 369 1173 369 1125 c 128
 369 1077 353 1036 322 1002 c 128
 291 968 251 951 203 951 c 128
 155 951 117 966 88 996 c 128
 59 1026 45 1065 45 1114 c 128
 45 1163 62 1203 95 1237 c 128
 128 1271 169 1288 216 1288 c 128
 263 1288 300 1273 328 1243 c 128
139 1210 m 128
 124 1189 117 1160 117 1126 c 128
 117 1092 125 1062 142 1037 c 128
 159 1012 182 999 211 999 c 0
 270 999 299 1037 300 1113 c 0
 300 1150 291 1181 273 1205 c 128
 255 1229 232 1241 204 1241 c 128
 176 1241 154 1231 139 1210 c 128
EndSplineSet
Colour: ffffff
EndChar

StartChar: plusminus
Encoding: 113 177 112
Width: 741
VWidth: 0
GlyphClass: 2
Flags: HMW
LayerCount: 2
Fore
SplineSet
55.5273 117 m 1
 667.419 124 l 1
 650.891 20 l 1
 39 13 l 1
 55.5273 117 l 1
EndSplineSet
Refer: 11 43 S 1 0 -4.47035e-07 1 114.23 81 2
Colour: ffffff
EndChar

StartChar: two.superior
Encoding: 114 178 113
Width: 711
VWidth: 0
GlyphClass: 2
Flags: HMW
LayerCount: 2
Fore
SplineSet
65.9463 638 m 1
 240.427 761 l 1
 377.842 860.438 466.742 928.414 466.742 1056.71 c 0
 466.742 1109.26 447.824 1153 376.514 1153 c 0
 327.514 1153 283.396 1127 263.328 1095 c 1
 220.896 966 l 1
 153.688 971 l 1
 165.614 1141 l 1
 218.809 1218 355.986 1257 456.986 1257 c 0
 594.925 1257 671.277 1201.73 671.277 1104.38 c 0
 671.277 922.489 481.202 804.898 298.132 696 c 2
 224.164 652 l 1
 494.164 652 l 1
 597.396 805 l 1
 651.071 784 l 1
 592 531 l 1
 41 531 l 1
 65.9463 638 l 1
EndSplineSet
Colour: ffffff
EndChar

StartChar: three.superior
Encoding: 115 179 114
Width: 684
VWidth: 0
GlyphClass: 2
Flags: HMW
LayerCount: 2
Fore
SplineSet
40 563 m 1
 101.517 762 l 1
 175.251 754 l 1
 161.869 619 l 1
 176.543 598 211.534 579 254.534 579 c 0
 348.181 579 428.836 639.22 428.836 733.142 c 0
 428.836 797.666 357.164 849 244.298 849 c 1
 237.642 908 l 1
 292.352 924.291 449.06 975.102 449.06 1092.15 c 0
 449.06 1141.95 421.868 1189 359.148 1189 c 0
 328.148 1189 296.673 1186 272.664 1167 c 1
 223.798 1010 l 1
 148.748 1016 l 1
 163.831 1187 l 1
 201.801 1231 324.402 1279 427.402 1279 c 0
 552.11 1279 643.648 1231.21 643.648 1140.37 c 0
 643.648 1018.9 535.814 955.477 432.651 927 c 1
 431.543 920 l 1
 559.426 906.55 622.93 852.098 622.93 766.735 c 0
 622.93 604.157 430.867 495 237.229 495 c 0
 142.229 495 53.3477 521 40 563 c 1
EndSplineSet
Colour: ffffff
EndChar

StartChar: acute
Encoding: 116 180 115
Width: 346
VWidth: 1655
GlyphClass: 2
Flags: HMW
LayerCount: 2
Fore
SplineSet
288 1633 m 1
 108 1322 l 1
 58 1352 l 1
 177 1671 l 1
 288 1633 l 1
EndSplineSet
Colour: ffffff
EndChar

StartChar: micro
Encoding: 117 181 116
Width: 988
VWidth: 1655
GlyphClass: 2
Flags: HMW
LayerCount: 2
Fore
SplineSet
200 738 m 1
 69 792 l 1
 92 874 l 1
 364 895 l 1
 384 871 l 1
 316 317 l 2
 314 299 313 282 312 264 c 0
 312 159 357 107 447 106 c 0
 474 106 495 108 510 114 c 128
 525 120 535 123 542 125 c 128
 549 127 559 132 571 140 c 128
 583 148 590 152 594 154 c 0
 621 170 637 180 644 188 c 1
 710 734 l 1
 555 775 l 1
 576 867 l 1
 876 895 l 1
 892 871 l 1
 814 214 l 1
 811 178 l 1
 811 144 819 122 838 111 c 128
 857 100 879 94 906 88 c 1
 950 78 l 1
 930 -7 l 1
 873 -20 823 -26 779 -26 c 128
 735 -26 701 -15 679 7 c 128
 657 29 646 59 646 98 c 0
 646 103 646 106 648 108 c 1
 648 121 l 2
 648 123 648 123 649 125 c 1
 649 129 l 1
 637 129 l 1
 530 26 427 -26 328 -26 c 0
 266 -26 222 -4 196 39 c 1
 190 39 l 1
 190 -16 l 2
 190 -51 190 -74 188 -86 c 2
 168 -390 l 1
 38 -364 l 1
 101 -2 145 284 170 495 c 2
 200 738 l 1
EndSplineSet
Colour: ffffff
EndChar

StartChar: paragraph
Encoding: 118 182 117
Width: 1336
VWidth: 0
GlyphClass: 2
Flags: HMW
LayerCount: 2
Fore
SplineSet
553.112 1245 m 2
 899.114 1245 l 1
 701.924 0 l 1
 295.924 0 l 1
 314.645 74 l 1
 563.088 121 l 1
 726.383 1152 l 1
 686.541 1153 629.699 1154 619.699 1154 c 0
 387.019 1154 249.166 1039.23 249.166 816.553 c 0
 249.166 675.835 328.32 546 517.402 546 c 9
 483.88 448 l 1
 246.015 448 38 551.091 38 785.08 c 0
 38 1071.96 293.218 1245 553.112 1245 c 2
780.924 0 m 1
 978.114 1245 l 1
 1298.11 1245 l 1
 1276.91 1168 l 1
 1100.89 1130 l 1
 939.984 114 l 1
 1115.59 80 l 1
 1092.92 0 l 1
 780.924 0 l 1
EndSplineSet
Colour: ffffff
EndChar

StartChar: periodcentered
Encoding: 119 183 118
Width: 327
VWidth: 1655
GlyphClass: 2
Flags: HMW
LayerCount: 2
Fore
SplineSet
79 419 m 128
 55 444 43 473 43 507 c 128
 43 541 55 568 78 589 c 128
 101 610 130 620 163 620 c 128
 196 620 224 608 248 586 c 128
 272 564 284 537 284 504 c 128
 284 471 272 443 248 418 c 128
 224 393 196 381 163 381 c 128
 130 381 103 394 79 419 c 128
EndSplineSet
Colour: ffffff
EndChar

StartChar: cedilla
Encoding: 120 184 119
Width: 305
VWidth: 1655
GlyphClass: 2
Flags: HMW
LayerCount: 2
Fore
SplineSet
173 -75 m 1
 232 -126 261 -174 260 -221 c 0
 260 -290 195 -343 65 -381 c 1
 45 -323 l 1
 101 -303 129 -276 129 -242 c 0
 129 -215 105 -179 58 -134 c 1
 153 3 l 1
 227 3 l 1
 173 -75 l 1
EndSplineSet
Colour: ffffff
EndChar

StartChar: one.superior
Encoding: 121 185 120
Width: 582
VWidth: 0
GlyphClass: 2
Flags: HMW
LayerCount: 2
Fore
SplineSet
40 531 m 5
 55.7188 605 l 5
 212.679 630 l 5
 290.604 1122 l 5
 145.604 1122 l 5
 161.8 1199 l 5
 471.085 1245 l 5
 490.085 1245 l 5
 392.204 627 l 5
 542.145 614 l 5
 523 531 l 5
 40 531 l 5
EndSplineSet
Colour: ffffff
EndChar

StartChar: ordmasculine
Encoding: 122 186 121
Width: 800
VWidth: 0
GlyphClass: 2
Flags: HMW
LayerCount: 2
Fore
SplineSet
476.199 1258 m 0
 658.466 1258 760.084 1144.33 760.084 969.448 c 0
 760.084 697.528 556.487 514 337.961 514 c 0
 141.206 514 40 634.545 40 802.837 c 0
 40 1090.28 271.548 1258 476.199 1258 c 0
215.628 810.639 m 0
 215.628 691.238 243.446 593.6 369.152 593.6 c 0
 526.234 593.6 582.444 784.34 582.444 948.204 c 0
 582.444 1067.75 547.084 1175 427.195 1175 c 0
 264.511 1175 215.628 984.086 215.628 810.639 c 0
EndSplineSet
Colour: ffffff
EndChar

StartChar: onequarter
Encoding: 124 188 123
Width: 1385
VWidth: 0
GlyphClass: 2
Flags: HMW
LayerCount: 2
Fore
SplineSet
742 270 m 1
 1226 737 l 1
 1281 726 l 1
 1261 641 1243 542 1225 430 c 2
 1200 272 l 1
 1348 272 l 1
 1324 175 l 1
 1185 175 l 1
 1170 83 l 1
 1289 65 l 1
 1272 0 l 1
 858 0 l 1
 871 58 l 1
 1012 85 l 1
 1027 178 l 1
 740 178 l 1
 742 270 l 1
849 272 m 1
 1039 272 l 1
 1077 508 l 1
 849 272 l 1
38 531 m 1
 54 605 l 1
 211 630 l 1
 289 1122 l 1
 144 1122 l 1
 160 1199 l 1
 469 1245 l 1
 488 1245 l 1
 391 627 l 1
 540 614 l 1
 521 531 l 1
 38 531 l 1
164 -10 m 1
 665 588 l 1
 1155 1210 l 1
 1330 1207 l 1
 1324 1178 l 1
 830 591 l 1
 360 -32 l 1
 164 -10 l 1
EndSplineSet
Colour: ffffff
EndChar

StartChar: onehalf
Encoding: 125 189 124
Width: 1459
VWidth: 0
GlyphClass: 2
Flags: HMW
LayerCount: 2
Fore
SplineSet
815 109 m 1
 990 232 l 2
 1024 256 1049 276 1067 290 c 128
 1085 304 1106 320 1128 341 c 128
 1150 362 1166 381 1177 398 c 128
 1188 415 1197 433 1205 456 c 128
 1213 479 1216 503 1216 528 c 0
 1216 592 1186 624 1126 624 c 0
 1102 624 1080 618 1059 607 c 128
 1038 596 1023 583 1012 566 c 1
 970 437 l 1
 903 442 l 1
 915 612 l 1
 940 648 981 676 1038 697 c 128
 1095 718 1151 728 1206 728 c 0
 1275 728 1328 715 1365 688 c 128
 1402 661 1421 624 1421 575 c 0
 1421 550 1417 526 1409 501 c 128
 1401 476 1391 454 1379 434 c 128
 1367 414 1352 394 1331 372 c 128
 1310 350 1290 333 1272 317 c 128
 1254 301 1230 284 1201 264 c 128
 1172 244 1146 228 1126 215 c 128
 1106 202 1081 187 1048 167 c 2
 973 123 l 1
 1243 123 l 1
 1347 276 l 1
 1400 255 l 1
 1341 2 l 1
 791 2 l 1
 815 109 l 1
38 531 m 1
 54 605 l 1
 211 630 l 1
 289 1122 l 1
 144 1122 l 1
 160 1199 l 1
 469 1245 l 1
 488 1245 l 1
 391 627 l 1
 540 614 l 1
 521 531 l 1
 38 531 l 1
144 -10 m 1
 645 588 l 1
 1135 1210 l 1
 1310 1207 l 1
 1304 1178 l 1
 810 591 l 1
 340 -32 l 1
 144 -10 l 1
EndSplineSet
Colour: ffffff
EndChar

StartChar: threequarters
Encoding: 126 190 125
Width: 1361
VWidth: 0
GlyphClass: 2
Flags: HMW
LayerCount: 2
Fore
SplineSet
38 546 m 5
 99 745 l 5
 173 737 l 5
 159 602 l 5
 167 591 179 582 196 574 c 132
 213 566 231 562 252 562 c 4
 300 562 342 576 376 605 c 132
 410 634 426 670 426 716 c 4
 426 749 410 777 376 799 c 132
 342 821 297 832 242 832 c 5
 235 891 l 5
 251 896 265 900 279 905 c 132
 293 910 310 918 332 929 c 132
 354 940 374 951 389 964 c 132
 404 977 417 992 429 1012 c 132
 441 1032 446 1053 446 1075 c 4
 446 1102 439 1125 424 1144 c 132
 409 1163 386 1172 356 1172 c 4
 317 1172 289 1165 270 1150 c 5
 221 993 l 5
 146 999 l 5
 161 1170 l 5
 181 1193 218 1214 271 1233 c 132
 324 1252 375 1262 425 1262 c 4
 489 1262 541 1250 581 1226 c 132
 621 1202 641 1167 641 1123 c 4
 641 1094 635 1067 623 1043 c 132
 611 1019 595 998 574 981 c 132
 553 964 531 951 507 939 c 132
 483 927 458 918 430 910 c 5
 429 903 l 5
 492 896 540 880 572 854 c 132
 604 828 621 793 621 750 c 4
 621 698 602 650 564 608 c 132
 526 566 478 534 420 512 c 132
 362 490 299 478 234 478 c 4
 185 478 142 484 104 497 c 132
 66 510 45 525 38 546 c 5
153 -10 m 5
 655 588 l 5
 1145 1210 l 5
 1320 1207 l 5
 1314 1178 l 5
 820 591 l 5
 350 -32 l 5
 153 -10 l 5
718 270 m 5
 1202 737 l 5
 1257 726 l 5
 1237 641 1219 542 1201 430 c 6
 1176 272 l 5
 1324 272 l 5
 1300 175 l 5
 1161 175 l 5
 1146 83 l 5
 1265 65 l 5
 1248 0 l 5
 834 0 l 5
 847 58 l 5
 988 85 l 5
 1003 178 l 5
 716 178 l 5
 718 270 l 5
825 272 m 5
 1015 272 l 5
 1053 508 l 5
 825 272 l 5
EndSplineSet
Colour: ffffff
EndChar

StartChar: questiondown
Encoding: 127 191 126
Width: 627
VWidth: 1655
GlyphClass: 2
Flags: HMW
LayerCount: 2
Fore
SplineSet
385 778 m 1
 375 791 371 802 368 813 c 128
 365 824 364 831 364 836 c 128
 364 841 366 857 372 884 c 128
 378 911 392 937 415 959 c 128
 438 981 464 992 495 992 c 1
 522 990 542 981 557 964 c 128
 572 947 581 932 584 914 c 128
 587 896 589 887 589 885 c 128
 589 883 587 871 582 848 c 128
 577 825 564 803 541 780 c 128
 518 757 495 745 471 744 c 128
 447 743 431 745 420 750 c 128
 409 755 398 764 385 778 c 1
509 453 m 1
 514 401 l 1
 514 361 502 326 479 295 c 128
 456 264 434 241 410 225 c 128
 386 209 355 195 318 180 c 128
 281 165 253 152 235 141 c 128
 217 130 198 113 179 91 c 128
 160 69 149 43 145 14 c 1
 145 7 l 1
 143 3 143 1 144 -3 c 0
 144 -56 168 -101 216 -136 c 1
 236 -149 258 -156 281 -160 c 1
 291 -160 l 1
 293 -162 298 -162 306 -162 c 128
 314 -162 331 -159 357 -151 c 0
 416 -135 459 -114 485 -89 c 1
 496 -94 506 -101 516 -113 c 1
 534 -133 542 -151 542 -169 c 128
 542 -187 542 -196 540 -200 c 1
 532 -248 501 -285 446 -311 c 0
 414 -327 380 -334 345 -334 c 2
 323 -334 l 1
 264 -330 213 -312 169 -278 c 128
 125 -244 92 -199 70 -146 c 128
 48 -93 38 -44 38 -1 c 128
 38 42 40 73 45 93 c 0
 58 156 91 211 145 258 c 1
 176 283 198 299 213 305 c 0
 236 315 250 319 255 321 c 128
 260 323 265 325 272 328 c 128
 279 331 282 331 284 332 c 128
 286 333 289 334 295 337 c 128
 301 340 303 341 306 343 c 128
 310 345 310 345 317 349 c 128
 322 352 325 353 328 355 c 128
 331 357 334 359 338 362 c 0
 348 370 357 380 368 392 c 0
 386 412 395 443 395 484 c 2
 395 505 l 1
 393 512 393 517 393 521 c 128
 393 525 392 542 389 571 c 1
 465 587 l 1
 489 528 503 484 509 453 c 1
EndSplineSet
Colour: ffffff
EndChar

StartChar: Agrave
Encoding: 128 192 127
Width: 1314
VWidth: 1655
GlyphClass: 2
Flags: HMW
LayerCount: 2
Fore
SplineSet
835 505 m 1
 747 1062 l 1
 743 1062 l 1
 646 724 l 1
 617 627 597 564 587 536 c 1
 835 505 l 1
889 1271 m 1
 1099 132 l 1
 1277 81 l 1
 1254 0 l 1
 678 0 l 1
 701 72 l 1
 899 108 l 1
 848 430 l 1
 556 446 l 1
 507 310 466 215 433 157 c 128
 400 99 370 56 342 29 c 128
 314 2 279 -16 240 -24 c 1
 222 -26 213 -27 209 -28 c 0
 171 -28 136 -16 104 8 c 128
 72 32 49 62 36 101 c 1
 86 120 131 142 170 168 c 1
 239 213 303 274 362 349 c 0
 439 450 512 596 581 786 c 1
 636 947 680 1098 711 1241 c 1
 889 1271 l 1
610 1655 m 1
 724 1693 l 1
 853 1365 l 1
 796 1332 l 1
 610 1655 l 1
EndSplineSet
Colour: ffffff
EndChar

StartChar: Aacute
Encoding: 129 193 128
Width: 1314
VWidth: 1655
GlyphClass: 2
Flags: HMW
LayerCount: 2
Fore
SplineSet
835 505 m 1
 747 1062 l 1
 743 1062 l 1
 646 724 l 1
 617 627 597 564 587 536 c 1
 835 505 l 1
889 1271 m 1
 1099 132 l 1
 1277 81 l 1
 1254 0 l 1
 678 0 l 1
 701 72 l 1
 899 108 l 1
 848 430 l 1
 556 446 l 1
 507 310 466 215 433 157 c 128
 400 99 370 56 342 29 c 128
 314 2 279 -16 240 -24 c 1
 222 -26 213 -27 209 -28 c 0
 171 -28 136 -16 104 8 c 128
 72 32 49 62 36 101 c 1
 86 120 131 142 170 168 c 1
 239 213 303 274 362 349 c 0
 439 450 512 596 581 786 c 1
 636 947 680 1098 711 1241 c 1
 889 1271 l 1
1031 1661 m 1
 852 1351 l 1
 801 1382 l 1
 922 1701 l 1
 1031 1661 l 1
EndSplineSet
Colour: ffffff
EndChar

StartChar: Acircumflex
Encoding: 130 194 129
Width: 1314
VWidth: 1655
GlyphClass: 2
Flags: HMW
LayerCount: 2
Fore
SplineSet
835 505 m 1
 747 1062 l 1
 743 1062 l 1
 646 724 l 1
 617 627 597 564 587 536 c 1
 835 505 l 1
889 1271 m 1
 1099 132 l 1
 1277 81 l 1
 1254 0 l 1
 678 0 l 1
 701 72 l 1
 899 108 l 1
 848 430 l 1
 556 446 l 1
 507 310 466 215 433 157 c 128
 400 99 370 56 342 29 c 128
 314 2 279 -16 240 -24 c 1
 222 -26 213 -27 209 -28 c 0
 171 -28 136 -16 104 8 c 128
 72 32 49 62 36 101 c 1
 86 120 131 142 170 168 c 1
 239 213 303 274 362 349 c 0
 439 450 512 596 581 786 c 1
 636 947 680 1098 711 1241 c 1
 889 1271 l 1
832 1577 m 1
 1007 1396 l 1
 959 1361 l 1
 798 1468 l 1
 788 1468 l 1
 650 1359 l 1
 613 1388 l 1
 779 1564 l 1
 832 1577 l 1
EndSplineSet
Colour: ffffff
EndChar

StartChar: Atilde
Encoding: 131 195 130
Width: 1314
VWidth: 1655
GlyphClass: 2
Flags: HMW
LayerCount: 2
Fore
SplineSet
835 505 m 1
 747 1062 l 1
 743 1062 l 1
 646 724 l 1
 617 627 597 564 587 536 c 1
 835 505 l 1
889 1271 m 1
 1099 132 l 1
 1277 81 l 1
 1254 0 l 1
 678 0 l 1
 701 72 l 1
 899 108 l 1
 848 430 l 1
 556 446 l 1
 507 310 466 215 433 157 c 128
 400 99 370 56 342 29 c 128
 314 2 279 -16 240 -24 c 1
 222 -26 213 -27 209 -28 c 0
 171 -28 136 -16 104 8 c 128
 72 32 49 62 36 101 c 1
 86 120 131 142 170 168 c 1
 239 213 303 274 362 349 c 0
 439 450 512 596 581 786 c 1
 636 947 680 1098 711 1241 c 1
 889 1271 l 1
678 1419 m 2
 661 1419 642 1403 620 1372 c 1
 582 1380 l 1
 584 1387 587 1397 591 1411 c 128
 595 1425 603 1441 617 1462 c 0
 642 1501 670 1521 703 1522 c 2
 710 1522 l 1
 712 1520 714 1520 716 1520 c 2
 934 1490 l 1
 938 1490 l 2
 952 1490 970 1504 992 1531 c 1
 1040 1529 l 1
 1009 1435 966 1388 912 1388 c 2
 901 1388 l 1
 682 1419 l 1
 678 1419 l 2
EndSplineSet
Colour: ffffff
EndChar

StartChar: Adieresis
Encoding: 132 196 131
Width: 1314
VWidth: 1655
GlyphClass: 2
Flags: HMW
LayerCount: 2
Fore
SplineSet
835 505 m 1
 747 1062 l 1
 743 1062 l 1
 646 724 l 1
 617 627 597 564 587 536 c 1
 835 505 l 1
889 1271 m 1
 1099 132 l 1
 1277 81 l 1
 1254 0 l 1
 678 0 l 1
 701 72 l 1
 899 108 l 1
 848 430 l 1
 556 446 l 1
 507 310 466 215 433 157 c 128
 400 99 370 56 342 29 c 128
 314 2 279 -16 240 -24 c 1
 222 -26 213 -27 209 -28 c 0
 171 -28 136 -16 104 8 c 128
 72 32 49 62 36 101 c 1
 86 120 131 142 170 168 c 1
 239 213 303 274 362 349 c 0
 439 450 512 596 581 786 c 1
 636 947 680 1098 711 1241 c 1
 889 1271 l 1
1001 1519 m 128
 1018 1504 1026 1486 1026 1464 c 128
 1026 1442 1018 1424 1001 1408 c 128
 984 1392 964 1385 941 1385 c 128
 918 1385 898 1392 882 1408 c 128
 866 1424 858 1443 858 1465 c 128
 858 1488 866 1504 882 1519 c 128
 898 1534 918 1541 941 1541 c 128
 964 1541 984 1534 1001 1519 c 128
739 1519 m 128
 756 1504 763 1486 763 1464 c 128
 763 1442 756 1423 739 1408 c 128
 722 1393 702 1385 679 1385 c 128
 656 1385 638 1392 621 1408 c 128
 604 1424 596 1443 596 1465 c 128
 596 1488 604 1504 621 1519 c 128
 638 1534 656 1541 679 1541 c 128
 702 1541 722 1534 739 1519 c 128
EndSplineSet
Colour: ffffff
EndChar

StartChar: Aring
Encoding: 133 197 132
Width: 1314
VWidth: 1655
GlyphClass: 2
Flags: HMW
LayerCount: 2
Fore
SplineSet
835 505 m 1
 747 1062 l 1
 743 1062 l 1
 646 724 l 1
 617 627 597 564 587 536 c 1
 835 505 l 1
889 1271 m 1
 1099 132 l 1
 1277 81 l 1
 1254 0 l 1
 678 0 l 1
 701 72 l 1
 899 108 l 1
 848 430 l 1
 556 446 l 1
 507 310 466 215 433 157 c 128
 400 99 370 56 342 29 c 128
 314 2 279 -16 240 -24 c 1
 222 -26 213 -27 209 -28 c 0
 171 -28 136 -16 104 8 c 128
 72 32 49 62 36 101 c 1
 86 120 131 142 170 168 c 1
 239 213 303 274 362 349 c 0
 439 450 512 596 581 786 c 1
 636 947 680 1098 711 1241 c 1
 889 1271 l 1
745 1615 m 128
 729 1594 722 1568 722 1535 c 128
 722 1502 730 1473 748 1448 c 128
 766 1423 788 1410 815 1410 c 0
 871 1411 899 1448 901 1523 c 0
 901 1558 893 1587 875 1611 c 128
 857 1635 835 1647 808 1647 c 128
 781 1647 761 1636 745 1615 c 128
928 1649 m 128
 956 1619 971 1582 971 1535 c 128
 971 1488 955 1448 923 1414 c 128
 891 1380 852 1363 806 1363 c 128
 760 1363 722 1378 694 1408 c 128
 666 1438 652 1476 652 1523 c 128
 652 1570 668 1609 701 1643 c 128
 734 1677 773 1694 818 1694 c 128
 863 1694 900 1679 928 1649 c 128
EndSplineSet
Colour: ffffff
EndChar

StartChar: AE
Encoding: 134 198 133
Width: 1509
VWidth: 1655
GlyphClass: 2
Flags: HMW
LayerCount: 2
Fore
SplineSet
767 507 m 1
 747 1064 l 1
 741 1064 l 1
 647 726 l 1
 631 671 611 607 586 534 c 1
 767 507 l 1
1462 430 m 1
 1467 412 1469 375 1469 317 c 0
 1469 187 1449 81 1409 0 c 1
 1382 0 l 2
 1351 0 1326 0 1305 2 c 1
 1080 2 l 2
 1027 2 988 2 964 3 c 1
 792 3 l 1
 539 -3 l 1
 562 80 l 1
 779 134 l 1
 769 432 l 1
 557 444 l 1
 506 307 463 208 428 146 c 1
 395 91 365 52 339 26 c 128
 313 0 285 -16 257 -21 c 128
 229 -26 214 -28 210 -28 c 0
 173 -28 138 -16 105 8 c 128
 72 32 50 63 36 101 c 1
 86 120 131 142 171 168 c 1
 237 210 300 270 361 349 c 1
 470 495 573 733 668 1066 c 1
 684 1119 698 1178 710 1241 c 1
 1453 1280 l 1
 1413 862 l 1
 1326 869 l 1
 1270 1125 l 1
 1240 1128 l 1
 1167 1135 1071 1139 952 1142 c 1
 920 1143 l 1
 940 681 l 1
 1307 698 l 1
 1268 557 l 1
 945 578 l 1
 973 101 l 1
 1058 108 l 2
 1172 120 1239 127 1260 132 c 1
 1280 157 1303 203 1328 270 c 128
 1353 337 1368 391 1375 434 c 1
 1462 430 l 1
EndSplineSet
Colour: ffffff
EndChar

StartChar: Ccedilla
Encoding: 135 199 134
Width: 1012
VWidth: 1655
GlyphClass: 2
Flags: HMW
LayerCount: 2
Fore
SplineSet
558 -75 m 1
 617 -126 646 -174 645 -221 c 0
 645 -290 580 -343 450 -381 c 1
 430 -323 l 1
 486 -303 514 -276 515 -242 c 0
 515 -215 491 -179 443 -134 c 1
 517 -30 l 1
 494 -30 l 2
 455 -30 413 -24 368 -12 c 1
 275 17 199 71 138 151 c 128
 77 231 45 332 39 455 c 1
 39 471 l 1
 37 477 37 482 37 488 c 0
 37 707 108 899 250 1064 c 1
 360 1192 490 1255 640 1254 c 0
 788 1254 891 1197 950 1085 c 1
 968 1055 976 1021 975 982 c 2
 975 971 l 1
 974 932 962 897 938 865 c 128
 914 833 887 814 858 806 c 128
 829 798 807 794 790 794 c 128
 773 794 757 796 741 802 c 1
 750 847 754 885 754 917 c 128
 754 949 752 978 747 1005 c 0
 737 1058 703 1097 644 1123 c 1
 621 1132 592 1136 555 1134 c 128
 518 1132 479 1117 437 1087 c 128
 395 1057 361 1018 336 971 c 0
 293 894 268 785 259 641 c 0
 257 604 256 583 256 578 c 0
 256 405 300 278 388 196 c 0
 440 148 501 124 570 125 c 0
 612 125 652 133 691 149 c 128
 730 165 765 190 798 223 c 128
 831 256 854 285 870 310 c 1
 912 248 l 1
 898 213 878 177 849 142 c 0
 788 69 712 19 623 -10 c 0
 612 -14 604 -15 598 -16 c 1
 558 -75 l 1
EndSplineSet
Colour: ffffff
EndChar

StartChar: Egrave
Encoding: 136 200 135
Width: 1262
VWidth: 1655
GlyphClass: 2
Flags: HMW
LayerCount: 2
Fore
SplineSet
1086 0 m 1
 718 2 511 3 468 3 c 1
 36 -3 l 1
 59 80 l 1
 277 134 l 1
 402 1094 l 1
 175 1117 l 1
 195 1194 l 1
 268 1209 376 1221 521 1233 c 128
 666 1245 802 1250 928 1250 c 2
 1001 1250 l 1
 1225 1246 l 1
 1145 835 l 1
 1059 848 l 1
 1027 1111 l 1
 999 1117 l 1
 898 1136 775 1145 630 1143 c 2
 597 1143 l 1
 542 680 l 1
 997 712 l 1
 963 569 l 1
 530 578 l 1
 468 99 l 1
 685 108 l 1
 807 115 891 122 936 132 c 1
 959 169 985 222 1016 292 c 128
 1047 362 1066 415 1076 451 c 1
 1163 440 l 1
 1163 434 l 2
 1163 345 1156 262 1142 182 c 128
 1128 102 1110 41 1086 0 c 1
627 1655 m 1
 740 1693 l 1
 869 1365 l 1
 813 1332 l 1
 627 1655 l 1
EndSplineSet
Colour: ffffff
EndChar

StartChar: Eacute
Encoding: 137 201 136
Width: 1262
VWidth: 1655
GlyphClass: 2
Flags: HMW
LayerCount: 2
Fore
SplineSet
1086 0 m 1
 718 2 511 3 468 3 c 1
 36 -3 l 1
 59 80 l 1
 277 134 l 1
 402 1094 l 1
 175 1117 l 1
 195 1194 l 1
 268 1209 376 1221 521 1233 c 128
 666 1245 802 1250 928 1250 c 2
 1001 1250 l 1
 1225 1246 l 1
 1145 835 l 1
 1059 848 l 1
 1027 1111 l 1
 999 1117 l 1
 898 1136 775 1145 630 1143 c 2
 597 1143 l 1
 542 680 l 1
 997 712 l 1
 963 569 l 1
 530 578 l 1
 468 99 l 1
 685 108 l 1
 807 115 891 122 936 132 c 1
 959 169 985 222 1016 292 c 128
 1047 362 1066 415 1076 451 c 1
 1163 440 l 1
 1163 434 l 2
 1163 345 1156 262 1142 182 c 128
 1128 102 1110 41 1086 0 c 1
1047 1661 m 1
 867 1351 l 1
 818 1382 l 1
 937 1701 l 1
 1047 1661 l 1
EndSplineSet
Colour: ffffff
EndChar

StartChar: Ecircumflex
Encoding: 138 202 137
Width: 1262
VWidth: 1655
GlyphClass: 2
Flags: HMW
LayerCount: 2
Fore
SplineSet
1086 0 m 1
 718 2 511 3 468 3 c 1
 36 -3 l 1
 59 80 l 1
 277 134 l 1
 402 1094 l 1
 175 1117 l 1
 195 1194 l 1
 268 1209 376 1221 521 1233 c 128
 666 1245 802 1250 928 1250 c 2
 1001 1250 l 1
 1225 1246 l 1
 1145 835 l 1
 1059 848 l 1
 1027 1111 l 1
 999 1117 l 1
 898 1136 775 1145 630 1143 c 2
 597 1143 l 1
 542 680 l 1
 997 712 l 1
 963 569 l 1
 530 578 l 1
 468 99 l 1
 685 108 l 1
 807 115 891 122 936 132 c 1
 959 169 985 222 1016 292 c 128
 1047 362 1066 415 1076 451 c 1
 1163 440 l 1
 1163 434 l 2
 1163 345 1156 262 1142 182 c 128
 1128 102 1110 41 1086 0 c 1
848 1577 m 1
 1023 1396 l 1
 974 1361 l 1
 814 1468 l 1
 804 1468 l 1
 667 1359 l 1
 630 1388 l 1
 794 1564 l 1
 848 1577 l 1
EndSplineSet
Colour: ffffff
EndChar

StartChar: Edieresis
Encoding: 139 203 138
Width: 1262
VWidth: 1655
GlyphClass: 2
Flags: HMW
LayerCount: 2
Fore
SplineSet
1086 0 m 1
 718 2 511 3 468 3 c 1
 36 -3 l 1
 59 80 l 1
 277 134 l 1
 402 1094 l 1
 175 1117 l 1
 195 1194 l 1
 268 1209 376 1221 521 1233 c 128
 666 1245 802 1250 928 1250 c 2
 1001 1250 l 1
 1225 1246 l 1
 1145 835 l 1
 1059 848 l 1
 1027 1111 l 1
 999 1117 l 1
 898 1136 775 1145 630 1143 c 2
 597 1143 l 1
 542 680 l 1
 997 712 l 1
 963 569 l 1
 530 578 l 1
 468 99 l 1
 685 108 l 1
 807 115 891 122 936 132 c 1
 959 169 985 222 1016 292 c 128
 1047 362 1066 415 1076 451 c 1
 1163 440 l 1
 1163 434 l 2
 1163 345 1156 262 1142 182 c 128
 1128 102 1110 41 1086 0 c 1
1017 1519 m 128
 1035 1504 1043 1486 1043 1464 c 128
 1043 1442 1035 1424 1017 1408 c 128
 999 1392 980 1385 957 1385 c 128
 934 1385 915 1392 898 1408 c 128
 881 1424 874 1443 874 1465 c 128
 874 1488 881 1504 898 1519 c 128
 915 1534 934 1541 957 1541 c 128
 980 1541 999 1534 1017 1519 c 128
753 1519 m 128
 770 1504 778 1486 778 1464 c 128
 778 1442 770 1423 753 1408 c 128
 736 1393 718 1385 695 1385 c 128
 672 1385 652 1392 635 1408 c 128
 618 1424 611 1443 611 1465 c 128
 611 1488 618 1504 635 1519 c 128
 652 1534 672 1541 695 1541 c 128
 718 1541 736 1534 753 1519 c 128
EndSplineSet
Colour: ffffff
EndChar

StartChar: Igrave
Encoding: 140 204 139
Width: 850
VWidth: 1655
GlyphClass: 2
Flags: HMW
LayerCount: 2
Fore
SplineSet
662 0 m 1
 36 0 l 1
 54 78 l 1
 277 129 l 1
 400 1090 l 1
 174 1123 l 1
 193 1199 l 1
 341 1230 495 1246 657 1246 c 0
 698 1246 750 1244 813 1239 c 1
 794 1164 l 1
 595 1142 l 1
 468 106 l 1
 686 81 l 1
 662 0 l 1
338 1650 m 1
 452 1687 l 1
 581 1361 l 1
 525 1327 l 1
 338 1650 l 1
EndSplineSet
Colour: ffffff
EndChar

StartChar: Iacute
Encoding: 141 205 140
Width: 850
VWidth: 1655
GlyphClass: 2
Flags: HMW
LayerCount: 2
Fore
SplineSet
662 0 m 1
 36 0 l 1
 54 78 l 1
 277 129 l 1
 400 1090 l 1
 174 1123 l 1
 193 1199 l 1
 341 1230 495 1246 657 1246 c 0
 698 1246 750 1244 813 1239 c 1
 794 1164 l 1
 595 1142 l 1
 468 106 l 1
 686 81 l 1
 662 0 l 1
759 1657 m 1
 579 1345 l 1
 530 1377 l 1
 649 1696 l 1
 759 1657 l 1
EndSplineSet
Colour: ffffff
EndChar

StartChar: Icircumflex
Encoding: 142 206 141
Width: 850
VWidth: 1655
GlyphClass: 2
Flags: HMW
LayerCount: 2
Fore
SplineSet
662 0 m 1
 36 0 l 1
 54 78 l 1
 277 129 l 1
 400 1090 l 1
 174 1123 l 1
 193 1199 l 1
 341 1230 495 1246 657 1246 c 0
 698 1246 750 1244 813 1239 c 1
 794 1164 l 1
 595 1142 l 1
 468 106 l 1
 686 81 l 1
 662 0 l 1
560 1572 m 1
 735 1391 l 1
 686 1356 l 1
 527 1463 l 1
 517 1463 l 1
 379 1354 l 1
 341 1383 l 1
 507 1559 l 1
 560 1572 l 1
EndSplineSet
Colour: ffffff
EndChar

StartChar: Idieresis
Encoding: 143 207 142
Width: 851
VWidth: 1655
GlyphClass: 2
Flags: HMW
LayerCount: 2
Fore
SplineSet
662 0 m 1
 36 0 l 1
 54 78 l 1
 277 129 l 1
 400 1090 l 1
 174 1123 l 1
 193 1199 l 1
 341 1230 495 1246 657 1246 c 0
 700 1246 752 1244 814 1239 c 1
 794 1164 l 1
 595 1142 l 1
 468 106 l 1
 686 81 l 1
 662 0 l 1
729 1514 m 128
 746 1499 754 1481 754 1459 c 128
 754 1437 746 1419 729 1403 c 128
 712 1387 692 1380 669 1380 c 128
 646 1380 627 1387 610 1403 c 128
 593 1419 586 1438 586 1460 c 128
 586 1483 593 1499 610 1514 c 128
 627 1529 646 1536 669 1536 c 128
 692 1536 712 1529 729 1514 c 128
466 1514 m 128
 483 1499 491 1481 491 1459 c 128
 491 1437 483 1418 466 1403 c 128
 449 1388 429 1380 406 1380 c 128
 383 1380 364 1387 348 1403 c 128
 332 1419 324 1438 324 1460 c 128
 324 1483 332 1499 348 1514 c 128
 364 1529 383 1536 406 1536 c 128
 429 1536 449 1529 466 1514 c 128
EndSplineSet
Colour: ffffff
EndChar

StartChar: Eth
Encoding: 144 208 143
Width: 1448
VWidth: 1655
GlyphClass: 2
Flags: HMW
LayerCount: 2
Fore
SplineSet
516 551 m 1
 462 106 l 1
 472 106 l 1
 476 104 486 104 507 104 c 128
 528 104 566 107 623 113 c 0
 763 126 880 160 974 218 c 128
 1068 276 1134 353 1171 450 c 1
 1196 515 1208 589 1208 672 c 0
 1208 755 1190 832 1155 904 c 1
 1130 957 1096 1001 1054 1037 c 128
 1012 1073 953 1104 877 1132 c 128
 801 1160 741 1174 696 1175 c 128
 651 1176 615 1175 589 1171 c 1
 527 649 l 1
 778 660 l 1
 750 561 l 1
 516 551 l 1
36 0 m 1
 56 77 l 1
 265 129 l 1
 321 541 l 1
 155 536 l 1
 181 634 l 1
 335 641 l 1
 392 1068 l 1
 175 1085 l 1
 196 1158 l 1
 361 1220 552 1251 769 1250 c 0
 809 1250 834 1250 845 1249 c 1
 1025 1240 1159 1200 1248 1127 c 1
 1288 1094 1321 1055 1347 1009 c 0
 1390 932 1412 846 1411 752 c 0
 1411 727 1410 704 1406 681 c 1
 1388 507 1312 358 1178 234 c 0
 1053 119 896 47 708 18 c 0
 629 6 515 0 364 0 c 2
 36 0 l 1
EndSplineSet
Colour: ffffff
EndChar

StartChar: Ntilde
Encoding: 145 209 144
Width: 1566
VWidth: 1655
GlyphClass: 2
Flags: HMW
LayerCount: 2
Fore
SplineSet
1039 -31 m 1
 484 999 l 1
 481 999 l 1
 462 486 l 2
 457 381 449 298 435 239 c 128
 421 180 394 124 355 70 c 1
 302 3 246 -31 186 -31 c 2
 179 -31 l 1
 120 -25 79 1 54 49 c 1
 45 69 40 87 36 103 c 1
 115 140 178 186 225 242 c 1
 319 359 369 567 377 864 c 1
 379 984 380 1053 381 1071 c 1
 155 1125 l 1
 177 1201 l 1
 270 1220 344 1230 401 1235 c 128
 458 1240 519 1243 586 1246 c 1
 674 1078 l 1
 1109 274 l 1
 1180 1106 l 1
 953 1122 l 1
 973 1197 l 1
 1076 1220 1160 1233 1222 1238 c 128
 1284 1243 1339 1245 1386 1245 c 128
 1433 1245 1481 1243 1529 1239 c 1
 1508 1163 l 1
 1303 1109 l 1
 1199 2 l 1
 1039 -31 l 1
726 1419 m 2
 709 1419 690 1403 667 1372 c 1
 630 1380 l 1
 632 1387 634 1397 638 1411 c 128
 642 1425 650 1441 664 1462 c 0
 689 1501 717 1521 749 1522 c 2
 755 1522 l 1
 757 1520 758 1520 762 1520 c 2
 980 1490 l 1
 984 1490 l 2
 998 1490 1016 1504 1039 1531 c 1
 1086 1529 l 1
 1055 1435 1012 1388 957 1388 c 2
 948 1388 l 1
 729 1419 l 1
 726 1419 l 2
EndSplineSet
Colour: ffffff
EndChar

StartChar: Ograve
Encoding: 146 210 145
Width: 1140
VWidth: 1655
GlyphClass: 2
Flags: HMW
LayerCount: 2
Fore
SplineSet
245 651 m 0
 245 495 275 368 335 269 c 128
 395 170 474 120 570 120 c 128
 666 120 744 167 805 260 c 128
 866 353 896 475 896 625 c 0
 896 720 883 805 856 881 c 128
 829 957 788 1018 735 1063 c 128
 682 1108 621 1130 554 1130 c 128
 487 1130 430 1108 383 1064 c 1
 290 975 244 838 245 651 c 0
1103 744 m 1
 1101 596 1066 457 998 325 c 1
 921 179 822 78 704 21 c 0
 637 -12 563 -28 481 -28 c 128
 399 -28 323 -4 253 45 c 128
 183 94 130 158 93 238 c 128
 56 318 37 408 37 505 c 0
 37 642 63 769 115 886 c 128
 167 1003 241 1098 336 1169 c 128
 431 1240 540 1275 660 1275 c 0
 751 1275 831 1249 902 1196 c 128
 973 1143 1025 1077 1056 998 c 128
 1087 919 1103 836 1103 748 c 2
 1103 744 l 1
443 1655 m 1
 556 1693 l 1
 686 1365 l 1
 629 1332 l 1
 443 1655 l 1
EndSplineSet
Colour: ffffff
EndChar

StartChar: Oacute
Encoding: 147 211 146
Width: 1140
VWidth: 1655
GlyphClass: 2
Flags: HMW
LayerCount: 2
Fore
SplineSet
245 651 m 0
 245 495 275 368 335 269 c 128
 395 170 474 120 570 120 c 128
 666 120 744 167 805 260 c 128
 866 353 896 475 896 625 c 0
 896 720 883 805 856 881 c 128
 829 957 788 1018 735 1063 c 128
 682 1108 621 1130 554 1130 c 128
 487 1130 430 1108 383 1064 c 1
 290 975 244 838 245 651 c 0
1103 744 m 1
 1101 596 1066 457 998 325 c 1
 921 179 822 78 704 21 c 0
 637 -12 563 -28 481 -28 c 128
 399 -28 323 -4 253 45 c 128
 183 94 130 158 93 238 c 128
 56 318 37 408 37 505 c 0
 37 642 63 769 115 886 c 128
 167 1003 241 1098 336 1169 c 128
 431 1240 540 1275 660 1275 c 0
 751 1275 831 1249 902 1196 c 128
 973 1143 1025 1077 1056 998 c 128
 1087 919 1103 836 1103 748 c 2
 1103 744 l 1
864 1661 m 1
 684 1351 l 1
 634 1382 l 1
 753 1701 l 1
 864 1661 l 1
EndSplineSet
Colour: ffffff
EndChar

StartChar: Ocircumflex
Encoding: 148 212 147
Width: 1140
VWidth: 1655
GlyphClass: 2
Flags: HMW
LayerCount: 2
Fore
SplineSet
245 651 m 0
 245 495 275 368 335 269 c 128
 395 170 474 120 570 120 c 128
 666 120 744 167 805 260 c 128
 866 353 896 475 896 625 c 0
 896 720 883 805 856 881 c 128
 829 957 788 1018 735 1063 c 128
 682 1108 621 1130 554 1130 c 128
 487 1130 430 1108 383 1064 c 1
 290 975 244 838 245 651 c 0
1103 744 m 1
 1101 596 1066 457 998 325 c 1
 921 179 822 78 704 21 c 0
 637 -12 563 -28 481 -28 c 128
 399 -28 323 -4 253 45 c 128
 183 94 130 158 93 238 c 128
 56 318 37 408 37 505 c 0
 37 642 63 769 115 886 c 128
 167 1003 241 1098 336 1169 c 128
 431 1240 540 1275 660 1275 c 0
 751 1275 831 1249 902 1196 c 128
 973 1143 1025 1077 1056 998 c 128
 1087 919 1103 836 1103 748 c 2
 1103 744 l 1
665 1577 m 1
 840 1396 l 1
 791 1361 l 1
 631 1468 l 1
 621 1468 l 1
 484 1359 l 1
 447 1388 l 1
 612 1564 l 1
 665 1577 l 1
EndSplineSet
Colour: ffffff
EndChar

StartChar: Otilde
Encoding: 149 213 148
Width: 1140
VWidth: 1655
GlyphClass: 2
Flags: HMW
LayerCount: 2
Fore
SplineSet
245 651 m 0
 245 495 275 368 335 269 c 128
 395 170 474 120 570 120 c 128
 666 120 744 167 805 260 c 128
 866 353 896 475 896 625 c 0
 896 720 883 805 856 881 c 128
 829 957 788 1018 735 1063 c 128
 682 1108 621 1130 554 1130 c 128
 487 1130 430 1108 383 1064 c 1
 290 975 244 838 245 651 c 0
1103 744 m 1
 1101 596 1066 457 998 325 c 1
 921 179 822 78 704 21 c 0
 637 -12 563 -28 481 -28 c 128
 399 -28 323 -4 253 45 c 128
 183 94 130 158 93 238 c 128
 56 318 37 408 37 505 c 0
 37 642 63 769 115 886 c 128
 167 1003 241 1098 336 1169 c 128
 431 1240 540 1275 660 1275 c 0
 751 1275 831 1249 902 1196 c 128
 973 1143 1025 1077 1056 998 c 128
 1087 919 1103 836 1103 748 c 2
 1103 744 l 1
512 1419 m 2
 495 1419 476 1403 453 1372 c 1
 415 1380 l 1
 417 1387 420 1397 424 1411 c 128
 428 1425 436 1441 450 1462 c 0
 475 1501 503 1521 536 1522 c 2
 543 1522 l 1
 545 1520 546 1520 548 1520 c 2
 767 1490 l 1
 770 1490 l 2
 784 1490 802 1504 825 1531 c 1
 872 1529 l 1
 841 1435 798 1388 745 1388 c 2
 733 1388 l 1
 515 1419 l 1
 512 1419 l 2
EndSplineSet
Colour: ffffff
EndChar

StartChar: Odieresis
Encoding: 150 214 149
Width: 1140
VWidth: 1655
GlyphClass: 2
Flags: HMW
LayerCount: 2
Fore
SplineSet
245 651 m 0
 245 495 275 368 335 269 c 128
 395 170 474 120 570 120 c 128
 666 120 744 167 805 260 c 128
 866 353 896 475 896 625 c 0
 896 720 883 805 856 881 c 128
 829 957 788 1018 735 1063 c 128
 682 1108 621 1130 554 1130 c 128
 487 1130 430 1108 383 1064 c 1
 290 975 244 838 245 651 c 0
1103 744 m 1
 1101 596 1066 457 998 325 c 1
 921 179 822 78 704 21 c 0
 637 -12 563 -28 481 -28 c 128
 399 -28 323 -4 253 45 c 128
 183 94 130 158 93 238 c 128
 56 318 37 408 37 505 c 0
 37 642 63 769 115 886 c 128
 167 1003 241 1098 336 1169 c 128
 431 1240 540 1275 660 1275 c 0
 751 1275 831 1249 902 1196 c 128
 973 1143 1025 1077 1056 998 c 128
 1087 919 1103 836 1103 748 c 2
 1103 744 l 1
834 1519 m 128
 851 1504 859 1486 859 1464 c 128
 859 1442 851 1424 834 1408 c 128
 817 1392 797 1385 774 1385 c 128
 751 1385 733 1392 716 1408 c 128
 699 1424 691 1443 691 1465 c 128
 691 1488 699 1504 716 1519 c 128
 733 1534 751 1541 774 1541 c 128
 797 1541 817 1534 834 1519 c 128
570 1519 m 128
 587 1504 595 1486 595 1464 c 128
 595 1442 587 1423 570 1408 c 128
 553 1393 534 1385 511 1385 c 128
 488 1385 469 1392 453 1408 c 128
 437 1424 429 1443 429 1465 c 128
 429 1488 437 1504 453 1519 c 128
 469 1534 488 1541 511 1541 c 128
 534 1541 553 1534 570 1519 c 128
EndSplineSet
Colour: ffffff
EndChar

StartChar: multiply
Encoding: 151 215 150
Width: 567
VWidth: 1655
GlyphClass: 2
Flags: HMW
LayerCount: 2
Fore
SplineSet
273 380 m 1
 91 223 l 1
 36 305 l 1
 207 453 l 1
 74 607 l 1
 163 672 l 1
 295 520 l 1
 477 678 l 1
 530 595 l 1
 358 448 l 1
 494 291 l 1
 405 227 l 1
 273 380 l 1
EndSplineSet
Colour: ffffff
EndChar

StartChar: Oslash
Encoding: 152 216 151
Width: 1140
VWidth: 1655
GlyphClass: 2
Flags: HMW
LayerCount: 2
Fore
SplineSet
382 205 m 5
 436 148 498 119 569 120 c 0
 666 120 744 167 805 260 c 128
 866 353 896 474 896 623 c 128
 896 772 864 895 800 992 c 5
 664.479 730.513 539.562 471.382 382 205 c 5
245 651 m 0
 245 496 275 370 334 272 c 1
 747 1053 l 1
 690 1104 626 1130 557 1130 c 128
 488 1130 430 1108 383 1064 c 1
 290 975 244 838 245 651 c 0
853 1296 m 1
 995 1304 l 1
 928 1176 l 1
 984 1128 1028 1066 1058 989 c 128
 1088 912 1103 832 1103 748 c 2
 1103 744 l 1
 1101 596 1066 457 998 325 c 1
 921 179 822 78 704 21 c 0
 637 -12 569 -28 498 -28 c 128
 427 -28 363 -14 306 14 c 1
 256 -73 l 1
 113 -81 l 1
 205 84 l 1
 88.2803 211.753 37 327 37 521 c 128
 37 648 63 769 115 886 c 128
 167 1003 241 1098 336 1169 c 128
 431 1240 540 1275 660 1275 c 0
 718 1275 772 1264 823 1243 c 1
 853 1296 l 1
EndSplineSet
Colour: ffffff
EndChar

StartChar: Ugrave
Encoding: 153 217 152
Width: 1486
VWidth: 1655
GlyphClass: 2
Flags: HMW
LayerCount: 2
Fore
SplineSet
258 1087 m 1
 36 1123 l 1
 58 1199 l 1
 168 1219 264 1231 346 1237 c 128
 428 1243 498 1245 558 1245 c 128
 618 1245 656 1245 674 1243 c 1
 656 1166 l 1
 457 1138 l 1
 409 745 l 2
 409 743 409 735 407 721 c 128
 405 707 403 682 398 647 c 128
 393 612 392 585 390 566 c 128
 388 547 388 521 388 488 c 128
 388 455 389 428 392 405 c 0
 395 382 399 357 406 330 c 0
 421 274 452 227 500 188 c 1
 550 145 609 123 678 123 c 0
 808 123 902 179 959 290 c 1
 986 343 1006 425 1022 534 c 2
 1096 1111 l 1
 871 1120 l 1
 889 1197 l 1
 1030 1228 1176 1243 1329 1243 c 0
 1340 1243 1380 1242 1449 1239 c 1
 1429 1163 l 1
 1222 1096 l 1
 1137 517 l 2
 1108 325 1057 191 982 114 c 0
 947 77 898 43 836 12 c 128
 774 -19 700 -34 615 -34 c 2
 607 -34 l 1
 479 -28 379 11 308 83 c 0
 227 164 187 277 186 425 c 0
 186 460 194 552 212 702 c 2
 258 1087 l 1
579 1655 m 1
 693 1693 l 1
 822 1365 l 1
 766 1332 l 1
 579 1655 l 1
EndSplineSet
Colour: ffffff
EndChar

StartChar: Uacute
Encoding: 154 218 153
Width: 1486
VWidth: 1655
GlyphClass: 2
Flags: HMW
LayerCount: 2
Fore
SplineSet
258 1087 m 1
 36 1123 l 1
 58 1199 l 1
 168 1219 264 1231 346 1237 c 128
 428 1243 498 1245 558 1245 c 128
 618 1245 656 1245 674 1243 c 1
 656 1166 l 1
 457 1138 l 1
 409 745 l 2
 409 743 409 735 407 721 c 128
 405 707 403 682 398 647 c 128
 393 612 392 585 390 566 c 128
 388 547 388 521 388 488 c 128
 388 455 389 428 392 405 c 0
 395 382 399 357 406 330 c 0
 421 274 452 227 500 188 c 1
 550 145 609 123 678 123 c 0
 808 123 902 179 959 290 c 1
 986 343 1006 425 1022 534 c 2
 1096 1111 l 1
 871 1120 l 1
 889 1197 l 1
 1030 1228 1176 1243 1329 1243 c 0
 1340 1243 1380 1242 1449 1239 c 1
 1429 1163 l 1
 1222 1096 l 1
 1137 517 l 2
 1108 325 1057 191 982 114 c 0
 947 77 898 43 836 12 c 128
 774 -19 700 -34 615 -34 c 2
 607 -34 l 1
 479 -28 379 11 308 83 c 0
 227 164 187 277 186 425 c 0
 186 460 194 552 212 702 c 2
 258 1087 l 1
1001 1661 m 1
 820 1351 l 1
 771 1382 l 1
 890 1701 l 1
 1001 1661 l 1
EndSplineSet
Colour: ffffff
EndChar

StartChar: Ucircumflex
Encoding: 155 219 154
Width: 1486
VWidth: 1655
GlyphClass: 2
Flags: HMW
LayerCount: 2
Fore
SplineSet
258 1087 m 1
 36 1123 l 1
 58 1199 l 1
 168 1219 264 1231 346 1237 c 128
 428 1243 498 1245 558 1245 c 128
 618 1245 656 1245 674 1243 c 1
 656 1166 l 1
 457 1138 l 1
 409 745 l 2
 409 743 409 735 407 721 c 128
 405 707 403 682 398 647 c 128
 393 612 392 585 390 566 c 128
 388 547 388 521 388 488 c 128
 388 455 389 428 392 405 c 0
 395 382 399 357 406 330 c 0
 421 274 452 227 500 188 c 1
 550 145 609 123 678 123 c 0
 808 123 902 179 959 290 c 1
 986 343 1006 425 1022 534 c 2
 1096 1111 l 1
 871 1120 l 1
 889 1197 l 1
 1030 1228 1176 1243 1329 1243 c 0
 1340 1243 1380 1242 1449 1239 c 1
 1429 1163 l 1
 1222 1096 l 1
 1137 517 l 2
 1108 325 1057 191 982 114 c 0
 947 77 898 43 836 12 c 128
 774 -19 700 -34 615 -34 c 2
 607 -34 l 1
 479 -28 379 11 308 83 c 0
 227 164 187 277 186 425 c 0
 186 460 194 552 212 702 c 2
 258 1087 l 1
801 1577 m 1
 976 1396 l 1
 928 1361 l 1
 767 1468 l 1
 757 1468 l 1
 620 1359 l 1
 583 1388 l 1
 748 1564 l 1
 801 1577 l 1
EndSplineSet
Colour: ffffff
EndChar

StartChar: Udieresis
Encoding: 156 220 155
Width: 1486
VWidth: 1655
GlyphClass: 2
Flags: HMW
LayerCount: 2
Fore
SplineSet
258 1087 m 1
 36 1123 l 1
 58 1199 l 1
 168 1219 264 1231 346 1237 c 128
 428 1243 498 1245 558 1245 c 128
 618 1245 656 1245 674 1243 c 1
 656 1166 l 1
 457 1138 l 1
 409 745 l 2
 409 743 409 735 407 721 c 128
 405 707 403 682 398 647 c 128
 393 612 392 585 390 566 c 128
 388 547 388 521 388 488 c 128
 388 455 389 428 392 405 c 0
 395 382 399 357 406 330 c 0
 421 274 452 227 500 188 c 1
 550 145 609 123 678 123 c 0
 808 123 902 179 959 290 c 1
 986 343 1006 425 1022 534 c 2
 1096 1111 l 1
 871 1120 l 1
 889 1197 l 1
 1030 1228 1176 1243 1329 1243 c 0
 1340 1243 1380 1242 1449 1239 c 1
 1429 1163 l 1
 1222 1096 l 1
 1137 517 l 2
 1108 325 1057 191 982 114 c 0
 947 77 898 43 836 12 c 128
 774 -19 700 -34 615 -34 c 2
 607 -34 l 1
 479 -28 379 11 308 83 c 0
 227 164 187 277 186 425 c 0
 186 460 194 552 212 702 c 2
 258 1087 l 1
970 1519 m 128
 987 1504 995 1486 995 1464 c 128
 995 1442 987 1424 970 1408 c 128
 953 1392 933 1385 910 1385 c 128
 887 1385 869 1392 852 1408 c 128
 835 1424 827 1443 827 1465 c 128
 827 1488 835 1504 852 1519 c 128
 869 1534 887 1541 910 1541 c 128
 933 1541 953 1534 970 1519 c 128
707 1519 m 128
 724 1504 732 1486 732 1464 c 128
 732 1442 724 1423 707 1408 c 128
 690 1393 670 1385 647 1385 c 128
 624 1385 605 1392 589 1408 c 128
 573 1424 565 1443 565 1465 c 128
 565 1488 573 1504 589 1519 c 128
 605 1534 624 1541 647 1541 c 128
 670 1541 690 1534 707 1519 c 128
EndSplineSet
Colour: ffffff
EndChar

StartChar: Yacute
Encoding: 157 221 156
Width: 1138
VWidth: 1655
GlyphClass: 2
Flags: HMW
LayerCount: 2
Fore
SplineSet
636 680 m 1
 607 583 585 476 571 359 c 2
 542 106 l 1
 755 81 l 1
 734 0 l 1
 108 0 l 1
 127 83 l 1
 348 129 l 1
 387 423 l 2
 394 470 397 519 397 569 c 0
 397 688 375 796 330 893 c 1
 269 1019 172 1092 36 1111 c 1
 46 1160 67 1197 101 1221 c 128
 135 1245 175 1259 219 1262 c 0
 221 1262 223 1262 225 1264 c 1
 230 1264 l 2
 337 1264 419 1204 474 1086 c 0
 521 985 544 857 542 702 c 2
 542 664 l 1
 558 664 l 1
 581 763 612 855 650 940 c 128
 688 1025 724 1088 757 1132 c 128
 790 1176 824 1206 861 1224 c 128
 898 1242 930 1250 959 1250 c 2
 969 1250 l 1
 973 1248 975 1248 979 1249 c 0
 1016 1245 1046 1231 1068 1205 c 128
 1090 1179 1101 1150 1101 1120 c 0
 1101 1107 1100 1097 1097 1087 c 1
 1058 1085 1014 1078 964 1063 c 128
 914 1048 868 1026 827 995 c 1
 780 957 743 915 716 869 c 128
 689 823 663 760 636 680 c 1
836 1661 m 1
 656 1351 l 1
 606 1382 l 1
 726 1701 l 1
 836 1661 l 1
EndSplineSet
Colour: ffffff
EndChar

StartChar: Thorn
Encoding: 158 222 157
Width: 1199
VWidth: 1655
GlyphClass: 2
Flags: HMW
LayerCount: 2
Fore
SplineSet
666 0 m 1
 36 0 l 1
 53 78 l 1
 275 130 l 1
 401 1099 l 1
 175 1131 l 1
 192 1205 l 1
 377 1239 532 1256 657 1255 c 0
 702 1255 756 1253 819 1249 c 1
 800 1171 l 1
 596 1150 l 1
 584 1039 l 1
 647 1045 695 1047 728 1047 c 0
 869 1047 977 1017 1051 957 c 128
 1125 897 1162 809 1162 696 c 0
 1162 581 1110 480 1005 393 c 1
 897 304 744 250 546 232 c 1
 539 315 l 1
 698 333 814 379 887 453 c 0
 941 508 969 579 968 665 c 128
 967 751 936 824 876 885 c 128
 816 946 735 977 633 977 c 0
 613 977 595 975 575 971 c 1
 473 108 l 1
 691 80 l 1
 666 0 l 1
EndSplineSet
Colour: ffffff
EndChar

StartChar: germandbls
Encoding: 159 223 158
Width: 1265
VWidth: 1655
GlyphClass: 2
Flags: HMW
LayerCount: 2
Fore
SplineSet
784 233 m 1
 821 125 875 66 947 57 c 1
 955 57 l 1
 957 55 962 55 971 56 c 128
 980 57 995 60 1017 70 c 128
 1039 80 1056 92 1068 106 c 1
 1079 123 1084 140 1084 158 c 2
 1084 165 l 1
 1082 167 1082 173 1080 185 c 0
 1058.82 338.532 781 407.263 781 575 c 128
 781 772.84 1059 856.53 1059 1058 c 0
 1059 1159.93 1004.28 1224.91 933 1222 c 1
 815.503 1222 715.35 1169.15 675 1074 c 0
 650 1023 635 949 628 851 c 1
 623 806 l 1
 602 468 588 251 580 155 c 128
 572 59 560 -21 543 -84 c 128
 526 -147 499 -200 464 -242 c 0
 417 -301 358 -342 287 -365 c 1
 250 -375 215 -378 184 -379 c 128
 153 -380 124 -373 99 -359 c 0
 57 -334 36 -297 36 -248 c 0
 36 -201 54 -163 91 -132 c 1
 155 -196 221 -228 288 -228 c 0
 310 -228 328 -224 344 -217 c 128
 360 -210 369 -200 375 -185 c 128
 420.356 -71.6113 403.426 -3.03027 426 313 c 2
 459 775 l 1
 348 766 l 1
 363 871 l 1
 468 855 l 1
 474 882 479 907 485 931 c 0
 506 1007 537 1070 579 1119 c 128
 674.212 1242.64 831.635 1299 1032 1299 c 128
 1118.52 1299 1224 1236 1224 1110 c 0
 1224 879.253 905 778 905 656 c 128
 905 629 914 601 934 573 c 1
 963 538 988 512 1010 494 c 128
 1032 476 1056 456 1082 435 c 128
 1108 414 1125 399 1136 389 c 0
 1167 362 1189 335 1204 306 c 128
 1219 277 1226 252 1228 230 c 1
 1228 218 l 2
 1228 179 1213 139 1182 98 c 1
 1150 59 1107 27 1053 2 c 128
 999 -23 947 -35 898 -35 c 0
 803 -36 737 -13 698 34 c 0
 679 56 670 83 670 116 c 128
 670 149 687 179 722 207 c 1
 741 221 761 229 784 233 c 1
EndSplineSet
Colour: ffffff
EndChar

StartChar: agrave
Encoding: 160 224 159
Width: 900
VWidth: 1655
GlyphClass: 2
Flags: HMW
LayerCount: 2
Fore
SplineSet
615 918 m 1
 734 881 l 1
 662 491 l 1
 632 253 l 1
 627 214 625 186 625 168 c 0
 625 133 640 116 669 116 c 0
 687 116 711 133 741 166 c 128
 771 199 799 236 822 275 c 1
 863 240 l 1
 826 147 786 79 742 35 c 128
 698 -9 641 -31 571 -31 c 0
 538 -31 512 -18 494 6 c 128
 476 30 468 66 468 113 c 0
 468 161 480 219 504 287 c 1
 491 287 l 1
 456 203 410 131 353 70 c 128
 296 9 240 -21 185 -21 c 128
 130 -21 91 0 69 41 c 128
 47 82 36 143 36 225 c 128
 36 307 55 401 93 505 c 128
 131 609 182 701 246 779 c 128
 310 857 374 895 437 895 c 128
 500 895 548 870 581 820 c 1
 590 820 l 1
 604 909 l 1
 615 918 l 1
242 595 m 0
 208 490 191 398 191 317 c 128
 191 236 195 186 203 165 c 128
 211 144 228 134 255 134 c 0
 303 134 358 185 421 286 c 1
 484 387 528 512 555 660 c 1
 545 688 526 713 496 736 c 128
 466 759 436 770 404 770 c 128
 372 770 342 754 312 722 c 128
 282 690 259 648 242 595 c 0
314 1303 m 1
 426 1339 l 1
 555 1013 l 1
 499 978 l 1
 314 1303 l 1
EndSplineSet
Colour: ffffff
EndChar

StartChar: aacute
Encoding: 161 225 160
Width: 900
VWidth: 1655
GlyphClass: 2
Flags: HMW
LayerCount: 2
Fore
SplineSet
615 918 m 1
 734 881 l 1
 662 491 l 1
 632 253 l 1
 627 214 625 186 625 168 c 0
 625 133 640 116 669 116 c 0
 687 116 711 133 741 166 c 128
 771 199 799 236 822 275 c 1
 863 240 l 1
 826 147 786 79 742 35 c 128
 698 -9 641 -31 571 -31 c 0
 538 -31 512 -18 494 6 c 128
 476 30 468 66 468 113 c 0
 468 161 480 219 504 287 c 1
 491 287 l 1
 456 203 410 131 353 70 c 128
 296 9 240 -21 185 -21 c 128
 130 -21 91 0 69 41 c 128
 47 82 36 143 36 225 c 128
 36 307 55 401 93 505 c 128
 131 609 182 701 246 779 c 128
 310 857 374 895 437 895 c 128
 500 895 548 870 581 820 c 1
 590 820 l 1
 604 909 l 1
 615 918 l 1
242 595 m 0
 208 490 191 398 191 317 c 128
 191 236 195 186 203 165 c 128
 211 144 228 134 255 134 c 0
 303 134 358 185 421 286 c 1
 484 387 528 512 555 660 c 1
 545 688 526 713 496 736 c 128
 466 759 436 770 404 770 c 128
 372 770 342 754 312 722 c 128
 282 690 259 648 242 595 c 0
734 1309 m 1
 553 998 l 1
 504 1029 l 1
 623 1347 l 1
 734 1309 l 1
EndSplineSet
Colour: ffffff
EndChar

StartChar: acircumflex
Encoding: 162 226 161
Width: 900
VWidth: 1655
GlyphClass: 2
Flags: HMW
LayerCount: 2
Fore
SplineSet
615 918 m 1
 734 881 l 1
 662 491 l 1
 632 253 l 1
 627 214 625 186 625 168 c 0
 625 133 640 116 669 116 c 0
 687 116 711 133 741 166 c 128
 771 199 799 236 822 275 c 1
 863 240 l 1
 826 147 786 79 742 35 c 128
 698 -9 641 -31 571 -31 c 0
 538 -31 512 -18 494 6 c 128
 476 30 468 66 468 113 c 0
 468 161 480 219 504 287 c 1
 491 287 l 1
 456 203 410 131 353 70 c 128
 296 9 240 -21 185 -21 c 128
 130 -21 91 0 69 41 c 128
 47 82 36 143 36 225 c 128
 36 307 55 401 93 505 c 128
 131 609 182 701 246 779 c 128
 310 857 374 895 437 895 c 128
 500 895 548 870 581 820 c 1
 590 820 l 1
 604 909 l 1
 615 918 l 1
242 595 m 0
 208 490 191 398 191 317 c 128
 191 236 195 186 203 165 c 128
 211 144 228 134 255 134 c 0
 303 134 358 185 421 286 c 1
 484 387 528 512 555 660 c 1
 545 688 526 713 496 736 c 128
 466 759 436 770 404 770 c 128
 372 770 342 754 312 722 c 128
 282 690 259 648 242 595 c 0
535 1224 m 1
 709 1043 l 1
 660 1008 l 1
 500 1115 l 1
 491 1115 l 1
 353 1006 l 1
 316 1036 l 1
 481 1212 l 1
 535 1224 l 1
EndSplineSet
Colour: ffffff
EndChar

StartChar: atilde
Encoding: 163 227 162
Width: 900
VWidth: 1655
GlyphClass: 2
Flags: HMW
LayerCount: 2
Fore
SplineSet
615 918 m 1
 734 881 l 1
 662 491 l 1
 632 253 l 1
 627 214 625 186 625 168 c 0
 625 133 640 116 669 116 c 0
 687 116 711 133 741 166 c 128
 771 199 799 236 822 275 c 1
 863 240 l 1
 826 147 786 79 742 35 c 128
 698 -9 641 -31 571 -31 c 0
 538 -31 512 -18 494 6 c 128
 476 30 468 66 468 113 c 0
 468 161 480 219 504 287 c 1
 491 287 l 1
 456 203 410 131 353 70 c 128
 296 9 240 -21 185 -21 c 128
 130 -21 91 0 69 41 c 128
 47 82 36 143 36 225 c 128
 36 307 55 401 93 505 c 128
 131 609 182 701 246 779 c 128
 310 857 374 895 437 895 c 128
 500 895 548 870 581 820 c 1
 590 820 l 1
 604 909 l 1
 615 918 l 1
242 595 m 0
 208 490 191 398 191 317 c 128
 191 236 195 186 203 165 c 128
 211 144 228 134 255 134 c 0
 303 134 358 185 421 286 c 1
 484 387 528 512 555 660 c 1
 545 688 526 713 496 736 c 128
 466 759 436 770 404 770 c 128
 372 770 342 754 312 722 c 128
 282 690 259 648 242 595 c 0
381 1066 m 2
 364 1066 345 1050 323 1019 c 1
 286 1027 l 1
 288 1034 291 1044 295 1058 c 128
 299 1072 306 1089 319 1110 c 0
 344 1149 372 1169 405 1168 c 2
 411 1168 l 1
 413 1166 415 1166 418 1166 c 2
 636 1137 l 1
 639 1137 l 2
 653 1137 672 1151 695 1178 c 1
 742 1176 l 1
 711 1082 668 1035 613 1036 c 2
 602 1036 l 1
 383 1066 l 1
 381 1066 l 2
EndSplineSet
Colour: ffffff
EndChar

StartChar: adieresis
Encoding: 164 228 163
Width: 900
VWidth: 1655
GlyphClass: 2
Flags: HMW
LayerCount: 2
Fore
SplineSet
615 918 m 1
 734 881 l 1
 662 491 l 1
 632 253 l 1
 627 214 625 186 625 168 c 0
 625 133 640 116 669 116 c 0
 687 116 711 133 741 166 c 128
 771 199 799 236 822 275 c 1
 863 240 l 1
 826 147 786 79 742 35 c 128
 698 -9 641 -31 571 -31 c 0
 538 -31 512 -18 494 6 c 128
 476 30 468 66 468 113 c 0
 468 161 480 219 504 287 c 1
 491 287 l 1
 456 203 410 131 353 70 c 128
 296 9 240 -21 185 -21 c 128
 130 -21 91 0 69 41 c 128
 47 82 36 143 36 225 c 128
 36 307 55 401 93 505 c 128
 131 609 182 701 246 779 c 128
 310 857 374 895 437 895 c 128
 500 895 548 870 581 820 c 1
 590 820 l 1
 604 909 l 1
 615 918 l 1
242 595 m 0
 208 490 191 398 191 317 c 128
 191 236 195 186 203 165 c 128
 211 144 228 134 255 134 c 0
 303 134 358 185 421 286 c 1
 484 387 528 512 555 660 c 1
 545 688 526 713 496 736 c 128
 466 759 436 770 404 770 c 128
 372 770 342 754 312 722 c 128
 282 690 259 648 242 595 c 0
704 1165 m 128
 721 1150 729 1132 729 1110 c 128
 729 1088 721 1071 704 1055 c 128
 687 1039 666 1032 643 1032 c 128
 620 1032 602 1039 585 1055 c 128
 568 1071 560 1089 560 1111 c 128
 560 1133 568 1151 585 1166 c 128
 602 1181 620 1187 643 1187 c 128
 666 1187 687 1180 704 1165 c 128
440 1165 m 128
 457 1150 465 1132 465 1110 c 128
 465 1088 457 1070 440 1055 c 128
 423 1040 403 1032 380 1032 c 128
 357 1032 338 1039 322 1055 c 128
 306 1071 298 1089 298 1111 c 128
 298 1133 306 1151 322 1166 c 128
 338 1181 357 1187 380 1187 c 128
 403 1187 423 1180 440 1165 c 128
EndSplineSet
Colour: ffffff
EndChar

StartChar: aring
Encoding: 165 229 164
Width: 900
VWidth: 1655
GlyphClass: 2
Flags: HMW
LayerCount: 2
Fore
SplineSet
615 918 m 1
 734 881 l 1
 662 491 l 1
 632 253 l 1
 627 214 625 186 625 168 c 0
 625 133 640 116 669 116 c 0
 687 116 711 133 741 166 c 128
 771 199 799 236 822 275 c 1
 863 240 l 1
 826 147 786 79 742 35 c 128
 698 -9 641 -31 571 -31 c 0
 538 -31 512 -18 494 6 c 128
 476 30 468 66 468 113 c 0
 468 161 480 219 504 287 c 1
 491 287 l 1
 456 203 410 131 353 70 c 128
 296 9 240 -21 185 -21 c 128
 130 -21 91 0 69 41 c 128
 47 82 36 143 36 225 c 128
 36 307 55 401 93 505 c 128
 131 609 182 701 246 779 c 128
 310 857 374 895 437 895 c 128
 500 895 548 870 581 820 c 1
 590 820 l 1
 604 909 l 1
 615 918 l 1
242 595 m 0
 208 490 191 398 191 317 c 128
 191 236 195 186 203 165 c 128
 211 144 228 134 255 134 c 0
 303 134 358 185 421 286 c 1
 484 387 528 512 555 660 c 1
 545 688 526 713 496 736 c 128
 466 759 436 770 404 770 c 128
 372 770 342 754 312 722 c 128
 282 690 259 648 242 595 c 0
448 1262 m 128
 433 1241 425 1215 425 1182 c 128
 425 1149 434 1120 451 1095 c 128
 468 1070 490 1058 519 1058 c 0
 575 1058 603 1095 602 1170 c 0
 602 1205 594 1234 576 1258 c 128
 558 1282 537 1294 510 1294 c 128
 483 1294 463 1283 448 1262 c 128
630 1296 m 128
 658 1267 672 1229 672 1182 c 128
 672 1135 656 1096 625 1062 c 128
 594 1028 554 1011 508 1011 c 128
 462 1011 425 1026 397 1056 c 128
 369 1086 355 1124 355 1171 c 128
 355 1218 371 1258 403 1291 c 128
 435 1324 474 1340 520 1340 c 128
 566 1340 602 1325 630 1296 c 128
EndSplineSet
Colour: ffffff
EndChar

StartChar: ae
Encoding: 166 230 165
Width: 1084
VWidth: 1655
GlyphClass: 2
Flags: HMW
LayerCount: 2
Fore
SplineSet
881 897 m 0
 933 897 974 881 1003 850 c 128
 1032 819 1047 775 1047 718 c 128
 1047 661 1024 604 978 544 c 128
 932 484 877 434 811 393 c 128
 745 352 682 323 621 305 c 1
 622 235 635 184 661 152 c 128
 687 120 723 104 770 104 c 0
 857 104 930 151 990 246 c 1
 1026 214 l 1
 1004 148 964 91 905 42 c 128
 846 -7 780 -31 709 -31 c 128
 638 -31 581 -8 538 39 c 128
 495 86 471 151 465 235 c 1
 423 159 377 97 328 50 c 128
 279 3 229 -21 180 -21 c 0
 84 -21 36 59 36 218 c 0
 36 305 55 400 93 505 c 128
 131 610 184 701 248 779 c 128
 312 857 378 895 447 895 c 0
 482 895 515 879 544 847 c 128
 573 815 593 775 605 726 c 1
 688 840 780 897 881 897 c 0
254 628 m 128
 236 587 221 537 209 479 c 128
 197 421 191 360 191 294 c 128
 191 228 195 186 203 165 c 128
 211 144 228 134 254 134 c 0
 302 134 358 185 421 286 c 1
 484 387 528 512 555 660 c 1
 545 688 526 713 496 736 c 128
 466 759 438 770 409 770 c 128
 380 770 350 757 322 730 c 128
 294 703 272 669 254 628 c 128
822 512 m 128
 871 571 895 632 895 696 c 128
 895 760 869 791 816 791 c 0
 706 791 641 653 623 377 c 1
 706 408 773 453 822 512 c 128
EndSplineSet
Colour: ffffff
EndChar

StartChar: ccedilla
Encoding: 167 231 166
Width: 660
VWidth: 1655
GlyphClass: 2
Flags: HMW
LayerCount: 2
Fore
SplineSet
318 -75 m 1
 377 -126 406 -174 405 -221 c 0
 405 -290 340 -343 209 -381 c 1
 190 -323 l 1
 246 -303 274 -276 274 -242 c 0
 274 -215 250 -179 202 -134 c 1
 276 -31 l 1
 133 0 36 68.4365 36 322 c 128
 36 410.227 48 485.587 72 549 c 128
 96 618 128 677 166 727 c 128
 204 777 248 817 297 847 c 128
 346 877 398 893 450 893 c 128
 502 893 544 878 576 847 c 128
 608 816 623 778 623 732 c 128
 623 686 612 653 590 632 c 128
 568 611 533 598 484 592 c 1
 484 602 481 625 474 663 c 0
 461 732 441 774 414 790 c 0
 404 795 394 797 382 796 c 0
 322 796 276 760 245 687 c 128
 214 614 198 521 198 411 c 128
 198 301 211 221 239 172 c 128
 267 123 314 98 381 98 c 2
 383 98 l 2
 415 98 446 110 478 133 c 128
 510 156 537 188 558 227 c 1
 594 195 l 1
 581 146 551 101 505 59 c 128
 459 17 408 -11 351 -24 c 1
 318 -75 l 1
EndSplineSet
Colour: ffffff
EndChar

StartChar: egrave
Encoding: 168 232 167
Width: 657
VWidth: 1655
GlyphClass: 2
Flags: HMW
LayerCount: 2
Fore
SplineSet
576 849 m 128
 606 817 620 777 620 726 c 0
 620 630 571 547 472 477 c 1
 389 418 296 373 195 341 c 1
 199 183 253 104 358 104 c 0
 396 104 433 118 469 144 c 128
 505 170 536 204 564 246 c 1
 601 214 l 1
 578 147 536 89 478 41 c 128
 420 -7 353 -31 277 -31 c 128
 201 -31 143 -2 100 56 c 128
 57 114 36 193 36 293 c 128
 36 393 55 488 94 580 c 128
 133 672 185 749 250 808 c 128
 315 867 382 897 453 897 c 0
 505 897 546 881 576 849 c 128
468 698 m 0
 468 760 441 791 388 790 c 0
 276 790 212 664 196 414 c 1
 377 481 468 576 468 698 c 0
269 1315 m 1
 382 1351 l 1
 512 1024 l 1
 455 990 l 1
 269 1315 l 1
EndSplineSet
Colour: ffffff
EndChar

StartChar: eacute
Encoding: 169 233 168
Width: 657
VWidth: 1655
GlyphClass: 2
Flags: HMW
LayerCount: 2
Fore
SplineSet
576 849 m 128
 606 817 620 777 620 726 c 0
 620 630 571 547 472 477 c 1
 389 418 296 373 195 341 c 1
 199 183 253 104 358 104 c 0
 396 104 433 118 469 144 c 128
 505 170 536 204 564 246 c 1
 601 214 l 1
 578 147 536 89 478 41 c 128
 420 -7 353 -31 277 -31 c 128
 201 -31 143 -2 100 56 c 128
 57 114 36 193 36 293 c 128
 36 393 55 488 94 580 c 128
 133 672 185 749 250 808 c 128
 315 867 382 897 453 897 c 0
 505 897 546 881 576 849 c 128
468 698 m 0
 468 760 441 791 388 790 c 0
 276 790 212 664 196 414 c 1
 377 481 468 576 468 698 c 0
590 1320 m 5
 411 1010 l 5
 360 1041 l 5
 479 1359 l 5
 590 1320 l 5
EndSplineSet
Colour: ffffff
EndChar

StartChar: ecircumflex
Encoding: 170 234 169
Width: 662
VWidth: 1655
GlyphClass: 2
Flags: HMW
LayerCount: 2
Fore
SplineSet
576 849 m 128
 606 817 620 777 620 726 c 0
 620 630 571 547 472 477 c 1
 389 418 296 373 195 341 c 1
 199 183 253 104 358 104 c 0
 396 104 433 118 469 144 c 128
 505 170 536 204 564 246 c 1
 601 214 l 1
 578 147 536 89 478 41 c 128
 420 -7 353 -31 277 -31 c 128
 201 -31 143 -2 100 56 c 128
 57 114 36 193 36 293 c 128
 36 393 55 488 94 580 c 128
 133 672 185 749 250 808 c 128
 315 867 382 897 453 897 c 0
 505 897 546 881 576 849 c 128
468 698 m 0
 468 760 441 791 388 790 c 0
 276 790 212 664 196 414 c 1
 377 481 468 576 468 698 c 0
451 1236 m 1
 625 1055 l 1
 577 1019 l 1
 417 1127 l 1
 407 1127 l 1
 270 1018 l 1
 232 1047 l 1
 397 1224 l 1
 451 1236 l 1
EndSplineSet
Colour: ffffff
EndChar

StartChar: edieresis
Encoding: 171 235 170
Width: 722
VWidth: 1655
GlyphClass: 2
Flags: HMW
LayerCount: 2
Fore
SplineSet
576 849 m 128
 606 817 620 777 620 726 c 0
 620 630 571 547 472 477 c 1
 389 418 296 373 195 341 c 1
 199 183 253 104 358 104 c 0
 396 104 433 118 469 144 c 128
 505 170 536 204 564 246 c 1
 601 214 l 1
 578 147 536 89 478 41 c 128
 420 -7 353 -31 277 -31 c 128
 201 -31 143 -2 100 56 c 128
 57 114 36 193 36 293 c 128
 36 393 55 488 94 580 c 128
 133 672 185 749 250 808 c 128
 315 867 382 897 453 897 c 0
 505 897 546 881 576 849 c 128
468 698 m 0
 468 760 441 791 388 790 c 0
 276 790 212 664 196 414 c 1
 377 481 468 576 468 698 c 0
659 1177 m 128
 676 1162 685 1144 685 1122 c 128
 685 1100 676 1082 659 1066 c 128
 642 1050 623 1043 600 1043 c 128
 577 1043 557 1050 541 1066 c 128
 525 1082 517 1100 517 1122 c 128
 517 1145 525 1163 541 1178 c 128
 557 1193 577 1199 600 1199 c 128
 623 1199 642 1192 659 1177 c 128
396 1177 m 128
 413 1162 421 1143 421 1121 c 128
 421 1099 413 1081 396 1066 c 128
 379 1051 361 1043 338 1043 c 128
 315 1043 295 1050 279 1066 c 128
 263 1082 255 1100 255 1122 c 128
 255 1145 263 1163 279 1178 c 128
 295 1193 315 1199 338 1199 c 128
 361 1199 379 1192 396 1177 c 128
EndSplineSet
Colour: ffffff
EndChar

StartChar: igrave
Encoding: 172 236 171
Width: 644
VWidth: 1655
GlyphClass: 2
Flags: HMW
LayerCount: 2
Fore
SplineSet
376 254 m 1
 372 225 371 201 371 181 c 0
 371 142 382 123 405 123 c 128
 428 123 455 134 487 157 c 128
 519 180 545 209 565 246 c 1
 607 217 l 1
 547 57 451 -23 319 -23 c 0
 278 -23 248 -10 231 15 c 128
 214 40 206 71 206 108 c 128
 206 145 210 208 219 296 c 1
 255 611 l 2
 257 634 258 656 258 676 c 0
 258 728 246 754 222 754 c 128
 198 754 153 702 84 599 c 1
 36 631 l 1
 65 707 108 772 164 826 c 128
 220 880 275 906 330 906 c 0
 392 906 423 859 421 766 c 0
 421 758 416 692 404 569 c 1
 376 254 l 1
121 1331 m 1
 233 1367 l 1
 362 1041 l 1
 307 1006 l 1
 121 1331 l 1
EndSplineSet
Colour: ffffff
EndChar

StartChar: iacute
Encoding: 173 237 172
Width: 644
VWidth: 1655
GlyphClass: 2
Flags: HMW
LayerCount: 2
Fore
SplineSet
376 254 m 1
 372 225 371 201 371 181 c 0
 371 142 382 123 405 123 c 128
 428 123 455 134 487 157 c 128
 519 180 545 209 565 246 c 1
 607 217 l 1
 547 57 451 -23 319 -23 c 0
 278 -23 248 -10 231 15 c 128
 214 40 206 71 206 108 c 128
 206 145 210 208 219 296 c 1
 255 611 l 2
 257 634 258 656 258 676 c 0
 258 728 246 754 222 754 c 128
 198 754 153 702 84 599 c 1
 36 631 l 1
 65 707 108 772 164 826 c 128
 220 880 275 906 330 906 c 0
 392 906 423 859 421 766 c 0
 421 758 416 692 404 569 c 1
 376 254 l 1
542 1336 m 1
 360 1026 l 1
 312 1057 l 1
 430 1375 l 1
 542 1336 l 1
EndSplineSet
Colour: ffffff
EndChar

StartChar: icircumflex
Encoding: 174 238 173
Width: 644
VWidth: 1655
GlyphClass: 2
Flags: HMW
LayerCount: 2
Fore
SplineSet
376 254 m 1
 372 225 371 201 371 181 c 0
 371 142 382 123 405 123 c 128
 428 123 455 134 487 157 c 128
 519 180 545 209 565 246 c 1
 607 217 l 1
 547 57 451 -23 319 -23 c 0
 278 -23 248 -10 231 15 c 128
 214 40 206 71 206 108 c 128
 206 145 210 208 219 296 c 1
 255 611 l 2
 257 634 258 656 258 676 c 0
 258 728 246 754 222 754 c 128
 198 754 153 702 84 599 c 1
 36 631 l 1
 65 707 108 772 164 826 c 128
 220 880 275 906 330 906 c 0
 392 906 423 859 421 766 c 0
 421 758 416 692 404 569 c 1
 376 254 l 1
341 1252 m 1
 517 1071 l 1
 468 1036 l 1
 308 1142 l 1
 298 1142 l 1
 160 1034 l 1
 124 1064 l 1
 289 1239 l 1
 341 1252 l 1
EndSplineSet
Colour: ffffff
EndChar

StartChar: idieresis
Encoding: 175 239 174
Width: 644
VWidth: 1655
GlyphClass: 2
Flags: HMW
LayerCount: 2
Fore
SplineSet
376 254 m 1
 372 225 371 201 371 181 c 0
 371 142 382 123 405 123 c 128
 428 123 455 134 487 157 c 128
 519 180 545 209 565 246 c 1
 607 217 l 1
 547 57 451 -23 319 -23 c 0
 278 -23 248 -10 231 15 c 128
 214 40 206 71 206 108 c 128
 206 145 210 208 219 296 c 1
 255 611 l 2
 257 634 258 656 258 676 c 0
 258 728 246 754 222 754 c 128
 198 754 153 702 84 599 c 1
 36 631 l 1
 65 707 108 772 164 826 c 128
 220 880 275 906 330 906 c 0
 392 906 423 859 421 766 c 0
 421 758 416 692 404 569 c 1
 376 254 l 1
511 1193 m 128
 529 1178 537 1160 537 1138 c 128
 537 1116 529 1099 511 1083 c 128
 493 1067 474 1060 451 1060 c 128
 428 1060 408 1067 391 1083 c 128
 374 1099 367 1117 367 1139 c 128
 367 1161 374 1179 391 1194 c 128
 408 1209 428 1215 451 1215 c 128
 474 1215 493 1208 511 1193 c 128
247 1193 m 128
 264 1178 272 1160 272 1138 c 128
 272 1116 264 1098 247 1083 c 128
 230 1068 211 1060 188 1060 c 128
 165 1060 145 1067 129 1083 c 128
 113 1099 106 1117 106 1139 c 128
 106 1161 113 1179 129 1194 c 128
 145 1209 165 1215 188 1215 c 128
 211 1215 230 1208 247 1193 c 128
EndSplineSet
Colour: ffffff
EndChar

StartChar: eth
Encoding: 176 240 175
Width: 823
VWidth: 1655
GlyphClass: 2
Flags: HMW
LayerCount: 2
Fore
SplineSet
663 1085 m 1
 744 951 784 792 785 608 c 0
 785 389 732 221 626 105 c 0
 546 18 454 -26 350 -26 c 0
 281 -26 223 -9 176 24 c 0
 83 89 37 198 36 353 c 0
 36 382 37 411 41 442 c 1
 58 577 106 683 187 762 c 128
 268 841 362 881 470 881 c 0
 501 881 530 873 556 858 c 128
 582 843 598 821 605 791 c 1
 611 791 l 1
 599 853 572 939 529 1048 c 1
 322 1008 l 1
 341 1085 l 1
 501 1117 l 1
 478 1164 442 1218 393 1277 c 1
 501 1277 l 1
 552 1234 593 1190 625 1145 c 1
 766 1176 l 1
 747 1101 l 1
 663 1085 l 1
442 790 m 2
 376 790 325 766 288 717 c 128
 251 668 226 592 212 489 c 0
 207 457 205 420 207 377 c 0
 207 280 222 205 253 151 c 128
 284 97 330 70 391 70 c 0
 509 70 582 185 610 416 c 0
 614 445 615 474 615 502 c 0
 615 587 600 656 569 708 c 128
 538 760 498 787 449 790 c 1
 442 790 l 2
EndSplineSet
Colour: ffffff
EndChar

StartChar: ntilde
Encoding: 177 241 176
Width: 1059
VWidth: 1655
GlyphClass: 2
Flags: HMW
LayerCount: 2
Fore
SplineSet
377 344 m 1
 373 207 360 112 334 56 c 128
 308 0 266 -28 207 -28 c 0
 205 -28 191 -27 165 -24 c 1
 151 3 l 1
 233 388 l 1
 255 620 l 2
 257 648 258 673 258 696 c 0
 258 745 246 769 221 768 c 0
 208 768 188 751 159 718 c 128
 130 685 105 650 84 613 c 1
 36 651 l 1
 63 724 105 786 161 840 c 128
 217 894 275 921 336 921 c 0
 388 921 414 887 413 818 c 0
 413 788 409 753 400 713 c 0
 390 672 385 644 382 627 c 0
 374 592 371 574 372 573 c 1
 383 567 l 1
 413 658 458 737 517 801 c 128
 576 865 632 897 685 897 c 128
 738 897 778 883 804 856 c 128
 830 829 843 794 843 750 c 128
 843 706 840 662 834 615 c 1
 790 253 l 2
 785 218 783 195 783 181 c 0
 783 141 795 121 818 121 c 128
 841 121 869 133 901 156 c 128
 933 179 959 209 979 246 c 1
 1022 216 l 1
 962 56 861 -24 718 -24 c 0
 653 -24 620 18 620 101 c 0
 620 112 627 177 641 295 c 2
 664 488 l 2
 674 571 678 625 679 649 c 0
 679 698 660 722 623 721 c 0
 518 721 436 595 377 344 c 1
850 1203 m 1
 819 1109 776 1062 723 1064 c 2
 711 1064 l 1
 493 1094 l 1
 489 1094 l 2
 469 1094 453 1082 439 1058 c 1
 430 1047 l 1
 393 1055 l 1
 395 1062 398 1072 402 1086 c 128
 406 1100 414 1116 428 1136 c 0
 453 1175 481 1195 514 1196 c 2
 520 1196 l 1
 522 1194 523 1194 527 1194 c 2
 746 1164 l 1
 748 1164 l 2
 766 1164 783 1178 803 1205 c 1
 850 1203 l 1
EndSplineSet
Colour: ffffff
EndChar

StartChar: ograve
Encoding: 178 242 177
Width: 735
VWidth: 1655
GlyphClass: 2
Flags: HMW
LayerCount: 2
Fore
SplineSet
107 79 m 128
 59 149 36 236 36 340 c 128
 36 444 54 537 89 620 c 128
 124 703 171 770 232 821 c 128
 293 872 360 897 433 897 c 128
 506 897 569 863 620 795 c 128
 671 727 697 644 697 546 c 128
 697 448 682 358 651 274 c 128
 620 190 574 119 513 61 c 128
 452 3 381 -26 300 -26 c 128
 219 -26 155 9 107 79 c 128
258 733 m 0
 204 672 177 581 177 460 c 0
 177 325 208 221 269 146 c 0
 299 109 332 89 369 90 c 128
 406 91 439 107 468 139 c 0
 524 204 552 300 552 424 c 0
 552 558 522 659 463 730 c 0
 433 765 399 783 361 784 c 128
 323 785 289 767 258 733 c 0
227 1298 m 1
 339 1336 l 1
 470 1008 l 1
 413 973 l 1
 227 1298 l 1
EndSplineSet
Colour: ffffff
EndChar

StartChar: oacute
Encoding: 179 243 178
Width: 735
VWidth: 1655
GlyphClass: 2
Flags: HMW
LayerCount: 2
Fore
SplineSet
107 79 m 128
 59 149 36 236 36 340 c 128
 36 444 54 537 89 620 c 128
 124 703 171 770 232 821 c 128
 293 872 360 897 433 897 c 128
 506 897 569 863 620 795 c 128
 671 727 697 644 697 546 c 128
 697 448 682 358 651 274 c 128
 620 190 574 119 513 61 c 128
 452 3 381 -26 300 -26 c 128
 219 -26 155 9 107 79 c 128
258 733 m 0
 204 672 177 581 177 460 c 0
 177 325 208 221 269 146 c 0
 299 109 332 89 369 90 c 128
 406 91 439 107 468 139 c 0
 524 204 552 300 552 424 c 0
 552 558 522 659 463 730 c 0
 433 765 399 783 361 784 c 128
 323 785 289 767 258 733 c 0
648 1304 m 1
 468 994 l 1
 418 1024 l 1
 538 1342 l 1
 648 1304 l 1
EndSplineSet
Colour: ffffff
EndChar

StartChar: ocircumflex
Encoding: 180 244 179
Width: 735
VWidth: 1655
GlyphClass: 2
Flags: HMW
LayerCount: 2
Fore
SplineSet
107 79 m 128
 59 149 36 236 36 340 c 128
 36 444 54 537 89 620 c 128
 124 703 171 770 232 821 c 128
 293 872 360 897 433 897 c 128
 506 897 569 863 620 795 c 128
 671 727 697 644 697 546 c 128
 697 448 682 358 651 274 c 128
 620 190 574 119 513 61 c 128
 452 3 381 -26 300 -26 c 128
 219 -26 155 9 107 79 c 128
258 733 m 0
 204 672 177 581 177 460 c 0
 177 325 208 221 269 146 c 0
 299 109 332 89 369 90 c 128
 406 91 439 107 468 139 c 0
 524 204 552 300 552 424 c 0
 552 558 522 659 463 730 c 0
 433 765 399 783 361 784 c 128
 323 785 289 767 258 733 c 0
449 1220 m 1
 623 1039 l 1
 574 1003 l 1
 414 1111 l 1
 405 1111 l 1
 268 1001 l 1
 230 1031 l 1
 395 1207 l 1
 449 1220 l 1
EndSplineSet
Colour: ffffff
EndChar

StartChar: otilde
Encoding: 181 245 180
Width: 735
VWidth: 1655
GlyphClass: 2
Flags: HMW
LayerCount: 2
Fore
SplineSet
107 79 m 128
 59 149 36 236 36 340 c 128
 36 444 54 537 89 620 c 128
 124 703 171 770 232 821 c 128
 293 872 360 897 433 897 c 128
 506 897 569 863 620 795 c 128
 671 727 697 644 697 546 c 128
 697 448 682 358 651 274 c 128
 620 190 574 119 513 61 c 128
 452 3 381 -26 300 -26 c 128
 219 -26 155 9 107 79 c 128
258 733 m 0
 204 672 177 581 177 460 c 0
 177 325 208 221 269 146 c 0
 299 109 332 89 369 90 c 128
 406 91 439 107 468 139 c 0
 524 204 552 300 552 424 c 0
 552 558 522 659 463 730 c 0
 433 765 399 783 361 784 c 128
 323 785 289 767 258 733 c 0
656 1171 m 1
 625 1077 582 1030 528 1031 c 2
 517 1031 l 1
 298 1062 l 1
 295 1062 l 2
 275 1062 259 1050 245 1026 c 1
 237 1015 l 1
 199 1022 l 1
 201 1029 204 1039 208 1053 c 128
 212 1067 220 1084 233 1105 c 0
 258 1144 286 1164 319 1163 c 2
 326 1163 l 1
 328 1161 329 1161 333 1161 c 2
 550 1132 l 1
 553 1132 l 2
 571 1132 589 1146 609 1173 c 1
 656 1171 l 1
EndSplineSet
Colour: ffffff
EndChar

StartChar: odieresis
Encoding: 182 246 181
Width: 735
VWidth: 1655
GlyphClass: 2
Flags: HMW
LayerCount: 2
Fore
SplineSet
107 79 m 128
 59 149 36 236 36 340 c 128
 36 444 54 537 89 620 c 128
 124 703 171 770 232 821 c 128
 293 872 360 897 433 897 c 128
 506 897 569 863 620 795 c 128
 671 727 697 644 697 546 c 128
 697 448 682 358 651 274 c 128
 620 190 574 119 513 61 c 128
 452 3 381 -26 300 -26 c 128
 219 -26 155 9 107 79 c 128
258 733 m 0
 204 672 177 581 177 460 c 0
 177 325 208 221 269 146 c 0
 299 109 332 89 369 90 c 128
 406 91 439 107 468 139 c 0
 524 204 552 300 552 424 c 0
 552 558 522 659 463 730 c 0
 433 765 399 783 361 784 c 128
 323 785 289 767 258 733 c 0
617 1160 m 128
 635 1145 643 1127 643 1105 c 128
 643 1083 635 1066 617 1050 c 128
 599 1034 580 1027 557 1027 c 128
 534 1027 515 1034 498 1050 c 128
 481 1066 474 1084 474 1106 c 128
 474 1128 481 1146 498 1161 c 128
 515 1176 534 1182 557 1182 c 128
 580 1182 599 1175 617 1160 c 128
354 1160 m 128
 371 1145 379 1127 379 1105 c 128
 379 1083 371 1065 354 1050 c 128
 337 1035 319 1027 296 1027 c 128
 273 1027 253 1034 236 1050 c 128
 219 1066 212 1084 212 1106 c 128
 212 1128 219 1146 236 1161 c 128
 253 1176 273 1182 296 1182 c 128
 319 1182 337 1175 354 1160 c 128
EndSplineSet
Colour: ffffff
EndChar

StartChar: divide
Encoding: 183 247 182
Width: 896
VWidth: 1655
GlyphClass: 2
Flags: HMW
LayerCount: 2
Fore
SplineSet
604 790 m 0
 604 782 604 777 602 773 c 1
 596 740 581 711 554 688 c 128
 527 665 498 653 467 653 c 128
 436 653 411 662 393 682 c 128
 375 702 367 720 367 740 c 128
 367 760 367 771 368 775 c 1
 372 806 387 832 413 853 c 128
 439 874 468 885 499 885 c 132
 530 885 555 876 575 857 c 128
 595 838 604 817 604 790 c 0
516 238 m 0
 516 230 516 225 515 221 c 1
 509 188 493 160 466 137 c 128
 439 114 409 103 379 103 c 128
 349 103 325 112 306 131 c 128
 287 150 278 168 278 188 c 128
 278 208 278 219 280 223 c 1
 284 254 299 280 326 301 c 128
 353 322 381 332 412 332 c 128
 443 332 467 323 487 305 c 128
 507 287 516 265 516 238 c 0
63 548 m 1
 859 548 l 1
 831 446 l 1
 36 446 l 1
 63 548 l 1
EndSplineSet
Colour: ffffff
EndChar

StartChar: oslash
Encoding: 184 248 183
Width: 751
VWidth: 1655
GlyphClass: 2
Flags: HMW
LayerCount: 2
Fore
SplineSet
271 163 m 1
 305 114 341 89 381 90 c 128
 421 91 455 107 484 139 c 0
 540 204 568 300 568 424 c 0
 568 503 555 576 528 644 c 1
 271 163 l 1
274 733 m 0
 220 672 193 581 193 460 c 0
 193 377 206 301 233 233 c 1
 490 716 l 1
 459 761 423 784 382 784 c 128
 341 784 305 767 274 733 c 0
573 915 m 1
 702 923 l 1
 634 794 l 1
 686 727 712 645 713 547 c 128
 714 449 698 358 667 274 c 128
 636 190 590 119 529 61 c 128
 468 3 398 -26 319 -26 c 0
 280 -26 242 -17 207 2 c 1
 165 -77 l 1
 36 -84 l 1
 125 80 l 1
 76 149 52 235 52 339 c 128
 52 443 70 537 105 620 c 128
 140 703 187 770 248 821 c 128
 309 872 374 897 444 897 c 0
 476 897 511 888 549 869 c 1
 573 915 l 1
EndSplineSet
Colour: ffffff
EndChar

StartChar: ugrave
Encoding: 185 249 184
Width: 1032
VWidth: 1655
GlyphClass: 2
Flags: HMW
LayerCount: 2
Fore
SplineSet
685 817 m 1
 708 872 747 900 804 900 c 0
 818 900 831 899 846 895 c 1
 862 867 l 1
 792 484 l 1
 775 284 l 2
 770 233 767 199 768 178 c 128
 769 157 771 143 777 135 c 128
 783 127 794 123 810 123 c 128
 826 123 849 139 880 170 c 128
 911 201 936 234 956 270 c 1
 995 242 l 1
 943 64 846 -25 702 -24 c 0
 643 -24 614 17 613 98 c 0
 613 139 622 194 641 263 c 1
 630 265 l 1
 597 174 555 102 506 51 c 128
 457 0 405 -26 352 -26 c 128
 299 -26 258 -12 232 16 c 128
 206 44 193 77 193 118 c 128
 193 159 196 205 202 256 c 1
 255 602 l 1
 260 637 262 661 261 676 c 0
 261 717 250 737 227 738 c 0
 196 738 148 689 84 592 c 1
 36 623 l 1
 65 699 108 765 164 819 c 128
 220 873 275 900 330 900 c 0
 395 900 428 857 426 770 c 0
 426 743 418 673 400 561 c 2
 372 385 l 1
 362 328 358 281 358 242 c 128
 358 203 361 179 370 167 c 128
 379 155 393 150 413 150 c 0
 461 150 504 179 543 237 c 1
 582 296 617 393 648 527 c 1
 650 668 662 764 685 817 c 1
387 1331 m 1
 500 1367 l 1
 630 1041 l 1
 573 1006 l 1
 387 1331 l 1
EndSplineSet
Colour: ffffff
EndChar

StartChar: uacute
Encoding: 186 250 185
Width: 1032
VWidth: 1655
GlyphClass: 2
Flags: HMW
LayerCount: 2
Fore
SplineSet
685 817 m 1
 708 872 747 900 804 900 c 0
 818 900 831 899 846 895 c 1
 862 867 l 1
 792 484 l 1
 775 284 l 2
 770 233 767 199 768 178 c 128
 769 157 771 143 777 135 c 128
 783 127 794 123 810 123 c 128
 826 123 849 139 880 170 c 128
 911 201 936 234 956 270 c 1
 995 242 l 1
 943 64 846 -25 702 -24 c 0
 643 -24 614 17 613 98 c 0
 613 139 622 194 641 263 c 1
 630 265 l 1
 597 174 555 102 506 51 c 128
 457 0 405 -26 352 -26 c 128
 299 -26 258 -12 232 16 c 128
 206 44 193 77 193 118 c 128
 193 159 196 205 202 256 c 1
 255 602 l 1
 260 637 262 661 261 676 c 0
 261 717 250 737 227 738 c 0
 196 738 148 689 84 592 c 1
 36 623 l 1
 65 699 108 765 164 819 c 128
 220 873 275 900 330 900 c 0
 395 900 428 857 426 770 c 0
 426 743 418 673 400 561 c 2
 372 385 l 1
 362 328 358 281 358 242 c 128
 358 203 361 179 370 167 c 128
 379 155 393 150 413 150 c 0
 461 150 504 179 543 237 c 1
 582 296 617 393 648 527 c 1
 650 668 662 764 685 817 c 1
808 1336 m 1
 628 1026 l 1
 578 1057 l 1
 698 1375 l 1
 808 1336 l 1
EndSplineSet
Colour: ffffff
EndChar

StartChar: ucircumflex
Encoding: 187 251 186
Width: 1032
VWidth: 1655
GlyphClass: 2
Flags: HMW
LayerCount: 2
Fore
SplineSet
685 817 m 1
 708 872 747 900 804 900 c 0
 818 900 831 899 846 895 c 1
 862 867 l 1
 792 484 l 1
 775 284 l 2
 770 233 767 199 768 178 c 128
 769 157 771 143 777 135 c 128
 783 127 794 123 810 123 c 128
 826 123 849 139 880 170 c 128
 911 201 936 234 956 270 c 1
 995 242 l 1
 943 64 846 -25 702 -24 c 0
 643 -24 614 17 613 98 c 0
 613 139 622 194 641 263 c 1
 630 265 l 1
 597 174 555 102 506 51 c 128
 457 0 405 -26 352 -26 c 128
 299 -26 258 -12 232 16 c 128
 206 44 193 77 193 118 c 128
 193 159 196 205 202 256 c 1
 255 602 l 1
 260 637 262 661 261 676 c 0
 261 717 250 737 227 738 c 0
 196 738 148 689 84 592 c 1
 36 623 l 1
 65 699 108 765 164 819 c 128
 220 873 275 900 330 900 c 0
 395 900 428 857 426 770 c 0
 426 743 418 673 400 561 c 2
 372 385 l 1
 362 328 358 281 358 242 c 128
 358 203 361 179 370 167 c 128
 379 155 393 150 413 150 c 0
 461 150 504 179 543 237 c 1
 582 296 617 393 648 527 c 1
 650 668 662 764 685 817 c 1
609 1252 m 1
 783 1071 l 1
 735 1036 l 1
 574 1142 l 1
 565 1142 l 1
 428 1034 l 1
 390 1064 l 1
 555 1239 l 1
 609 1252 l 1
EndSplineSet
Colour: ffffff
EndChar

StartChar: udieresis
Encoding: 188 252 187
Width: 1032
VWidth: 1655
GlyphClass: 2
Flags: HMW
LayerCount: 2
Fore
SplineSet
685 817 m 1
 708 872 747 900 804 900 c 0
 818 900 831 899 846 895 c 1
 862 867 l 1
 792 484 l 1
 775 284 l 2
 770 233 767 199 768 178 c 128
 769 157 771 143 777 135 c 128
 783 127 794 123 810 123 c 128
 826 123 849 139 880 170 c 128
 911 201 936 234 956 270 c 1
 995 242 l 1
 943 64 846 -25 702 -24 c 0
 643 -24 614 17 613 98 c 0
 613 139 622 194 641 263 c 1
 630 265 l 1
 597 174 555 102 506 51 c 128
 457 0 405 -26 352 -26 c 128
 299 -26 258 -12 232 16 c 128
 206 44 193 77 193 118 c 128
 193 159 196 205 202 256 c 1
 255 602 l 1
 260 637 262 661 261 676 c 0
 261 717 250 737 227 738 c 0
 196 738 148 689 84 592 c 1
 36 623 l 1
 65 699 108 765 164 819 c 128
 220 873 275 900 330 900 c 0
 395 900 428 857 426 770 c 0
 426 743 418 673 400 561 c 2
 372 385 l 1
 362 328 358 281 358 242 c 128
 358 203 361 179 370 167 c 128
 379 155 393 150 413 150 c 0
 461 150 504 179 543 237 c 1
 582 296 617 393 648 527 c 1
 650 668 662 764 685 817 c 1
777 1193 m 128
 795 1178 803 1160 803 1138 c 128
 803 1116 795 1099 777 1083 c 128
 759 1067 740 1060 717 1060 c 128
 694 1060 675 1067 659 1083 c 128
 643 1099 635 1117 635 1139 c 128
 635 1161 643 1179 659 1194 c 128
 675 1209 694 1215 717 1215 c 128
 740 1215 759 1208 777 1193 c 128
515 1193 m 128
 532 1178 540 1160 540 1138 c 128
 540 1116 532 1098 515 1083 c 128
 498 1068 479 1060 456 1060 c 128
 433 1060 413 1067 396 1083 c 128
 379 1099 372 1117 372 1139 c 128
 372 1161 379 1179 396 1194 c 128
 413 1209 433 1215 456 1215 c 128
 479 1215 498 1208 515 1193 c 128
EndSplineSet
Colour: ffffff
EndChar

StartChar: yacute
Encoding: 189 253 188
Width: 897
VWidth: 1655
GlyphClass: 2
Flags: HMW
LayerCount: 2
Fore
SplineSet
85 592 m 1
 36 629 l 1
 61 700 98 764 150 819 c 128
 202 874 253 902 301 902 c 128
 349 902 385 885 410 852 c 128
 435 819 452 766 462 693 c 2
 523 205 l 1
 528 162 l 1
 537 162 l 1
 613 276 659 354 674 395 c 128
 689 436 697 467 700 490 c 128
 703 513 704 545 704 585 c 128
 704 625 690 671 663 723 c 128
 636 775 604 817 569 848 c 1
 582 864 600 877 624 889 c 128
 648 901 672 906 695 906 c 0
 740 906 778 886 811 846 c 128
 844 806 860 760 860 707 c 0
 860 616 835 524 786 429 c 128
 737 334 651 206 527 46 c 1
 514 -73 474 -174 408 -257 c 128
 342 -340 265 -381 178 -381 c 0
 140 -381 108 -370 80 -349 c 128
 52 -328 38 -302 38 -270 c 2
 38 -265 l 1
 41 -236 46 -213 55 -195 c 128
 64 -177 80 -160 103 -141 c 1
 154 -189 205 -213 254 -212 c 128
 303 -211 339 -198 362 -170 c 128
 385 -142 397 -93 397 -24 c 0
 397 13 394 57 387 109 c 2
 323 610 l 2
 317 652 307 685 289 710 c 128
 271 735 252 748 231 748 c 128
 210 748 188 733 161 703 c 128
 134 673 108 635 85 592 c 1
757 1336 m 1
 578 1026 l 1
 528 1057 l 1
 648 1375 l 1
 757 1336 l 1
EndSplineSet
Colour: ffffff
EndChar

StartChar: thorn
Encoding: 190 254 189
Width: 955
VWidth: 1655
GlyphClass: 2
Flags: HMW
LayerCount: 2
Back
SplineSet
164 -251 m 1
 309 887 l 1
 345 1145 l 1
 206 1171 l 1
 217 1246 l 1
 505 1269 l 1
 522 1248 l 1
 464 839 l 1
 396 560 l 1
 408 558 l 1
 445 652 488 730 539 791 c 128
 590 852 643 882 699 882 c 128
 755 882 801 852 838 790 c 128
 875 728 894 646 894 545 c 128
 894 444 879 355 850 278 c 128
 821 201 780 142 729 103 c 0
 632 27 522 -11 401 -13 c 1
 391 61 l 1
 433 66 466 71 491 79 c 128
 516 87 544 99 576 119 c 0
 608 139 633 164 653 195 c 0
 699 268 722 378 722 527 c 0
 722 596 715 645 702 676 c 128
 689 707 668 722 637 722 c 0
 586 722 533 673 480 574 c 1
 426 473 390 341 371 179 c 1
 308 -270 l 1
 490 -291 l 1
 473 -362 l 1
 13 -362 l 1
 32 -293 l 1
 164 -251 l 1
EndSplineSet
Fore
SplineSet
187 -251 m 1
 332 887 l 1
 372 1175 l 1
 233 1201 l 1
 244 1276 l 1
 532 1299 l 1
 549 1278 l 1
 487 839 l 1
 419 560 l 1
 431 558 l 1
 468 652 511 730 562 791 c 128
 613 852 666 882 722 882 c 128
 778 882 824 852 861 790 c 128
 898 728 917 646 917 545 c 128
 917 444 902 355 873 278 c 128
 844 201 803 142 752 103 c 0
 655 27 545 -11 424 -13 c 1
 414 61 l 1
 456 66 489 71 514 79 c 128
 539 87 567 99 599 119 c 0
 631 139 656 164 676 195 c 0
 722 268 745 378 745 527 c 0
 745 596 738 645 725 676 c 128
 712 707 691 722 660 722 c 0
 609 722 556 673 503 574 c 1
 449 473 413 341 394 179 c 1
 331 -270 l 1
 513 -291 l 1
 496 -362 l 1
 36 -362 l 1
 55 -293 l 1
 187 -251 l 1
EndSplineSet
Colour: ffffff
EndChar

StartChar: ydieresis
Encoding: 191 255 190
Width: 897
VWidth: 1655
GlyphClass: 2
Flags: HMW
LayerCount: 2
Fore
SplineSet
85 592 m 1
 36 629 l 1
 61 700 98 764 150 819 c 128
 202 874 253 902 301 902 c 128
 349 902 385 885 410 852 c 128
 435 819 452 766 462 693 c 2
 523 205 l 1
 528 162 l 1
 537 162 l 1
 613 276 659 354 674 395 c 128
 689 436 697 467 700 490 c 128
 703 513 704 545 704 585 c 128
 704 625 690 671 663 723 c 128
 636 775 604 817 569 848 c 1
 582 864 600 877 624 889 c 128
 648 901 672 906 695 906 c 0
 740 906 778 886 811 846 c 128
 844 806 860 760 860 707 c 0
 860 616 835 524 786 429 c 128
 737 334 651 206 527 46 c 1
 514 -73 474 -174 408 -257 c 128
 342 -340 265 -381 178 -381 c 0
 140 -381 108 -370 80 -349 c 128
 52 -328 38 -302 38 -270 c 2
 38 -265 l 1
 41 -236 46 -213 55 -195 c 128
 64 -177 80 -160 103 -141 c 1
 154 -189 205 -213 254 -212 c 128
 303 -211 339 -198 362 -170 c 128
 385 -142 397 -93 397 -24 c 0
 397 13 394 57 387 109 c 2
 323 610 l 2
 317 652 307 685 289 710 c 128
 271 735 252 748 231 748 c 128
 210 748 188 733 161 703 c 128
 134 673 108 635 85 592 c 1
728 1193 m 128
 745 1178 752 1160 752 1138 c 128
 752 1116 745 1099 728 1083 c 128
 711 1067 691 1060 668 1060 c 128
 645 1060 625 1067 609 1083 c 128
 593 1099 585 1117 585 1139 c 128
 585 1161 593 1179 609 1194 c 128
 625 1209 645 1215 668 1215 c 128
 691 1215 711 1208 728 1193 c 128
465 1193 m 128
 482 1178 489 1160 489 1138 c 128
 489 1116 482 1098 465 1083 c 128
 448 1068 428 1060 405 1060 c 128
 382 1060 363 1067 347 1083 c 128
 331 1099 323 1117 323 1139 c 128
 323 1161 331 1179 347 1194 c 128
 363 1209 382 1215 405 1215 c 128
 428 1215 448 1208 465 1193 c 128
EndSplineSet
Colour: ffffff
EndChar

StartChar: circumflex
Encoding: 192 710 191
Width: 510
VWidth: 1655
GlyphClass: 2
Flags: HMW
LayerCount: 2
Fore
SplineSet
276 1548 m 1
 452 1367 l 1
 403 1332 l 1
 243 1438 l 1
 233 1438 l 1
 95 1331 l 1
 58 1359 l 1
 224 1536 l 1
 276 1548 l 1
EndSplineSet
Colour: ffffff
EndChar

StartChar: dotaccent
Encoding: 193 729 192
Width: 352
VWidth: 1655
GlyphClass: 2
Flags: HMW
LayerCount: 2
Fore
SplineSet
259 1527 m 128
 282 1506 294 1480 294 1448 c 128
 294 1416 282 1387 259 1364 c 128
 236 1341 208 1329 175 1329 c 128
 142 1329 115 1341 92 1364 c 128
 69 1387 58 1415 58 1448 c 128
 58 1481 70 1507 93 1528 c 128
 116 1549 143 1559 175 1559 c 128
 207 1559 236 1548 259 1527 c 128
EndSplineSet
Colour: ffffff
EndChar

StartChar: ring
Encoding: 194 730 193
Width: 434
VWidth: 1655
GlyphClass: 2
Flags: HMW
LayerCount: 2
Fore
SplineSet
151 1586 m 128
 135 1565 128 1538 128 1505 c 128
 128 1472 136 1444 154 1419 c 128
 172 1394 194 1382 222 1382 c 0
 278 1382 306 1419 306 1494 c 0
 306 1529 297 1558 279 1582 c 128
 261 1606 240 1617 214 1617 c 128
 188 1617 167 1607 151 1586 c 128
334 1620 m 128
 362 1590 376 1551 376 1505 c 128
 376 1459 361 1419 329 1386 c 128
 297 1353 258 1336 212 1336 c 128
 166 1336 128 1350 100 1379 c 128
 72 1408 58 1446 58 1493 c 128
 58 1540 74 1580 107 1614 c 128
 140 1648 179 1665 224 1665 c 128
 269 1665 306 1650 334 1620 c 128
EndSplineSet
Colour: ffffff
EndChar

StartChar: tilde
Encoding: 195 732 194
Width: 575
VWidth: 1655
GlyphClass: 2
Flags: HMW
LayerCount: 2
Fore
SplineSet
155 1389 m 2
 138 1389 119 1373 96 1342 c 1
 59 1351 l 1
 61 1358 64 1367 68 1381 c 128
 72 1395 80 1412 93 1432 c 0
 118 1471 146 1491 179 1492 c 2
 186 1492 l 1
 188 1490 190 1490 192 1490 c 2
 410 1461 l 1
 414 1461 l 2
 428 1461 446 1474 468 1501 c 1
 516 1500 l 1
 485 1406 442 1359 388 1359 c 2
 377 1359 l 1
 158 1389 l 1
 155 1389 l 2
EndSplineSet
Colour: ffffff
EndChar

StartChar: Germandbls
Encoding: 196 7838 195
Width: 1417
VWidth: 1655
GlyphClass: 2
Flags: HMW
LayerCount: 2
Fore
SplineSet
811 369 m 1
 791 317 780 271 781 232 c 128
 782 193 787 164 798 144 c 1
 807 122 823 103 846 86 c 0
 882 60 920 47 960 47 c 128
 1000 47 1034 57 1065 78 c 0
 1117 113 1143 160 1143 220 c 0
 1143 268 1132 308 1109 341 c 128
 1086 374 1036 428 959 502 c 128
 882 576 827 631 796 667 c 128
 765 703 742 738 727 770 c 128
 712 802 704 839 704 882 c 2
 704 893 l 1
 706 939 718 981 740 1020 c 1
 778 1090 836 1142 913 1176 c 1
 913 1184 l 1
 899 1184 l 2
 813 1184 742 1160 685 1113 c 128
 628 1066 589 1005 568 931 c 1
 559 902 554 871 550 838 c 1
 446 -2 l 1
 36 -2 l 1
 59 80 l 1
 277 134 l 1
 358 771 l 1
 370 844 379 896 388 926 c 128
 397 956 412 988 434 1022 c 0
 513 1146 658 1221 867 1246 c 1
 898 1251 942 1253 999 1252 c 128
 1056 1251 1110 1245 1161 1230 c 128
 1212 1215 1256 1194 1294 1163 c 1
 1329 1132 1351 1100 1363 1068 c 128
 1375 1036 1380 1010 1380 992 c 0
 1380 923 1359 873 1316 841 c 0
 1287 819 1257 808 1227 809 c 128
 1197 810 1168 816 1141 830 c 1
 1167 902 1180 958 1180 999 c 128
 1180 1040 1177 1069 1170 1086 c 128
 1163 1103 1151 1119 1131 1136 c 128
 1111 1153 1093 1162 1075 1164 c 1
 1071 1166 1066 1166 1057 1166 c 0
 1018 1166 984 1150 953 1117 c 1
 922 1086 903 1045 895 994 c 1
 891 978 890 963 890 948 c 128
 890 933 892 912 897 886 c 128
 902 860 909 839 920 821 c 0
 936 795 979 749 1050 683 c 128
 1121 617 1164 576 1180 561 c 0
 1223 520 1258 477 1285 432 c 0
 1319 377 1336 319 1336 258 c 128
 1336 197 1313 140 1266 88 c 1
 1237 54 1201 26 1158 3 c 0
 1082 -36 1001 -55 915 -56 c 0
 867 -56 816 -49 762 -33 c 1
 679 -6 619 39 583 101 c 1
 567 130 558 150 556 162 c 128
 554 174 553 184 553 195 c 0
 553 246 570 288 604 320 c 1
 640 359 688 378 747 378 c 0
 768 379 790 376 811 369 c 1
EndSplineSet
Colour: ffffff
EndChar

StartChar: endash
Encoding: 197 8211 196
Width: 704
VWidth: 1655
GlyphClass: 2
Flags: HMW
LayerCount: 2
Fore
SplineSet
61 504 m 1
 659 510 l 1
 643 408 l 1
 44 401 l 1
 61 504 l 1
EndSplineSet
Colour: ffffff
EndChar

StartChar: emdash
Encoding: 198 8212 197
Width: 1202
VWidth: 1655
GlyphClass: 2
Flags: HMW
LayerCount: 2
Fore
SplineSet
61 504 m 1
 1157 510 l 1
 1141 408 l 1
 44 401 l 1
 61 504 l 1
EndSplineSet
Colour: ffffff
EndChar

StartChar: quoteleft
Encoding: 199 8216 198
Width: 414
VWidth: 1655
GlyphClass: 2
Flags: HMW
LayerCount: 2
Fore
SplineSet
184 801 m 2
 169 801 l 1
 117 807 80 840 57 900 c 0
 47 924 43 948 42 971 c 0
 42 1072 92 1160 192 1236 c 1
 236 1272 285 1304 340 1331 c 1
 373 1278 l 1
 314 1247 272 1214 247 1176 c 128
 222 1138 210 1101 210 1066 c 0
 210 1064 212 1053 216 1031 c 128
 220 1009 230 987 250 964 c 128
 270 941 293 924 318 911 c 1
 308 875 291 848 264 829 c 128
 237 810 211 801 184 801 c 2
EndSplineSet
Colour: ffffff
EndChar

StartChar: quoteright
Encoding: 200 8217 199
Width: 413
VWidth: 1655
GlyphClass: 2
Flags: HMW
LayerCount: 2
Fore
SplineSet
232 1324 m 2
 245 1324 l 1
 297 1317 335 1284 358 1224 c 0
 368 1200 372 1177 372 1154 c 0
 373 1053 323 965 224 888 c 1
 180 852 130 821 74 794 c 1
 41 846 l 1
 100 877 141 911 167 949 c 128
 193 987 206 1023 206 1058 c 0
 206 1060 204 1071 200 1093 c 128
 196 1115 184 1138 164 1160 c 128
 144 1182 122 1199 97 1213 c 1
 107 1249 124 1277 151 1296 c 128
 178 1315 205 1324 232 1324 c 2
EndSplineSet
Colour: ffffff
EndChar

StartChar: quotesinglbase
Encoding: 201 8218 200
Width: 416
VWidth: 1655
GlyphClass: 2
Flags: HMW
LayerCount: 2
Fore
SplineSet
234 228 m 2
 247 228 l 1
 299 221 336 188 358 127 c 0
 368 101 371 77 372 54 c 128
 373 31 372 13 369 0 c 0
 355 -75 307 -144 224 -209 c 1
 180 -245 130 -276 75 -303 c 1
 43 -251 l 1
 102 -220 144 -186 169 -149 c 128
 194 -112 206 -75 206 -38 c 0
 206 -29 204 -17 200 0 c 128
 196 17 183 38 161 63 c 128
 139 88 119 105 98 116 c 1
 108 152 126 179 153 199 c 128
 180 219 207 228 234 228 c 2
EndSplineSet
Colour: ffffff
EndChar

StartChar: quotedblleft
Encoding: 202 8220 201
Width: 748
VWidth: 1655
GlyphClass: 2
Flags: HMW
LayerCount: 2
Fore
SplineSet
518 801 m 2
 504 801 l 1
 452 807 415 840 393 900 c 0
 383 924 379 948 378 971 c 0
 378 1072 427 1160 526 1236 c 1
 570 1272 620 1304 675 1331 c 1
 707 1278 l 1
 648 1247 607 1214 582 1176 c 128
 557 1138 544 1101 544 1066 c 0
 544 1064 546 1053 551 1031 c 128
 556 1009 567 987 587 964 c 128
 607 941 628 924 653 911 c 1
 643 875 626 848 599 829 c 128
 572 810 545 801 518 801 c 2
184 801 m 2
 169 801 l 1
 117 807 80 840 57 900 c 0
 47 924 43 948 42 971 c 0
 42 1072 92 1160 192 1236 c 1
 236 1272 285 1304 340 1331 c 1
 373 1278 l 1
 314 1247 272 1214 247 1176 c 128
 222 1138 210 1101 210 1066 c 0
 210 1064 212 1053 216 1031 c 128
 220 1009 230 987 250 964 c 128
 270 941 293 924 318 911 c 1
 308 875 291 848 264 829 c 128
 237 810 211 801 184 801 c 2
EndSplineSet
Colour: ffffff
EndChar

StartChar: quotedblright
Encoding: 203 8221 202
Width: 740
VWidth: 1655
GlyphClass: 2
Flags: HMW
LayerCount: 2
Fore
SplineSet
558 1324 m 2
 573 1324 l 1
 625 1317 662 1284 684 1224 c 0
 694 1200 698 1177 699 1154 c 0
 699 1053 649 965 550 888 c 1
 506 852 457 821 402 794 c 1
 369 846 l 1
 428 877 470 911 495 949 c 128
 520 987 532 1023 532 1058 c 0
 532 1060 530 1071 526 1093 c 128
 522 1115 511 1138 491 1160 c 128
 471 1182 449 1199 425 1213 c 1
 435 1249 453 1277 479 1296 c 128
 505 1315 531 1324 558 1324 c 2
232 1324 m 2
 245 1324 l 1
 297 1317 335 1284 358 1224 c 0
 368 1200 372 1177 372 1154 c 0
 373 1053 323 965 224 888 c 1
 180 852 130 821 74 794 c 1
 41 846 l 1
 100 877 141 911 167 949 c 128
 193 987 206 1023 206 1058 c 0
 206 1060 204 1071 200 1093 c 128
 196 1115 184 1138 164 1160 c 128
 144 1182 122 1199 97 1213 c 1
 107 1249 124 1277 151 1296 c 128
 178 1315 205 1324 232 1324 c 2
EndSplineSet
Colour: ffffff
EndChar

StartChar: dagger
Encoding: 204 8224 203
Width: 798
VWidth: 1655
GlyphClass: 2
Flags: HMW
LayerCount: 2
Fore
SplineSet
461 802 m 1
 761 811 l 1
 738 691 l 1
 447 702 l 1
 332 -355 l 1
 191 -343 l 1
 334 704 l 1
 37 698 l 1
 58 811 l 1
 347 802 l 1
 391 1229 l 1
 521 1218 l 1
 461 802 l 1
EndSplineSet
Colour: ffffff
EndChar

StartChar: daggerdbl
Encoding: 205 8225 204
Width: 865
VWidth: 1655
GlyphClass: 2
Flags: HMW
LayerCount: 2
Fore
SplineSet
474 421 m 1
 446 170 l 1
 752 176 l 1
 733 63 l 1
 433 72 l 1
 390 -355 l 1
 260 -344 l 1
 320 72 l 1
 38 63 l 1
 59 183 l 1
 333 171 l 1
 380 489 l 1
 402 704 l 1
 107 698 l 1
 128 811 l 1
 416 802 l 1
 459 1229 l 1
 589 1218 l 1
 529 802 l 1
 828 811 l 1
 805 691 l 1
 516 702 l 1
 474 421 l 1
EndSplineSet
Colour: ffffff
EndChar

StartChar: guilsinglleft
Encoding: 206 8249 205
Width: 432
VWidth: 1655
GlyphClass: 2
Flags: HMW
LayerCount: 2
Fore
SplineSet
41 460 m 1
 357 804 l 1
 393 745 l 1
 184 451 l 1
 299 137 l 1
 236 77 l 1
 39 440 l 1
 41 460 l 1
EndSplineSet
Colour: ffffff
EndChar

StartChar: guilsinglright
Encoding: 207 8250 206
Width: 438
VWidth: 1655
GlyphClass: 2
Flags: HMW
LayerCount: 2
Fore
SplineSet
399 460 m 1
 395 440 l 1
 80 77 l 1
 39 137 l 1
 254 451 l 1
 139 745 l 1
 191 804 l 1
 399 460 l 1
EndSplineSet
Colour: ffffff
EndChar

StartChar: Euro
Encoding: 208 8364 207
Width: 1173
VWidth: 1655
GlyphClass: 2
Flags: HMW
LayerCount: 2
Fore
SplineSet
942 385 m 1
 1028 398 l 1
 1023 108 l 1
 956 59 892 26 832 6 c 128
 772 -14 702 -24 621 -24 c 0
 477 -24 360 20 271 109 c 128
 182 198 138 319 138 472 c 2
 138 476 l 1
 38 476 l 1
 69 579 l 1
 145 579 l 1
 151 618 154 641 156 648 c 1
 66 648 l 1
 97 750 l 1
 184 750 l 1
 229 884 300 997 398 1090 c 0
 450 1139 513 1177 587 1204 c 128
 661 1231 739 1245 824 1245 c 0
 953 1245 1056 1212 1135 1145 c 1
 1064 820 l 1
 979 834 l 1
 965 1048 l 1
 942 1084 914 1110 884 1126 c 128
 854 1142 811 1150 756 1150 c 0
 666 1150 588 1115 522 1045 c 128
 456 975 409 876 381 750 c 1
 915 750 l 1
 873 648 l 1
 363 648 l 1
 363 646 l 1
 358 619 356 597 356 579 c 1
 849 579 l 1
 807 476 l 1
 354 476 l 1
 358 350 390 253 448 185 c 128
 506 117 584 83 682 83 c 0
 760 83 824 112 875 170 c 1
 942 385 l 1
EndSplineSet
Colour: ffffff
EndChar

StartChar: A.alt
Encoding: 211 -1 208
Width: 1437
VWidth: 1655
GlyphClass: 2
Flags: HMW
LayerCount: 2
Fore
SplineSet
696 537 m 1
 959 505 l 1
 870 1062 l 1
 866 1062 l 1
 830 934 795 819 760 716 c 1
 696 537 l 1
1014 1271 m 1
 1223 132 l 1
 1400 81 l 1
 1379 0 l 1
 802 0 l 1
 824 72 l 1
 1021 108 l 1
 971 432 l 1
 659 446 l 1
 586.412 261.506 446.588 -46.0762 239 -49 c 0
 127.705 -49 44.792 24.0859 36 123 c 1
 289.175 171.688 474.344 323.178 588 538 c 0
 657.1 667.137 777.312 988.083 834 1241 c 1
 1014 1271 l 1
EndSplineSet
Colour: ffffff
EndChar

StartChar: eight.osf
Encoding: 212 -1 209
Width: 844
VWidth: 0
Flags: HMW
LayerCount: 2
Fore
SplineSet
317.185 589 m 1
 318.61 598 l 1
 259.123 637.048 189.881 738.861 189.881 852.689 c 0
 189.881 1050.9 368.095 1201 550.116 1201 c 0
 704.371 1201 805.933 1114.94 805.933 988.262 c 0
 805.933 837.807 726.278 726.044 589.055 635 c 1
 587.629 626 l 1
 702.47 546.219 757.537 449.893 757.537 346.153 c 0
 757.537 125.719 578.539 -27 339.62 -27 c 0
 177.049 -27 37 63.5547 37 216.386 c 0
 37 372 158.896 504 317.185 589 c 1
207.693 271.465 m 0
 207.693 142 286.92 66 379.35 66 c 0
 489.776 66 590.864 121.341 590.864 269.176 c 0
 590.864 367.16 492.088 461.51 370.8 545 c 1
 286.896 504 207.693 398.431 207.693 271.465 c 0
353.67 949.405 m 0
 353.67 852.714 412.362 746.819 525.965 676 c 1
 574.132 721.122 652.234 799.6 652.234 944.094 c 0
 652.234 1034.37 610.258 1124 520.921 1124 c 0
 429.636 1124 353.67 1052.69 353.67 949.405 c 0
EndSplineSet
Colour: ffffff
EndChar

StartChar: five.osf
Encoding: 213 -1 210
Width: 967
VWidth: 0
Flags: HMW
LayerCount: 2
Fore
SplineSet
211 29 m 1
 205.368 -86.7236 241.973 -216 394.395 -216 c 0
 530.88 -216 650 -132.869 650 95 c 0
 650 243.445 524.556 374.214 270.493 376 c 1
 473.952 904 l 1
 698 908.571 842 942.857 924.288 984 c 1
 927.719 964.354 929.369 946.406 929.369 930.021 c 0
 929.369 786.263 836.791 752.071 709.957 752.071 c 0
 648.663 752.071 581.398 757.482 511.828 764 c 1
 426.301 520 l 1
 729.337 511.935 836 340.527 836 149 c 0
 836 -93.2744 605.493 -297 341.981 -297 c 0
 136.408 -297 38 -211 38 -121 c 0
 38 0 145.708 18.543 211 29 c 1
EndSplineSet
Colour: ffffff
EndChar

StartChar: four.osf
Encoding: 214 -1 211
Width: 1018
VWidth: 0
Flags: HMW
LayerCount: 2
Fore
SplineSet
38 164 m 1
 795.192 986 l 1
 857.342 968 l 1
 832.494 849 791.115 613 762.447 432 c 2
 727.444 211 l 1
 981.444 211 l 1
 944.646 86 l 1
 709.646 86 l 1
 650.736 -277 l 5
 472.877 -304 l 1
 535.121 89 l 1
 49.1221 89 l 1
 38 164 l 1
223.444 211 m 1
 553.444 211 l 1
 627.094 676 l 1
 223.444 211 l 1
EndSplineSet
Colour: ffffff
EndChar

StartChar: nine.osf
Encoding: 215 -1 212
Width: 821
VWidth: 0
Flags: HMW
LayerCount: 2
Fore
SplineSet
489.894 972 m 0
 705.921 972 782.713 805.591 782.713 623.612 c 0
 782.713 202.656 423.871 -168.857 49.2803 -282 c 1
 38 -208 l 1
 349.64 -84 467.944 132 539.479 319 c 1
 527.479 319 l 1
 467.866 252 383.373 230 296.373 230 c 0
 133.419 230 54.3945 338.898 54.3945 500.695 c 0
 54.3945 779.016 266.851 972 489.894 972 c 0
241.135 526.874 m 0
 241.135 412.444 287.021 338 386.479 338 c 0
 456.479 338 524.18 374 563.1 424 c 1
 588.208 499.565 599.993 574.051 599.993 658.681 c 0
 599.993 785.552 555.652 891 462.064 891 c 0
 344.049 891 241.135 755.071 241.135 526.874 c 0
EndSplineSet
Colour: ffffff
EndChar

StartChar: one.osf
Encoding: 216 -1 213
Width: 639
VWidth: 0
Flags: HMW
LayerCount: 2
Fore
SplineSet
38 0 m 1
 58.7207 74 l 1
 250.164 121 l 1
 358.024 802 l 1
 165.499 802 l 1
 186.695 882 l 1
 483.416 956 l 1
 551.416 956 l 1
 417.056 114 l 1
 600.671 80 l 1
 578 0 l 1
 38 0 l 1
EndSplineSet
Colour: ffffff
EndChar

StartChar: seven.osf
Encoding: 217 -1 214
Width: 767
VWidth: 0
Flags: HMW
LayerCount: 2
Back
SplineSet
373 238 m 0
 334 155 315 70 315 -17 c 128
 315 -104 346 -182 408 -250 c 1
 390 -273 365 -290 331 -302 c 1
 321 -307 308 -309 292 -309 c 128
 276 -309 256 -305 230 -297 c 128
 204 -289 179 -271 156 -241 c 128
 133 -211 121 -179 117 -146 c 128
 113 -113 111 -89 111 -71 c 0
 111 -30 133 36 176 128 c 1
 222 216 291 320 383 439 c 2
 603 723 l 1
 487 719 380 714 281 706 c 128
 182 698 126 694 111 691 c 1
 45 531 l 1
 -30 552 l 1
 4 843 l 1
 20 845 77 848 179 854 c 128
 281 860 368 862 439 862 c 1
 794 849 l 1
 791 791 l 1
 557 513 l 2
 473 412 412 320 373 238 c 0
EndSplineSet
Fore
SplineSet
38 666 m 1
 70.6133 965 l 1
 323.326 976.673 506.94 961 728.613 945 c 1
 726.567 850 l 1
 543.327 608.692 83.7744 53.6836 375.94 -257 c 1
 336.542 -292.68 304.122 -307.943 263.077 -307.943 c 0
 154.94 -307.943 80.9404 -212.947 80.9404 -103 c 0
 80.9404 83.6201 335.675 466.96 585.431 796 c 1
 441.387 808 286.102 799 167.431 786 c 1
 113.94 646 l 1
 38 666 l 1
EndSplineSet
Colour: ffffff
EndChar

StartChar: six.osf
Encoding: 218 -1 215
Width: 830
VWidth: 0
Flags: HMW
LayerCount: 2
Fore
SplineSet
767.062 1229 m 1
 792.875 1171 l 1
 513.027 1052 355.649 816 284.289 618 c 1
 294.289 618 l 1
 363.059 686 451.761 722 533.762 722 c 0
 688.114 722 771.058 592.966 771.058 442.061 c 0
 771.058 177.824 542.68 -21 326.081 -21 c 0
 115.255 -21 38 160.069 38 340.553 c 0
 38 759.062 410.794 1118.93 767.062 1229 c 1
230.825 306.292 m 0
 230.825 182.31 266.792 61 356.068 61 c 0
 486.861 61 576.953 218.141 576.953 407.774 c 0
 576.953 508.341 545.033 615 437.812 615 c 0
 363.812 615 297.688 570 267.984 534 c 1
 249.485 459.795 230.825 393.72 230.825 306.292 c 0
EndSplineSet
Colour: ffffff
EndChar

StartChar: three.osf
Encoding: 219 -1 216
Width: 879
VWidth: 0
Flags: HMW
LayerCount: 2
Fore
SplineSet
184.154 -9 m 1
 193.154 -96 235.154 -204 328.154 -204 c 0
 521.921 -204 591.276 -71.6465 591.276 72.6641 c 0
 591.276 186.051 489.526 308.56 324.145 313 c 1
 314.757 380 l 1
 454.65 422.332 645.67 540 645.67 701.953 c 0
 645.67 770.546 617.115 857 542.89 857 c 0
 434.89 857 370.961 788 319.707 698 c 1
 245.983 725 l 1
 281.613 830 444.113 991 622.113 991 c 0
 756.992 991 840.85 875.627 840.85 754.057 c 0
 840.85 566.959 655.005 453.062 553.408 412 c 1
 551.666 401 l 1
 683.782 385.753 788.128 269.154 788.128 131.281 c 0
 788.128 -95.9727 539.787 -297 285.114 -297 c 0
 121.869 -297 37 -213.626 37 -151.289 c 0
 37 -92.3799 98.1143 -17.168 184.154 -9 c 1
EndSplineSet
Colour: ffffff
EndChar

StartChar: two.osf
Encoding: 220 -1 217
Width: 847
VWidth: 0
Flags: HMW
LayerCount: 2
Fore
SplineSet
47.1553 102 m 5
 357 288 597.326 444 597.326 698.212 c 4
 597.326 796.606 549.67 867 471.319 867 c 4
 385.319 867 280.856 782 230.909 675 c 5
 160.503 704 l 5
 191.708 800 356.325 987 564.959 991 c 4
 567.043 991.033 569.113 991.049 571.17 991.049 c 4
 732.955 991.049 808.468 869.392 808.97 739.958 c 4
 810 474 498 297 258.282 147 c 5
 629.282 147 l 5
 731.674 301 l 5
 801.248 292 l 5
 701 0 l 5
 38 0 l 5
 47.1553 102 l 5
EndSplineSet
Colour: ffffff
EndChar

StartChar: zero.osf
Encoding: 221 -1 218
Width: 872
VWidth: 0
Flags: HMW
LayerCount: 2
Fore
SplineSet
514.226 985.012 m 1
 516.98 985 l 0
 725.121 982.436 833.53 838.654 833.53 619.194 c 4
 833.53 234.553 571.738 -23 356.328 -23 c 0
 180.995 -23 38 95.0791 38 347.967 c 0
 38 673.971 259.829 985.012 514.226 985.012 c 1
229.239 320.578 m 0
 229.239 138.032 295.704 71 372.216 71 c 0
 501.554 71 645.469 292.944 645.469 644.956 c 0
 645.469 825.256 579.141 900 502.517 900 c 0
 371.067 900 229.239 672.917 229.239 320.578 c 0
EndSplineSet
Colour: ffffff
EndChar

StartChar: uniF001
Encoding: 209 61441 219
Width: 1381
VWidth: 1655
Flags: HMW
LayerCount: 2
Back
SplineSet
35 0 m 1
 47 73 l 1
 199 116 l 1
 199 784 l 1
 50 784 l 1
 62 857 l 1
 200 879 l 1
 233 1167 423 1304 565 1304 c 0
 670 1304 746 1269 746 1189 c 0
 746 1140 690 1090 657 1077 c 1
 608 1156 550 1198 494 1198 c 0
 420 1198 370 1153 368 981 c 2
 366 873 l 1
 623 873 l 1
 611 784 l 1
 366 784 l 1
 366 121 l 1
 611 83 l 1
 604 0 l 1
 35 0 l 1
658 0 m 1
 670 79 l 1
 821 116 l 1
 821 731 l 1
 670 786 l 1
 683 862 l 1
 964 885 l 1
 989 860 l 1
 989 116 l 1
 1149 80 l 1
 1137 0 l 1
 658 0 l 1
777 1194 m 0
 777 1258 833 1306 895 1306 c 0
 961 1306 1019 1256 1019 1192 c 0
 1019 1125 961 1070 895 1070 c 0
 829 1070 777 1127 777 1194 c 0
EndSplineSet
Fore
SplineSet
182 -381 m 0
 96.0889 -381 44.2178 -333.839 38 -253 c 1
 38 -204.169 68.8262 -158.516 97 -132 c 1
 163 -196 230 -228 298 -228 c 0
 439 -228 417 0 436 313 c 2
 464 775 l 1
 356 766 l 1
 368 871 l 1
 476 855 l 1
 489 925 l 2
 526.615 1113.24 700.216 1299 937 1299 c 0
 1030.5 1299 1116 1246.57 1116 1163 c 0
 1116 1104.34 1081.84 1064.35 1042 1039 c 1
 1010.79 1104.27 945.071 1164 835 1164 c 0
 647.938 1164 640.25 1023.64 630 850 c 1
 670.536 868.579 908 900.693 1005.26 900.693 c 0
 1108.79 900.693 1158 892 1158 756 c 0
 1158 748 1153 692 1141 569 c 1
 1113 254 l 1
 1109 225 1108 201 1108 181 c 0
 1108 142 1119 123 1142 123 c 0
 1207.28 123 1274.68 195.456 1302 246 c 1
 1344 217 l 1
 1284 57 1188 -23 1056 -23 c 0
 975.959 -23 943 30.3711 943 108 c 0
 943 145 947 208 956 296 c 1
 992 601 l 2
 995.081 627.957 997.305 650.532 997.305 669.329 c 0
 997.305 754.453 961 755 860.223 765.665 c 0
 794.192 772.653 714.532 775.834 650.092 775.834 c 0
 640.652 775.834 631.532 775.681 622.82 775.342 c 1
 582 178 l 2
 558 -170 454 -381 182 -381 c 0
EndSplineSet
Colour: ffffff
EndChar

StartChar: uniF002
Encoding: 210 61442 220
Width: 1338
VWidth: 1655
Flags: HMW
LayerCount: 2
Back
SplineSet
161 -381 m 0
 75.0889 -381 23.2178 -333.839 17 -253 c 1
 17 -204.169 47.8262 -158.516 76 -132 c 1
 142 -196 209 -228 277 -228 c 0
 418 -228 393.361 0.598633 415 313 c 1
 443 765 l 1
 335 756 l 1
 347 861 l 1
 455 845 l 1
 465 925 l 2
 485 1088 618 1287 831 1287 c 4
 954.077 1287 1006 1220 1038.07 1203.65 c 5
 1068 1210 1103.79 1227.21 1151 1266 c 5
 1166 1245 l 5
 1128.37 967 l 25
 1086 623 l 1
 1046 253 l 2
 1043.49 229.735 1042.02 179.952 1042.02 163.34 c 0
 1042.02 128 1055.97 121 1096 121 c 0
 1177.56 121 1194.02 206.129 1228 266 c 1
 1280 246 l 1
 1246 77 1151 -24 1005 -24 c 0
 936 -24 871 3 871 99 c 0
 871 137 877 216 888 295 c 2
 981.698 1065.8 l 5
 934.006 1111.05 858.676 1152 759 1152 c 4
 613 1152 609 987 609 840 c 1
 839 861 l 1
 820 750 l 1
 603 761 l 1
 561 178 l 2
 536 -170 433 -381 161 -381 c 0
641 0 m 1
 653 79 l 1
 805 116 l 1
 805 1117 l 1
 648 1171 l 1
 660 1247 l 1
 947 1269 l 1
 972 1245 l 1
 972 116 l 1
 1131 80 l 1
 1120 0 l 1
 641 0 l 1
35 0 m 1
 47 73 l 1
 199 116 l 1
 199 784 l 1
 50 784 l 1
 62 857 l 1
 200 879 l 1
 203 1153 401 1302 494 1302 c 0
 581 1302 638 1281 638 1214 c 0
 638 1174 604 1136 574 1120 c 1
 550 1147 476 1185 432 1185 c 0
 370 1185 359 1065 363 948 c 2
 366 873 l 1
 623 873 l 1
 611 784 l 1
 366 784 l 1
 366 121 l 1
 611 83 l 1
 604 0 l 1
 35 0 l 1
EndSplineSet
Fore
SplineSet
182 -381 m 0
 96.0889 -381 44.2178 -333.839 38 -253 c 1
 38 -204.169 68.8262 -158.516 97 -132 c 1
 163 -196 230 -228 298 -228 c 0
 439 -228 417 0 436 313 c 2
 464 765 l 1
 356 756 l 1
 368 861 l 1
 476 845 l 1
 486 925 l 2
 505.891 1093.4 638.164 1299 850 1299 c 0
 973.077 1299 1025 1232 1057.07 1215.65 c 1
 1170 1278 l 1
 1185 1257 l 1
 1149.37 967 l 25
 1107 623 l 1
 1067 253 l 2
 1064.49 229.735 1063.02 179.952 1063.02 163.34 c 0
 1063.02 128 1076.97 121 1117 121 c 0
 1198.56 121 1215.02 206.129 1249 266 c 1
 1301 246 l 1
 1267 77 1172 -24 1026 -24 c 0
 957 -24 892 3 892 99 c 0
 892 137 900 216 909 295 c 2
 1000.7 1077.8 l 1
 953.006 1123.05 877.676 1164 778 1164 c 0
 633.947 1164 630 992.654 630 840 c 1
 860 861 l 1
 841 750 l 1
 624 761 l 1
 582 178 l 2
 557 -170 454 -381 182 -381 c 0
EndSplineSet
Colour: ffffff
EndChar

StartChar: OE
Encoding: 222 338 221
Width: 1676
VWidth: 1655
Flags: HW
HStem: -28 148<430.269 694.074> 3 95<882 1347.86> 9.90759 110.092<484.38 692.638> 569 145<1219.15 1377> 1130 145<442.022 704.452> 1143 109<1011 1440.56>
VStem: 37 209<362.408 797.839> 1473 86<848 908.651> 1490 87<332.552 440>
LayerCount: 2
Back
SplineSet
140.424 619 m 0xa780
 188.574 1009 423.046 1272 817.046 1272 c 0xaf80
 887.046 1272 947.935 1263 998.589 1244 c 1
 1775.59 1244 l 1
 1704.08 924 l 1
 1619.69 937 l 1
 1606.23 1152 l 1
 1137.23 1152 l 1
 1078.46 676 l 1
 1366.46 676 l 1
 1423.28 796 l 1
 1519 810 l 1
 1438.98 421 l 1
 1350.37 408 l 1
 1338.98 583 l 1
 1066.98 583 l 1
 1006.85 96 l 1
 1498.85 96 l 1
 1625.25 326 l 1
 1706.64 313 l 1
 1639 0 l 1
 798 0 l 1x7780
 730.024 -16 659.666 -27 586.666 -27 c 0
 248.666 -27 94.4961 247 140.424 619 c 0xa780
369.462 676 m 0
 337.237 415 382.754 79 642.754 79 c 0
 701.754 79 760.358 92 817.062 122 c 1
 941.02 1126 l 1
 889.094 1159 826.193 1176 756.193 1176 c 0
 538.193 1176 410.699 1010 369.462 676 c 0
EndSplineSet
Fore
SplineSet
280 888 m 0x9a
 257 817 246 734 246 639 c 0
 246 544 259 455 286 375 c 0
 313 295 350 233 400 188 c 0
 450 143 506 120 569 120 c 0
 615.005 120 656.737 130.572 694.407 151.61 c 1
 797.979 994.171 l 1
 779.436 1020.17 758.386 1043.14 735 1063 c 0
 682 1108 621 1130 554 1130 c 0
 487 1130 430 1108 384 1063 c 0
 338 1018 303 959 280 888 c 0x9a
862.701 1222.04 m 1
 884.78 1225.87 911.13 1229.35 942 1233 c 0
 1087 1246 1220 1252 1342 1252 c 1
 1639 1246 l 1
 1559 835 l 1
 1473 848 l 1x17
 1441 1111 l 1
 1413 1117 l 1
 1318 1136 1195 1145 1044 1143 c 1
 1011 1143 l 1
 956 680 l 1
 1411 714 l 1
 1377 569 l 1
 944 578 l 1
 882 98 l 1
 1099 108 l 1
 1221 115 1305 122 1350 132 c 1
 1373 169 1399 222 1430 292 c 0
 1461 362 1480 415 1490 451 c 1
 1577 440 l 1
 1577 434 l 2
 1577 345 1570 262 1556 182 c 0
 1542 102 1524 41 1500 0 c 1
 1132 2 925 3 882 3 c 1x5680
 679.706 9.90723 l 1x3280
 619.22 -15.5918 553.212 -28 481 -28 c 0
 399 -28 323 -4 253 45 c 0
 183 94 130 158 93 238 c 0
 56 318 37 408 37 505 c 0
 37 642 63 769 115 886 c 0
 167 1003 241 1098 336 1169 c 0
 431 1240 540 1275 660 1275 c 0
 734.59 1275 801.79 1257.53 862.701 1222.04 c 1
EndSplineSet
Colour: ffffff
EndChar

StartChar: oe
Encoding: 223 339 222
Width: 1120
VWidth: 1655
Flags: HW
HStem: -31 134<715.677 901.26> -21 153<157.5 302.628> 770 125<318.49 507.747> 790 107<771.91 923.24>
VStem: 36 154<151.219 467.823> 499.025 159.975<162.375 287> 931 152<580.982 783.477>
LayerCount: 2
Back
SplineSet
106.596 426 m 0x7c
 144.129 730 353.117 900 576.117 900 c 0
 700.117 900 822.117 819 845.869 736 c 1
 918.117 819 1040.99 899 1178.99 899 c 0
 1323.99 899 1432.78 792 1406.73 581 c 0
 1402.91 550 1385.88 485 1373.68 451 c 1
 890.941 445 l 1
 870.693 281 944.481 93 1125.48 93 c 0
 1195.48 93 1246.47 101 1357.38 157 c 1
 1375.84 104 l 1
 1286.59 21 1160.3 -30 1028.3 -30 c 0xbc
 897.296 -30 812.814 39 754.174 131 c 1
 651.222 18 558.543 -28 437.543 -28 c 0
 173.543 -28 74.8652 169 106.596 426 c 0x7c
294.361 497 m 0
 268.928 291 320.383 76 484.383 76 c 0x7c
 592.383 76 683.915 218 701.324 359 c 0
 725.769 557 693.895 801 522.895 801 c 0
 371.895 801 313.745 654 294.361 497 c 0
902.065 527 m 5
 1218.78 549 l 1
 1224.76 565 1231.96 599 1233.93 615 c 0
 1248.62 734 1213.89 801 1117.89 801 c 0
 1037.89 801 936.018 721 902.065 527 c 5
EndSplineSet
Fore
SplineSet
931 698 m 0x1e
 931 760 904 791 851 790 c 1
 739 790 675 664 659 414 c 1
 840 481 931 576 931 698 c 0x1e
1039 849 m 0
 1069 817 1083 777 1083 726 c 0
 1083 630 1034 547 935 477 c 0
 854 419 762 374 659 341 c 1
 663 182 716 103 821 103 c 0
 898 103 967 151 1027 246 c 1
 1064 214 l 1
 1041 147 999 89 941 41 c 0
 883 -7 816 -31 740 -31 c 0x9e
 664 -31 606 -2 563 56 c 0
 520.864 112.835 499.852 189.835 499.025 287 c 1
 491 287 l 1
 456 203 410 131 353 70 c 0
 296 9 240 -21 185 -21 c 0
 130 -21 91 0 69 41 c 0
 47 82 36 143 36 225 c 0
 36 307 55 401 93 505 c 0
 131 609 182 701 246 779 c 0
 310 857 374 895 437 895 c 0x6e
 524.938 895 591.938 842.667 638 738 c 1
 648.305 738 l 1
 668.21 763.54 689.775 786.919 713 808 c 0
 778 867 845 897 916 897 c 0
 968 897 1009 881 1039 849 c 0
190 288 m 0
 190 229 194 188 203 166 c 0
 212 144 228 132 255 132 c 0
 304 132 359 183 422 285 c 0
 485 387 529 512 555 660 c 1
 545 688 526 713 496 736 c 0
 466 759 436 770 404 770 c 0x6e
 372 770 342 754 312 722 c 0
 282 690 259 648 242 595 c 0
 207 491 190 389 190 288 c 0
EndSplineSet
Colour: ffffff
EndChar

